G04 #@! TF.FileFunction,Profile,NP*
%FSLAX46Y46*%
G04 Gerber Fmt 4.6, Leading zero omitted, Abs format (unit mm)*
G04 Created by KiCad (PCBNEW 4.0.4-stable) date 03/09/17 11:08:24*
%MOMM*%
%LPD*%
G01*
G04 APERTURE LIST*
%ADD10C,0.500000*%
%ADD11C,0.300000*%
G04 APERTURE END LIST*
D10*
D11*
X50419000Y10381000D02*
X50419000Y20381000D01*
X419000Y10381000D02*
X419000Y20381000D01*
X42919000Y21881000D02*
X42919000Y27881000D01*
X50419000Y20381000D02*
X50419000Y21881000D01*
X50419000Y8881000D02*
X50419000Y10381000D01*
X42919000Y2881000D02*
X42919000Y8881000D01*
X50419000Y21881000D02*
X42919000Y21881000D01*
X42919000Y27881000D02*
X50419000Y27881000D01*
X50419000Y2881000D02*
X42919000Y2881000D01*
X42919000Y8881000D02*
X50419000Y8881000D01*
X47919000Y30381000D02*
X15419000Y30381000D01*
X419000Y27881000D02*
X419000Y30381000D01*
X15419000Y30381000D02*
G75*
G03X7919000Y37881000I-7500000J0D01*
G01*
X7919000Y37881000D02*
G75*
G03X419000Y30381000I0J-7500000D01*
G01*
X419000Y2881000D02*
X419000Y10381000D01*
X419000Y20381000D02*
X419000Y27881000D01*
X47919000Y381000D02*
X2919000Y381000D01*
X419000Y2881000D02*
G75*
G03X2919000Y381000I2500000J0D01*
G01*
X50419000Y27881000D02*
G75*
G03X47919000Y30381000I-2500000J0D01*
G01*
X47919000Y381000D02*
G75*
G03X50419000Y2881000I0J2500000D01*
G01*
M02*
