M48
;DRILL file {KiCad 4.0.4-stable} date 03/09/17 11:08:25
;FORMAT={-:-/ absolute / inch / decimal}
FMAT,2
INCH,TZ
T1C0.020
T2C0.032
T3C0.032
T4C0.039
T5C0.039
T6C0.197
T7C0.157
%
G90
G05
M72
T2
X1.5Y0.75
X1.5Y0.45
X1.675Y0.75
X1.675Y0.45
T3
X1.625Y1.025
X1.625Y0.925
X1.625Y0.275
X1.625Y0.175
T4
X1.1728Y1.1059
X1.1728Y0.85
X1.1728Y0.3559
X1.1728Y0.1
X1.35Y1.1059
X1.35Y0.85
X1.35Y0.3559
X1.35Y0.1
T5
X0.155Y0.225
X0.525Y0.225
X1.325Y0.7
X1.325Y0.5
T7
X0.3118Y1.2945
T1
X0.5152Y0.85G85X0.5348Y0.85
G05
X0.5152Y0.35G85X0.5348Y0.35
G05
T6
X0.0165Y0.5071G85X0.0165Y0.704
G05
X1.985Y0.5071G85X1.985Y0.704
G05
T0
M30
