M48
; DRILL file {KiCad (5.1.10)-1} date 07/04/21 12:47:06
; FORMAT={-:-/ absolute / inch / decimal}
; #@! TF.CreationDate,2021-07-04T12:47:06+01:00
; #@! TF.GenerationSoftware,Kicad,Pcbnew,(5.1.10)-1
FMAT,2
INCH
T1C0.0197
T2C0.0315
T3C0.0320
T4C0.0394
T5C0.0394
T6C0.1969
T7C0.1575
%
G90
G05
T2
X1.5Y0.75
X1.5Y0.45
X1.675Y0.75
X1.675Y0.45
T3
X1.625Y1.025
X1.625Y0.925
X1.625Y0.275
X1.625Y0.175
T4
X1.1728Y1.1059
X1.1728Y0.85
X1.1728Y0.3559
X1.1728Y0.1
X1.35Y1.1059
X1.35Y0.85
X1.35Y0.3559
X1.35Y0.1
T5
X0.155Y0.225
X0.525Y0.225
X1.325Y0.7
X1.325Y0.5
T7
X0.3118Y1.2945
T1
G00X0.5152Y0.85
M15
G01X0.5348Y0.85
M16
G05
G00X0.5152Y0.35
M15
G01X0.5348Y0.35
M16
G05
T6
G00X0.0165Y0.5071
M15
G01X0.0165Y0.704
M16
G05
G00X1.985Y0.5071
M15
G01X1.985Y0.704
M16
G05
T0
M30
