%TF.GenerationSoftware,KiCad,Pcbnew,(5.1.10)-1*%
%TF.CreationDate,2021-07-04T12:46:57+01:00*%
%TF.ProjectId,SolderSolar,536f6c64-6572-4536-9f6c-61722e6b6963,rev?*%
%TF.SameCoordinates,PX6350ce0PY463f660*%
%TF.FileFunction,Legend,Bot*%
%TF.FilePolarity,Positive*%
%FSLAX46Y46*%
G04 Gerber Fmt 4.6, Leading zero omitted, Abs format (unit mm)*
G04 Created by KiCad (PCBNEW (5.1.10)-1) date 2021-07-04 12:46:57*
%MOMM*%
%LPD*%
G01*
G04 APERTURE LIST*
%ADD10C,0.300000*%
G04 APERTURE END LIST*
D10*
X22422428Y24030858D02*
X22208142Y23959429D01*
X21851000Y23959429D01*
X21708142Y24030858D01*
X21636714Y24102286D01*
X21565285Y24245143D01*
X21565285Y24388000D01*
X21636714Y24530858D01*
X21708142Y24602286D01*
X21851000Y24673715D01*
X22136714Y24745143D01*
X22279571Y24816572D01*
X22351000Y24888000D01*
X22422428Y25030858D01*
X22422428Y25173715D01*
X22351000Y25316572D01*
X22279571Y25388000D01*
X22136714Y25459429D01*
X21779571Y25459429D01*
X21565285Y25388000D01*
X20636714Y25459429D02*
X20351000Y25459429D01*
X20208142Y25388000D01*
X20065285Y25245143D01*
X19993857Y24959429D01*
X19993857Y24459429D01*
X20065285Y24173715D01*
X20208142Y24030858D01*
X20351000Y23959429D01*
X20636714Y23959429D01*
X20779571Y24030858D01*
X20922428Y24173715D01*
X20993857Y24459429D01*
X20993857Y24959429D01*
X20922428Y25245143D01*
X20779571Y25388000D01*
X20636714Y25459429D01*
X18636714Y23959429D02*
X19351000Y23959429D01*
X19351000Y25459429D01*
X18136714Y23959429D02*
X18136714Y25459429D01*
X17779571Y25459429D01*
X17565285Y25388000D01*
X17422428Y25245143D01*
X17351000Y25102286D01*
X17279571Y24816572D01*
X17279571Y24602286D01*
X17351000Y24316572D01*
X17422428Y24173715D01*
X17565285Y24030858D01*
X17779571Y23959429D01*
X18136714Y23959429D01*
X16636714Y24745143D02*
X16136714Y24745143D01*
X15922428Y23959429D02*
X16636714Y23959429D01*
X16636714Y25459429D01*
X15922428Y25459429D01*
X14422428Y23959429D02*
X14922428Y24673715D01*
X15279571Y23959429D02*
X15279571Y25459429D01*
X14708142Y25459429D01*
X14565285Y25388000D01*
X14493857Y25316572D01*
X14422428Y25173715D01*
X14422428Y24959429D01*
X14493857Y24816572D01*
X14565285Y24745143D01*
X14708142Y24673715D01*
X15279571Y24673715D01*
X12708142Y24030858D02*
X12493857Y23959429D01*
X12136714Y23959429D01*
X11993857Y24030858D01*
X11922428Y24102286D01*
X11851000Y24245143D01*
X11851000Y24388000D01*
X11922428Y24530858D01*
X11993857Y24602286D01*
X12136714Y24673715D01*
X12422428Y24745143D01*
X12565285Y24816572D01*
X12636714Y24888000D01*
X12708142Y25030858D01*
X12708142Y25173715D01*
X12636714Y25316572D01*
X12565285Y25388000D01*
X12422428Y25459429D01*
X12065285Y25459429D01*
X11851000Y25388000D01*
X10922428Y25459429D02*
X10636714Y25459429D01*
X10493857Y25388000D01*
X10351000Y25245143D01*
X10279571Y24959429D01*
X10279571Y24459429D01*
X10351000Y24173715D01*
X10493857Y24030858D01*
X10636714Y23959429D01*
X10922428Y23959429D01*
X11065285Y24030858D01*
X11208142Y24173715D01*
X11279571Y24459429D01*
X11279571Y24959429D01*
X11208142Y25245143D01*
X11065285Y25388000D01*
X10922428Y25459429D01*
X8922428Y23959429D02*
X9636714Y23959429D01*
X9636714Y25459429D01*
X8493857Y24388000D02*
X7779571Y24388000D01*
X8636714Y23959429D02*
X8136714Y25459429D01*
X7636714Y23959429D01*
X6279571Y23959429D02*
X6779571Y24673715D01*
X7136714Y23959429D02*
X7136714Y25459429D01*
X6565285Y25459429D01*
X6422428Y25388000D01*
X6351000Y25316572D01*
X6279571Y25173715D01*
X6279571Y24959429D01*
X6351000Y24816572D01*
X6422428Y24745143D01*
X6565285Y24673715D01*
X7136714Y24673715D01*
X22224000Y26832715D02*
X22295428Y26904143D01*
X22438285Y26975572D01*
X22581142Y26975572D01*
X22724000Y26904143D01*
X22795428Y26832715D01*
X22866857Y26689858D01*
X22866857Y26547000D01*
X22795428Y26404143D01*
X22724000Y26332715D01*
X22581142Y26261286D01*
X22438285Y26261286D01*
X22295428Y26332715D01*
X22224000Y26404143D01*
X22224000Y26975572D02*
X22224000Y26404143D01*
X22152571Y26332715D01*
X22081142Y26332715D01*
X21938285Y26404143D01*
X21866857Y26547000D01*
X21866857Y26904143D01*
X22009714Y27118429D01*
X22224000Y27261286D01*
X22509714Y27332715D01*
X22795428Y27261286D01*
X23009714Y27118429D01*
X23152571Y26904143D01*
X23224000Y26618429D01*
X23152571Y26332715D01*
X23009714Y26118429D01*
X22795428Y25975572D01*
X22509714Y25904143D01*
X22224000Y25975572D01*
X22009714Y26118429D01*
X20581142Y26189858D02*
X20724000Y26118429D01*
X21009714Y26118429D01*
X21152571Y26189858D01*
X21224000Y26261286D01*
X21295428Y26404143D01*
X21295428Y26832715D01*
X21224000Y26975572D01*
X21152571Y27047000D01*
X21009714Y27118429D01*
X20724000Y27118429D01*
X20581142Y27047000D01*
X19295428Y27118429D02*
X19295428Y26118429D01*
X19938285Y27118429D02*
X19938285Y26332715D01*
X19866857Y26189858D01*
X19724000Y26118429D01*
X19509714Y26118429D01*
X19366857Y26189858D01*
X19295428Y26261286D01*
X18581142Y26118429D02*
X18581142Y27118429D01*
X18581142Y26832715D02*
X18509714Y26975572D01*
X18438285Y27047000D01*
X18295428Y27118429D01*
X18152571Y27118429D01*
X17652571Y26118429D02*
X17652571Y27118429D01*
X17652571Y27618429D02*
X17724000Y27547000D01*
X17652571Y27475572D01*
X17581142Y27547000D01*
X17652571Y27618429D01*
X17652571Y27475572D01*
X16724000Y26118429D02*
X16866857Y26189858D01*
X16938285Y26261286D01*
X17009714Y26404143D01*
X17009714Y26832715D01*
X16938285Y26975572D01*
X16866857Y27047000D01*
X16724000Y27118429D01*
X16509714Y27118429D01*
X16366857Y27047000D01*
X16295428Y26975572D01*
X16224000Y26832715D01*
X16224000Y26404143D01*
X16295428Y26261286D01*
X16366857Y26189858D01*
X16509714Y26118429D01*
X16724000Y26118429D01*
X14938285Y27118429D02*
X14938285Y26118429D01*
X15581142Y27118429D02*
X15581142Y26332715D01*
X15509714Y26189858D01*
X15366857Y26118429D01*
X15152571Y26118429D01*
X15009714Y26189858D01*
X14938285Y26261286D01*
X14295428Y26189858D02*
X14152571Y26118429D01*
X13866857Y26118429D01*
X13724000Y26189858D01*
X13652571Y26332715D01*
X13652571Y26404143D01*
X13724000Y26547000D01*
X13866857Y26618429D01*
X14081142Y26618429D01*
X14224000Y26689858D01*
X14295428Y26832715D01*
X14295428Y26904143D01*
X14224000Y27047000D01*
X14081142Y27118429D01*
X13866857Y27118429D01*
X13724000Y27047000D01*
X12438285Y26189858D02*
X12581142Y26118429D01*
X12866857Y26118429D01*
X13009714Y26189858D01*
X13081142Y26332715D01*
X13081142Y26904143D01*
X13009714Y27047000D01*
X12866857Y27118429D01*
X12581142Y27118429D01*
X12438285Y27047000D01*
X12366857Y26904143D01*
X12366857Y26761286D01*
X13081142Y26618429D01*
X11509714Y26118429D02*
X11652571Y26189858D01*
X11724000Y26332715D01*
X11724000Y27618429D01*
X10366857Y26189858D02*
X10509714Y26118429D01*
X10795428Y26118429D01*
X10938285Y26189858D01*
X11009714Y26332715D01*
X11009714Y26904143D01*
X10938285Y27047000D01*
X10795428Y27118429D01*
X10509714Y27118429D01*
X10366857Y27047000D01*
X10295428Y26904143D01*
X10295428Y26761286D01*
X11009714Y26618429D01*
X9009714Y26189858D02*
X9152571Y26118429D01*
X9438285Y26118429D01*
X9581142Y26189858D01*
X9652571Y26261286D01*
X9724000Y26404143D01*
X9724000Y26832715D01*
X9652571Y26975572D01*
X9581142Y27047000D01*
X9438285Y27118429D01*
X9152571Y27118429D01*
X9009714Y27047000D01*
X8581142Y27118429D02*
X8009714Y27118429D01*
X8366857Y27618429D02*
X8366857Y26332715D01*
X8295428Y26189858D01*
X8152571Y26118429D01*
X8009714Y26118429D01*
X7509714Y26118429D02*
X7509714Y27118429D01*
X7509714Y26832715D02*
X7438285Y26975572D01*
X7366857Y27047000D01*
X7224000Y27118429D01*
X7081142Y27118429D01*
X6581142Y26118429D02*
X6581142Y27118429D01*
X6581142Y27618429D02*
X6652571Y27547000D01*
X6581142Y27475572D01*
X6509714Y27547000D01*
X6581142Y27618429D01*
X6581142Y27475572D01*
X5224000Y26189858D02*
X5366857Y26118429D01*
X5652571Y26118429D01*
X5795428Y26189858D01*
X5866857Y26261286D01*
X5938285Y26404143D01*
X5938285Y26832715D01*
X5866857Y26975572D01*
X5795428Y27047000D01*
X5652571Y27118429D01*
X5366857Y27118429D01*
X5224000Y27047000D01*
X24866857Y28094858D02*
X25009714Y28023429D01*
X25295428Y28023429D01*
X25438285Y28094858D01*
X25509714Y28166286D01*
X25581142Y28309143D01*
X25581142Y28737715D01*
X25509714Y28880572D01*
X25438285Y28952000D01*
X25295428Y29023429D01*
X25009714Y29023429D01*
X24866857Y28952000D01*
X23581142Y29023429D02*
X23581142Y28023429D01*
X24224000Y29023429D02*
X24224000Y28237715D01*
X24152571Y28094858D01*
X24009714Y28023429D01*
X23795428Y28023429D01*
X23652571Y28094858D01*
X23581142Y28166286D01*
X22866857Y28023429D02*
X22866857Y29023429D01*
X22866857Y28737715D02*
X22795428Y28880572D01*
X22724000Y28952000D01*
X22581142Y29023429D01*
X22438285Y29023429D01*
X21938285Y28023429D02*
X21938285Y29023429D01*
X21938285Y29523429D02*
X22009714Y29452000D01*
X21938285Y29380572D01*
X21866857Y29452000D01*
X21938285Y29523429D01*
X21938285Y29380572D01*
X21009714Y28023429D02*
X21152571Y28094858D01*
X21224000Y28166286D01*
X21295428Y28309143D01*
X21295428Y28737715D01*
X21224000Y28880572D01*
X21152571Y28952000D01*
X21009714Y29023429D01*
X20795428Y29023429D01*
X20652571Y28952000D01*
X20581142Y28880572D01*
X20509714Y28737715D01*
X20509714Y28309143D01*
X20581142Y28166286D01*
X20652571Y28094858D01*
X20795428Y28023429D01*
X21009714Y28023429D01*
X19224000Y29023429D02*
X19224000Y28023429D01*
X19866857Y29023429D02*
X19866857Y28237715D01*
X19795428Y28094858D01*
X19652571Y28023429D01*
X19438285Y28023429D01*
X19295428Y28094858D01*
X19224000Y28166286D01*
X18581142Y28094858D02*
X18438285Y28023429D01*
X18152571Y28023429D01*
X18009714Y28094858D01*
X17938285Y28237715D01*
X17938285Y28309143D01*
X18009714Y28452000D01*
X18152571Y28523429D01*
X18366857Y28523429D01*
X18509714Y28594858D01*
X18581142Y28737715D01*
X18581142Y28809143D01*
X18509714Y28952000D01*
X18366857Y29023429D01*
X18152571Y29023429D01*
X18009714Y28952000D01*
X16724000Y28094858D02*
X16866857Y28023429D01*
X17152571Y28023429D01*
X17295428Y28094858D01*
X17366857Y28237715D01*
X17366857Y28809143D01*
X17295428Y28952000D01*
X17152571Y29023429D01*
X16866857Y29023429D01*
X16724000Y28952000D01*
X16652571Y28809143D01*
X16652571Y28666286D01*
X17366857Y28523429D01*
X15795428Y28023429D02*
X15938285Y28094858D01*
X16009714Y28237715D01*
X16009714Y29523429D01*
X14652571Y28094858D02*
X14795428Y28023429D01*
X15081142Y28023429D01*
X15224000Y28094858D01*
X15295428Y28237715D01*
X15295428Y28809143D01*
X15224000Y28952000D01*
X15081142Y29023429D01*
X14795428Y29023429D01*
X14652571Y28952000D01*
X14581142Y28809143D01*
X14581142Y28666286D01*
X15295428Y28523429D01*
X13295428Y28094858D02*
X13438285Y28023429D01*
X13724000Y28023429D01*
X13866857Y28094858D01*
X13938285Y28166286D01*
X14009714Y28309143D01*
X14009714Y28737715D01*
X13938285Y28880572D01*
X13866857Y28952000D01*
X13724000Y29023429D01*
X13438285Y29023429D01*
X13295428Y28952000D01*
X12866857Y29023429D02*
X12295428Y29023429D01*
X12652571Y29523429D02*
X12652571Y28237715D01*
X12581142Y28094858D01*
X12438285Y28023429D01*
X12295428Y28023429D01*
X11795428Y28023429D02*
X11795428Y29023429D01*
X11795428Y28737715D02*
X11724000Y28880572D01*
X11652571Y28952000D01*
X11509714Y29023429D01*
X11366857Y29023429D01*
X10866857Y28023429D02*
X10866857Y29023429D01*
X10866857Y29523429D02*
X10938285Y29452000D01*
X10866857Y29380572D01*
X10795428Y29452000D01*
X10866857Y29523429D01*
X10866857Y29380572D01*
X9509714Y28094858D02*
X9652571Y28023429D01*
X9938285Y28023429D01*
X10081142Y28094858D01*
X10152571Y28166286D01*
X10224000Y28309143D01*
X10224000Y28737715D01*
X10152571Y28880572D01*
X10081142Y28952000D01*
X9938285Y29023429D01*
X9652571Y29023429D01*
X9509714Y28952000D01*
X8866857Y28166286D02*
X8795428Y28094858D01*
X8866857Y28023429D01*
X8938285Y28094858D01*
X8866857Y28166286D01*
X8866857Y28023429D01*
X7509714Y28094858D02*
X7652571Y28023429D01*
X7938285Y28023429D01*
X8081142Y28094858D01*
X8152571Y28166286D01*
X8224000Y28309143D01*
X8224000Y28737715D01*
X8152571Y28880572D01*
X8081142Y28952000D01*
X7938285Y29023429D01*
X7652571Y29023429D01*
X7509714Y28952000D01*
X6652571Y28023429D02*
X6795428Y28094858D01*
X6866857Y28166286D01*
X6938285Y28309143D01*
X6938285Y28737715D01*
X6866857Y28880572D01*
X6795428Y28952000D01*
X6652571Y29023429D01*
X6438285Y29023429D01*
X6295428Y28952000D01*
X6224000Y28880572D01*
X6152571Y28737715D01*
X6152571Y28309143D01*
X6224000Y28166286D01*
X6295428Y28094858D01*
X6438285Y28023429D01*
X6652571Y28023429D01*
X5509714Y28166286D02*
X5438285Y28094858D01*
X5509714Y28023429D01*
X5581142Y28094858D01*
X5509714Y28166286D01*
X5509714Y28023429D01*
X4152571Y29023429D02*
X4152571Y28023429D01*
X4795428Y29023429D02*
X4795428Y28237715D01*
X4724000Y28094858D01*
X4581142Y28023429D01*
X4366857Y28023429D01*
X4224000Y28094858D01*
X4152571Y28166286D01*
X3438285Y28023429D02*
X3438285Y29523429D01*
X3295428Y28594858D02*
X2866857Y28023429D01*
X2866857Y29023429D02*
X3438285Y28452000D01*
%TO.C,SC1*%
X10419000Y32881000D02*
G75*
G03*
X10419000Y32881000I-2500000J0D01*
G01*
%TD*%
M02*
