G04 #@! TF.FileFunction,Legend,Bot*
%FSLAX46Y46*%
G04 Gerber Fmt 4.6, Leading zero omitted, Abs format (unit mm)*
G04 Created by KiCad (PCBNEW 4.0.4-stable) date 03/09/17 11:08:24*
%MOMM*%
%LPD*%
G01*
G04 APERTURE LIST*
%ADD10C,0.500000*%
%ADD11C,0.300000*%
G04 APERTURE END LIST*
D10*
D11*
X22422429Y24030857D02*
X22208143Y23959429D01*
X21851000Y23959429D01*
X21708143Y24030857D01*
X21636714Y24102286D01*
X21565286Y24245143D01*
X21565286Y24388000D01*
X21636714Y24530857D01*
X21708143Y24602286D01*
X21851000Y24673714D01*
X22136714Y24745143D01*
X22279572Y24816571D01*
X22351000Y24888000D01*
X22422429Y25030857D01*
X22422429Y25173714D01*
X22351000Y25316571D01*
X22279572Y25388000D01*
X22136714Y25459429D01*
X21779572Y25459429D01*
X21565286Y25388000D01*
X20636715Y25459429D02*
X20351001Y25459429D01*
X20208143Y25388000D01*
X20065286Y25245143D01*
X19993858Y24959429D01*
X19993858Y24459429D01*
X20065286Y24173714D01*
X20208143Y24030857D01*
X20351001Y23959429D01*
X20636715Y23959429D01*
X20779572Y24030857D01*
X20922429Y24173714D01*
X20993858Y24459429D01*
X20993858Y24959429D01*
X20922429Y25245143D01*
X20779572Y25388000D01*
X20636715Y25459429D01*
X18636714Y23959429D02*
X19351000Y23959429D01*
X19351000Y25459429D01*
X18136714Y23959429D02*
X18136714Y25459429D01*
X17779571Y25459429D01*
X17565286Y25388000D01*
X17422428Y25245143D01*
X17351000Y25102286D01*
X17279571Y24816571D01*
X17279571Y24602286D01*
X17351000Y24316571D01*
X17422428Y24173714D01*
X17565286Y24030857D01*
X17779571Y23959429D01*
X18136714Y23959429D01*
X16636714Y24745143D02*
X16136714Y24745143D01*
X15922428Y23959429D02*
X16636714Y23959429D01*
X16636714Y25459429D01*
X15922428Y25459429D01*
X14422428Y23959429D02*
X14922428Y24673714D01*
X15279571Y23959429D02*
X15279571Y25459429D01*
X14708143Y25459429D01*
X14565285Y25388000D01*
X14493857Y25316571D01*
X14422428Y25173714D01*
X14422428Y24959429D01*
X14493857Y24816571D01*
X14565285Y24745143D01*
X14708143Y24673714D01*
X15279571Y24673714D01*
X12708143Y24030857D02*
X12493857Y23959429D01*
X12136714Y23959429D01*
X11993857Y24030857D01*
X11922428Y24102286D01*
X11851000Y24245143D01*
X11851000Y24388000D01*
X11922428Y24530857D01*
X11993857Y24602286D01*
X12136714Y24673714D01*
X12422428Y24745143D01*
X12565286Y24816571D01*
X12636714Y24888000D01*
X12708143Y25030857D01*
X12708143Y25173714D01*
X12636714Y25316571D01*
X12565286Y25388000D01*
X12422428Y25459429D01*
X12065286Y25459429D01*
X11851000Y25388000D01*
X10922429Y25459429D02*
X10636715Y25459429D01*
X10493857Y25388000D01*
X10351000Y25245143D01*
X10279572Y24959429D01*
X10279572Y24459429D01*
X10351000Y24173714D01*
X10493857Y24030857D01*
X10636715Y23959429D01*
X10922429Y23959429D01*
X11065286Y24030857D01*
X11208143Y24173714D01*
X11279572Y24459429D01*
X11279572Y24959429D01*
X11208143Y25245143D01*
X11065286Y25388000D01*
X10922429Y25459429D01*
X8922428Y23959429D02*
X9636714Y23959429D01*
X9636714Y25459429D01*
X8493857Y24388000D02*
X7779571Y24388000D01*
X8636714Y23959429D02*
X8136714Y25459429D01*
X7636714Y23959429D01*
X6279571Y23959429D02*
X6779571Y24673714D01*
X7136714Y23959429D02*
X7136714Y25459429D01*
X6565286Y25459429D01*
X6422428Y25388000D01*
X6351000Y25316571D01*
X6279571Y25173714D01*
X6279571Y24959429D01*
X6351000Y24816571D01*
X6422428Y24745143D01*
X6565286Y24673714D01*
X7136714Y24673714D01*
X22223999Y26832714D02*
X22295427Y26904143D01*
X22438284Y26975571D01*
X22581142Y26975571D01*
X22723999Y26904143D01*
X22795427Y26832714D01*
X22866856Y26689857D01*
X22866856Y26547000D01*
X22795427Y26404143D01*
X22723999Y26332714D01*
X22581142Y26261286D01*
X22438284Y26261286D01*
X22295427Y26332714D01*
X22223999Y26404143D01*
X22223999Y26975571D02*
X22223999Y26404143D01*
X22152570Y26332714D01*
X22081142Y26332714D01*
X21938284Y26404143D01*
X21866856Y26547000D01*
X21866856Y26904143D01*
X22009713Y27118429D01*
X22223999Y27261286D01*
X22509713Y27332714D01*
X22795427Y27261286D01*
X23009713Y27118429D01*
X23152570Y26904143D01*
X23223999Y26618429D01*
X23152570Y26332714D01*
X23009713Y26118429D01*
X22795427Y25975571D01*
X22509713Y25904143D01*
X22223999Y25975571D01*
X22009713Y26118429D01*
X20581142Y26189857D02*
X20723999Y26118429D01*
X21009713Y26118429D01*
X21152571Y26189857D01*
X21223999Y26261286D01*
X21295428Y26404143D01*
X21295428Y26832714D01*
X21223999Y26975571D01*
X21152571Y27047000D01*
X21009713Y27118429D01*
X20723999Y27118429D01*
X20581142Y27047000D01*
X19295428Y27118429D02*
X19295428Y26118429D01*
X19938285Y27118429D02*
X19938285Y26332714D01*
X19866857Y26189857D01*
X19723999Y26118429D01*
X19509714Y26118429D01*
X19366857Y26189857D01*
X19295428Y26261286D01*
X18581142Y26118429D02*
X18581142Y27118429D01*
X18581142Y26832714D02*
X18509714Y26975571D01*
X18438285Y27047000D01*
X18295428Y27118429D01*
X18152571Y27118429D01*
X17652571Y26118429D02*
X17652571Y27118429D01*
X17652571Y27618429D02*
X17724000Y27547000D01*
X17652571Y27475571D01*
X17581143Y27547000D01*
X17652571Y27618429D01*
X17652571Y27475571D01*
X16723999Y26118429D02*
X16866857Y26189857D01*
X16938285Y26261286D01*
X17009714Y26404143D01*
X17009714Y26832714D01*
X16938285Y26975571D01*
X16866857Y27047000D01*
X16723999Y27118429D01*
X16509714Y27118429D01*
X16366857Y27047000D01*
X16295428Y26975571D01*
X16223999Y26832714D01*
X16223999Y26404143D01*
X16295428Y26261286D01*
X16366857Y26189857D01*
X16509714Y26118429D01*
X16723999Y26118429D01*
X14938285Y27118429D02*
X14938285Y26118429D01*
X15581142Y27118429D02*
X15581142Y26332714D01*
X15509714Y26189857D01*
X15366856Y26118429D01*
X15152571Y26118429D01*
X15009714Y26189857D01*
X14938285Y26261286D01*
X14295428Y26189857D02*
X14152571Y26118429D01*
X13866856Y26118429D01*
X13723999Y26189857D01*
X13652571Y26332714D01*
X13652571Y26404143D01*
X13723999Y26547000D01*
X13866856Y26618429D01*
X14081142Y26618429D01*
X14223999Y26689857D01*
X14295428Y26832714D01*
X14295428Y26904143D01*
X14223999Y27047000D01*
X14081142Y27118429D01*
X13866856Y27118429D01*
X13723999Y27047000D01*
X12438285Y26189857D02*
X12581142Y26118429D01*
X12866856Y26118429D01*
X13009713Y26189857D01*
X13081142Y26332714D01*
X13081142Y26904143D01*
X13009713Y27047000D01*
X12866856Y27118429D01*
X12581142Y27118429D01*
X12438285Y27047000D01*
X12366856Y26904143D01*
X12366856Y26761286D01*
X13081142Y26618429D01*
X11509713Y26118429D02*
X11652571Y26189857D01*
X11723999Y26332714D01*
X11723999Y27618429D01*
X10366857Y26189857D02*
X10509714Y26118429D01*
X10795428Y26118429D01*
X10938285Y26189857D01*
X11009714Y26332714D01*
X11009714Y26904143D01*
X10938285Y27047000D01*
X10795428Y27118429D01*
X10509714Y27118429D01*
X10366857Y27047000D01*
X10295428Y26904143D01*
X10295428Y26761286D01*
X11009714Y26618429D01*
X9009714Y26189857D02*
X9152571Y26118429D01*
X9438285Y26118429D01*
X9581143Y26189857D01*
X9652571Y26261286D01*
X9724000Y26404143D01*
X9724000Y26832714D01*
X9652571Y26975571D01*
X9581143Y27047000D01*
X9438285Y27118429D01*
X9152571Y27118429D01*
X9009714Y27047000D01*
X8581143Y27118429D02*
X8009714Y27118429D01*
X8366857Y27618429D02*
X8366857Y26332714D01*
X8295429Y26189857D01*
X8152571Y26118429D01*
X8009714Y26118429D01*
X7509714Y26118429D02*
X7509714Y27118429D01*
X7509714Y26832714D02*
X7438286Y26975571D01*
X7366857Y27047000D01*
X7224000Y27118429D01*
X7081143Y27118429D01*
X6581143Y26118429D02*
X6581143Y27118429D01*
X6581143Y27618429D02*
X6652572Y27547000D01*
X6581143Y27475571D01*
X6509715Y27547000D01*
X6581143Y27618429D01*
X6581143Y27475571D01*
X5224000Y26189857D02*
X5366857Y26118429D01*
X5652571Y26118429D01*
X5795429Y26189857D01*
X5866857Y26261286D01*
X5938286Y26404143D01*
X5938286Y26832714D01*
X5866857Y26975571D01*
X5795429Y27047000D01*
X5652571Y27118429D01*
X5366857Y27118429D01*
X5224000Y27047000D01*
X24866857Y28094857D02*
X25009714Y28023429D01*
X25295428Y28023429D01*
X25438286Y28094857D01*
X25509714Y28166286D01*
X25581143Y28309143D01*
X25581143Y28737714D01*
X25509714Y28880571D01*
X25438286Y28952000D01*
X25295428Y29023429D01*
X25009714Y29023429D01*
X24866857Y28952000D01*
X23581143Y29023429D02*
X23581143Y28023429D01*
X24224000Y29023429D02*
X24224000Y28237714D01*
X24152572Y28094857D01*
X24009714Y28023429D01*
X23795429Y28023429D01*
X23652572Y28094857D01*
X23581143Y28166286D01*
X22866857Y28023429D02*
X22866857Y29023429D01*
X22866857Y28737714D02*
X22795429Y28880571D01*
X22724000Y28952000D01*
X22581143Y29023429D01*
X22438286Y29023429D01*
X21938286Y28023429D02*
X21938286Y29023429D01*
X21938286Y29523429D02*
X22009715Y29452000D01*
X21938286Y29380571D01*
X21866858Y29452000D01*
X21938286Y29523429D01*
X21938286Y29380571D01*
X21009714Y28023429D02*
X21152572Y28094857D01*
X21224000Y28166286D01*
X21295429Y28309143D01*
X21295429Y28737714D01*
X21224000Y28880571D01*
X21152572Y28952000D01*
X21009714Y29023429D01*
X20795429Y29023429D01*
X20652572Y28952000D01*
X20581143Y28880571D01*
X20509714Y28737714D01*
X20509714Y28309143D01*
X20581143Y28166286D01*
X20652572Y28094857D01*
X20795429Y28023429D01*
X21009714Y28023429D01*
X19224000Y29023429D02*
X19224000Y28023429D01*
X19866857Y29023429D02*
X19866857Y28237714D01*
X19795429Y28094857D01*
X19652571Y28023429D01*
X19438286Y28023429D01*
X19295429Y28094857D01*
X19224000Y28166286D01*
X18581143Y28094857D02*
X18438286Y28023429D01*
X18152571Y28023429D01*
X18009714Y28094857D01*
X17938286Y28237714D01*
X17938286Y28309143D01*
X18009714Y28452000D01*
X18152571Y28523429D01*
X18366857Y28523429D01*
X18509714Y28594857D01*
X18581143Y28737714D01*
X18581143Y28809143D01*
X18509714Y28952000D01*
X18366857Y29023429D01*
X18152571Y29023429D01*
X18009714Y28952000D01*
X16724000Y28094857D02*
X16866857Y28023429D01*
X17152571Y28023429D01*
X17295428Y28094857D01*
X17366857Y28237714D01*
X17366857Y28809143D01*
X17295428Y28952000D01*
X17152571Y29023429D01*
X16866857Y29023429D01*
X16724000Y28952000D01*
X16652571Y28809143D01*
X16652571Y28666286D01*
X17366857Y28523429D01*
X15795428Y28023429D02*
X15938286Y28094857D01*
X16009714Y28237714D01*
X16009714Y29523429D01*
X14652572Y28094857D02*
X14795429Y28023429D01*
X15081143Y28023429D01*
X15224000Y28094857D01*
X15295429Y28237714D01*
X15295429Y28809143D01*
X15224000Y28952000D01*
X15081143Y29023429D01*
X14795429Y29023429D01*
X14652572Y28952000D01*
X14581143Y28809143D01*
X14581143Y28666286D01*
X15295429Y28523429D01*
X13295429Y28094857D02*
X13438286Y28023429D01*
X13724000Y28023429D01*
X13866858Y28094857D01*
X13938286Y28166286D01*
X14009715Y28309143D01*
X14009715Y28737714D01*
X13938286Y28880571D01*
X13866858Y28952000D01*
X13724000Y29023429D01*
X13438286Y29023429D01*
X13295429Y28952000D01*
X12866858Y29023429D02*
X12295429Y29023429D01*
X12652572Y29523429D02*
X12652572Y28237714D01*
X12581144Y28094857D01*
X12438286Y28023429D01*
X12295429Y28023429D01*
X11795429Y28023429D02*
X11795429Y29023429D01*
X11795429Y28737714D02*
X11724001Y28880571D01*
X11652572Y28952000D01*
X11509715Y29023429D01*
X11366858Y29023429D01*
X10866858Y28023429D02*
X10866858Y29023429D01*
X10866858Y29523429D02*
X10938287Y29452000D01*
X10866858Y29380571D01*
X10795430Y29452000D01*
X10866858Y29523429D01*
X10866858Y29380571D01*
X9509715Y28094857D02*
X9652572Y28023429D01*
X9938286Y28023429D01*
X10081144Y28094857D01*
X10152572Y28166286D01*
X10224001Y28309143D01*
X10224001Y28737714D01*
X10152572Y28880571D01*
X10081144Y28952000D01*
X9938286Y29023429D01*
X9652572Y29023429D01*
X9509715Y28952000D01*
X8866858Y28166286D02*
X8795430Y28094857D01*
X8866858Y28023429D01*
X8938287Y28094857D01*
X8866858Y28166286D01*
X8866858Y28023429D01*
X7509715Y28094857D02*
X7652572Y28023429D01*
X7938286Y28023429D01*
X8081144Y28094857D01*
X8152572Y28166286D01*
X8224001Y28309143D01*
X8224001Y28737714D01*
X8152572Y28880571D01*
X8081144Y28952000D01*
X7938286Y29023429D01*
X7652572Y29023429D01*
X7509715Y28952000D01*
X6652572Y28023429D02*
X6795430Y28094857D01*
X6866858Y28166286D01*
X6938287Y28309143D01*
X6938287Y28737714D01*
X6866858Y28880571D01*
X6795430Y28952000D01*
X6652572Y29023429D01*
X6438287Y29023429D01*
X6295430Y28952000D01*
X6224001Y28880571D01*
X6152572Y28737714D01*
X6152572Y28309143D01*
X6224001Y28166286D01*
X6295430Y28094857D01*
X6438287Y28023429D01*
X6652572Y28023429D01*
X5509715Y28166286D02*
X5438287Y28094857D01*
X5509715Y28023429D01*
X5581144Y28094857D01*
X5509715Y28166286D01*
X5509715Y28023429D01*
X4152572Y29023429D02*
X4152572Y28023429D01*
X4795429Y29023429D02*
X4795429Y28237714D01*
X4724001Y28094857D01*
X4581143Y28023429D01*
X4366858Y28023429D01*
X4224001Y28094857D01*
X4152572Y28166286D01*
X3438286Y28023429D02*
X3438286Y29523429D01*
X3295429Y28594857D02*
X2866858Y28023429D01*
X2866858Y29023429D02*
X3438286Y28452000D01*
X10419000Y32881000D02*
G75*
G03X10419000Y32881000I-2500000J0D01*
G01*
M02*
