%TF.GenerationSoftware,KiCad,Pcbnew,(6.0.6)*%
%TF.CreationDate,2023-01-22T12:29:42+00:00*%
%TF.ProjectId,SolderSolar,536f6c64-6572-4536-9f6c-61722e6b6963,rev?*%
%TF.SameCoordinates,PX6350ce0PY463f660*%
%TF.FileFunction,Copper,L1,Top*%
%TF.FilePolarity,Positive*%
%FSLAX46Y46*%
G04 Gerber Fmt 4.6, Leading zero omitted, Abs format (unit mm)*
G04 Created by KiCad (PCBNEW (6.0.6)) date 2023-01-22 12:29:42*
%MOMM*%
%LPD*%
G01*
G04 APERTURE LIST*
%TA.AperFunction,EtchedComponent*%
%ADD10C,0.010000*%
%TD*%
%TA.AperFunction,ComponentPad*%
%ADD11R,2.800000X1.600000*%
%TD*%
%TA.AperFunction,ComponentPad*%
%ADD12O,2.800000X1.600000*%
%TD*%
%TA.AperFunction,ComponentPad*%
%ADD13C,2.540000*%
%TD*%
%TA.AperFunction,ComponentPad*%
%ADD14C,2.032000*%
%TD*%
%TA.AperFunction,ComponentPad*%
%ADD15C,1.800000*%
%TD*%
%TA.AperFunction,SMDPad,CuDef*%
%ADD16C,0.010000*%
%TD*%
%TA.AperFunction,ComponentPad*%
%ADD17R,2.032000X2.032000*%
%TD*%
%TA.AperFunction,ComponentPad*%
%ADD18O,9.000000X12.000000*%
%TD*%
%TA.AperFunction,Conductor*%
%ADD19C,1.016000*%
%TD*%
%TA.AperFunction,Conductor*%
%ADD20C,0.300000*%
%TD*%
%TA.AperFunction,Conductor*%
%ADD21C,0.500000*%
%TD*%
G04 APERTURE END LIST*
%TO.C,P2*%
G36*
X21591538Y12099899D02*
G01*
X21133426Y12729189D01*
X20866818Y13229167D01*
X21166983Y13229167D01*
X21221525Y13072396D01*
X21364001Y12833103D01*
X21564223Y12550092D01*
X21791998Y12262169D01*
X22017137Y12008136D01*
X22209450Y11826800D01*
X22306343Y11764705D01*
X22522144Y11708657D01*
X22755227Y11690382D01*
X22930318Y11713324D01*
X22966907Y11734464D01*
X22949774Y11824797D01*
X22853198Y12006151D01*
X22739663Y12178964D01*
X22537561Y12481132D01*
X22340688Y12799562D01*
X22264387Y12932834D01*
X22140949Y13141763D01*
X22101619Y13178794D01*
X22352000Y13178794D01*
X22398288Y13047777D01*
X22519069Y12823784D01*
X22687213Y12549289D01*
X22875591Y12266766D01*
X23057074Y12018691D01*
X23198437Y11853563D01*
X23413938Y11728669D01*
X23667473Y11701284D01*
X23891447Y11770490D01*
X23975560Y11852542D01*
X24867104Y11852542D01*
X24888657Y11728262D01*
X25047158Y11695559D01*
X25090489Y11700325D01*
X25193449Y11734158D01*
X25251260Y11825844D01*
X25279242Y12016513D01*
X25286356Y12169106D01*
X25483959Y12169106D01*
X25492513Y11908565D01*
X25535354Y11748479D01*
X25545014Y11736542D01*
X25659335Y11705290D01*
X25877659Y11696634D01*
X25989514Y11701264D01*
X26183913Y11719130D01*
X26317140Y11763286D01*
X26351281Y11795699D01*
X26718578Y11795699D01*
X26720044Y11756191D01*
X26834653Y11703779D01*
X27045996Y11686176D01*
X27285244Y11702644D01*
X27483570Y11752445D01*
X27509152Y11764646D01*
X27520173Y11774316D01*
X27855333Y11774316D01*
X27918506Y11690722D01*
X28077627Y11689526D01*
X28287094Y11760184D01*
X28501308Y11892154D01*
X28552497Y11935519D01*
X28715695Y12090175D01*
X28761178Y12164088D01*
X28699169Y12187450D01*
X28638500Y12189519D01*
X28484796Y12239851D01*
X28448000Y12319000D01*
X28407622Y12431749D01*
X28373382Y12446000D01*
X28277714Y12382447D01*
X28136618Y12227889D01*
X27991861Y12036480D01*
X27885208Y11862374D01*
X27855333Y11774316D01*
X27520173Y11774316D01*
X27633730Y11873951D01*
X27809473Y12079197D01*
X27979079Y12308813D01*
X28148036Y12562678D01*
X28231541Y12729100D01*
X28243586Y12857693D01*
X28198162Y12998071D01*
X28183158Y13032501D01*
X28093082Y13194840D01*
X27973344Y13270697D01*
X27762513Y13292080D01*
X27683866Y13292667D01*
X27299735Y13292667D01*
X26987582Y12560524D01*
X26856422Y12235224D01*
X26762527Y11967573D01*
X26718578Y11795699D01*
X26351281Y11795699D01*
X26425305Y11865974D01*
X26544516Y12059439D01*
X26681327Y12319000D01*
X26887740Y12718572D01*
X27013378Y12990617D01*
X27052113Y13159601D01*
X26997813Y13249991D01*
X26844350Y13286254D01*
X26585594Y13292855D01*
X26437386Y13292667D01*
X25770029Y13292667D01*
X25627347Y12993461D01*
X25555045Y12767554D01*
X25506026Y12474102D01*
X25483959Y12169106D01*
X25286356Y12169106D01*
X25289397Y12234334D01*
X25293267Y12495649D01*
X25281065Y12600350D01*
X25250355Y12560606D01*
X25233825Y12511768D01*
X25126903Y12275215D01*
X24985748Y12057316D01*
X24867104Y11852542D01*
X23975560Y11852542D01*
X23987561Y11864248D01*
X24013821Y11983477D01*
X23974298Y12179370D01*
X23861649Y12481074D01*
X23790299Y12647415D01*
X23574917Y13137513D01*
X23771638Y13137513D01*
X23825183Y12957742D01*
X23891980Y12784667D01*
X23996430Y12550408D01*
X24078587Y12396673D01*
X24110102Y12361334D01*
X24126029Y12435822D01*
X24115822Y12622869D01*
X24105234Y12712203D01*
X24021194Y13017799D01*
X23874840Y13181798D01*
X23774858Y13206704D01*
X23771638Y13137513D01*
X23574917Y13137513D01*
X23506731Y13292667D01*
X22929365Y13292667D01*
X22601564Y13282859D01*
X22417598Y13250209D01*
X22352930Y13189876D01*
X22352000Y13178794D01*
X22101619Y13178794D01*
X22027567Y13248515D01*
X21862518Y13287383D01*
X21616742Y13292667D01*
X21366660Y13281884D01*
X21203383Y13254156D01*
X21166983Y13229167D01*
X20866818Y13229167D01*
X20782607Y13387089D01*
X20572346Y14012381D01*
X20509905Y14437414D01*
X20482937Y14962934D01*
X20485590Y15165064D01*
X20717938Y15165064D01*
X20769193Y14616182D01*
X20816980Y14271815D01*
X20887670Y13947880D01*
X20946904Y13764650D01*
X21033012Y13585192D01*
X21133206Y13495802D01*
X21304760Y13465198D01*
X21501013Y13462000D01*
X21743627Y13473310D01*
X21897925Y13502257D01*
X21927244Y13525500D01*
X21910674Y13631629D01*
X21867475Y13862777D01*
X21805395Y14178154D01*
X21770447Y14351000D01*
X21663731Y14874368D01*
X21844000Y14874368D01*
X21869688Y14625483D01*
X21935716Y14308942D01*
X22025531Y13985218D01*
X22122578Y13714779D01*
X22201672Y13567834D01*
X22342018Y13505176D01*
X22623505Y13469149D01*
X22874203Y13462000D01*
X23460339Y13462000D01*
X23404597Y13779500D01*
X23334106Y14174936D01*
X23297326Y14340391D01*
X23466217Y14340391D01*
X23487315Y14255828D01*
X23556836Y14162111D01*
X23641708Y14209843D01*
X23695998Y14325429D01*
X23640344Y14408856D01*
X23527548Y14468389D01*
X23485951Y14454841D01*
X23466217Y14340391D01*
X23297326Y14340391D01*
X23275087Y14440427D01*
X23207342Y14612372D01*
X23110673Y14727170D01*
X22964879Y14821222D01*
X22771808Y14919805D01*
X22528592Y15026458D01*
X23399384Y15026458D01*
X23401274Y15021409D01*
X23447835Y14830681D01*
X23452666Y14767409D01*
X23517917Y14672388D01*
X23664607Y14651825D01*
X23819137Y14712072D01*
X23843773Y14733641D01*
X23979410Y14763381D01*
X24209605Y14720892D01*
X24487002Y14626322D01*
X24764245Y14499826D01*
X24993980Y14361553D01*
X25128850Y14231655D01*
X25146000Y14179493D01*
X25192409Y14068224D01*
X25230666Y14054667D01*
X25274910Y14132425D01*
X25305201Y14338407D01*
X25314241Y14576257D01*
X25484666Y14576257D01*
X25489747Y14265979D01*
X25514192Y14080883D01*
X25571807Y13976911D01*
X25676398Y13910002D01*
X25696333Y13900739D01*
X25862710Y13764390D01*
X25908000Y13633149D01*
X25922654Y13545464D01*
X25990116Y13494129D01*
X26145633Y13469583D01*
X26424454Y13462265D01*
X26539020Y13462000D01*
X27170040Y13462000D01*
X27351566Y13462000D01*
X27772783Y13462000D01*
X28029064Y13472553D01*
X28155623Y13513367D01*
X28191259Y13598181D01*
X28191307Y13610167D01*
X28139589Y13795846D01*
X28138311Y13798034D01*
X29579576Y13798034D01*
X29595587Y13708578D01*
X29663019Y13660685D01*
X29726654Y13763954D01*
X29782656Y13936660D01*
X29796715Y14009310D01*
X29753366Y14023319D01*
X29665648Y13953935D01*
X29579576Y13798034D01*
X28138311Y13798034D01*
X28070122Y13914730D01*
X27994044Y14085405D01*
X27997206Y14189897D01*
X27992310Y14293679D01*
X27955983Y14308667D01*
X27804556Y14336961D01*
X27736434Y14359607D01*
X27621888Y14344825D01*
X27524584Y14194546D01*
X27436949Y13894570D01*
X27404375Y13737167D01*
X27351566Y13462000D01*
X27170040Y13462000D01*
X27258214Y13779500D01*
X27328803Y14071146D01*
X27336439Y14235262D01*
X27279453Y14302172D01*
X27229104Y14308667D01*
X27112553Y14361460D01*
X26959361Y14492223D01*
X26805443Y14659535D01*
X26721536Y14774334D01*
X29802666Y14774334D01*
X29845000Y14732000D01*
X29887333Y14774334D01*
X29845000Y14816667D01*
X29802666Y14774334D01*
X26721536Y14774334D01*
X26686715Y14821975D01*
X26639091Y14938121D01*
X26657624Y14967764D01*
X26713721Y15018797D01*
X29577770Y15018797D01*
X29591000Y14986000D01*
X29667082Y14905230D01*
X29680663Y14901334D01*
X29717029Y14966840D01*
X29718000Y14986000D01*
X29652912Y15067414D01*
X29628336Y15070667D01*
X29577770Y15018797D01*
X26713721Y15018797D01*
X26749655Y15051487D01*
X26754666Y15077723D01*
X26676925Y15114819D01*
X26471281Y15142261D01*
X26179101Y15154994D01*
X26119666Y15155334D01*
X25484666Y15155334D01*
X25484666Y14576257D01*
X25314241Y14576257D01*
X25315333Y14605000D01*
X25315333Y15155334D01*
X24853650Y15155334D01*
X24547532Y15137068D01*
X24278414Y15090472D01*
X24174020Y15056030D01*
X23985458Y14999104D01*
X23863080Y15049893D01*
X23856770Y15056030D01*
X23698088Y15134759D01*
X23553674Y15155334D01*
X23407802Y15126668D01*
X23399384Y15026458D01*
X22528592Y15026458D01*
X22482173Y15046813D01*
X22216587Y15131923D01*
X22076833Y15153915D01*
X21917115Y15134594D01*
X21853885Y15039649D01*
X21844000Y14874368D01*
X21663731Y14874368D01*
X21615072Y15113000D01*
X20717938Y15165064D01*
X20485590Y15165064D01*
X20490311Y15524567D01*
X20492624Y15554964D01*
X20718497Y15554964D01*
X20739394Y15406865D01*
X20818192Y15325116D01*
X20819061Y15324606D01*
X21022329Y15262376D01*
X21281550Y15246567D01*
X21505209Y15279618D01*
X21560825Y15304844D01*
X21610381Y15412407D01*
X21626695Y15489236D01*
X21817937Y15489236D01*
X21857810Y15351114D01*
X21861873Y15345834D01*
X21979275Y15250267D01*
X22115733Y15282763D01*
X22172003Y15316285D01*
X22235879Y15391943D01*
X22220834Y15457320D01*
X22822062Y15457320D01*
X22822805Y15313945D01*
X22843913Y15284310D01*
X22976584Y15246362D01*
X23112375Y15325643D01*
X23183388Y15473699D01*
X23177515Y15525045D01*
X23368000Y15525045D01*
X23394461Y15357697D01*
X23452519Y15278850D01*
X23510186Y15320602D01*
X23524106Y15368398D01*
X23501122Y15543163D01*
X23460606Y15604594D01*
X23387729Y15635348D01*
X23368000Y15525045D01*
X23177515Y15525045D01*
X23166257Y15623468D01*
X23086582Y15649684D01*
X23718180Y15649684D01*
X23722829Y15447141D01*
X23839744Y15317755D01*
X23897166Y15299753D01*
X24250645Y15259873D01*
X24652986Y15254651D01*
X25005067Y15284676D01*
X25050750Y15292917D01*
X25315333Y15345834D01*
X25315333Y16138073D01*
X25484666Y16138073D01*
X25486744Y15747216D01*
X25508852Y15494636D01*
X25574797Y15349318D01*
X25708390Y15280249D01*
X25933439Y15256414D01*
X26166557Y15249822D01*
X26425354Y15261249D01*
X26612578Y15334911D01*
X26744176Y15449102D01*
X29316564Y15449102D01*
X29333518Y15414967D01*
X29414251Y15327434D01*
X29429102Y15389163D01*
X29408549Y15455319D01*
X29346216Y15547525D01*
X29318062Y15545618D01*
X29316564Y15449102D01*
X26744176Y15449102D01*
X26808952Y15505309D01*
X26841060Y15538116D01*
X27022003Y15749478D01*
X27102280Y15938122D01*
X27114678Y16185562D01*
X27113501Y16215449D01*
X27114299Y16273730D01*
X27618321Y16273730D01*
X27642100Y16192774D01*
X27802633Y16171334D01*
X28003176Y16122818D01*
X28105410Y16049061D01*
X28253490Y15958846D01*
X28483092Y15898314D01*
X28517944Y15893960D01*
X28741011Y15868692D01*
X28886840Y15849057D01*
X28898708Y15846900D01*
X28944194Y15901657D01*
X28940311Y15980834D01*
X28925376Y16002000D01*
X29125333Y16002000D01*
X29154220Y15919535D01*
X29162669Y15917334D01*
X29234955Y15976663D01*
X29252333Y16002000D01*
X29245620Y16080019D01*
X29214996Y16086667D01*
X29128778Y16025207D01*
X29125333Y16002000D01*
X28925376Y16002000D01*
X28866036Y16086094D01*
X28672072Y16142588D01*
X28546044Y16155380D01*
X28307233Y16190200D01*
X28218523Y16253660D01*
X28222574Y16293010D01*
X28188136Y16406820D01*
X28068427Y16493945D01*
X27890812Y16536987D01*
X27751126Y16450121D01*
X27736461Y16434315D01*
X27618321Y16273730D01*
X27114299Y16273730D01*
X27116853Y16459971D01*
X27162123Y16573715D01*
X27228373Y16594667D01*
X27327907Y16658249D01*
X27331371Y16742834D01*
X27298271Y16809773D01*
X27209673Y16855224D01*
X27035947Y16884629D01*
X26747464Y16903429D01*
X26393829Y16915032D01*
X25484666Y16939063D01*
X25484666Y16138073D01*
X25315333Y16138073D01*
X25315333Y16933334D01*
X25028058Y16933334D01*
X24796808Y16896065D01*
X24692048Y16806334D01*
X24581337Y16693742D01*
X24518019Y16679334D01*
X24361616Y16619147D01*
X24176276Y16475434D01*
X24021792Y16303469D01*
X23957973Y16161625D01*
X23907675Y16005379D01*
X23830973Y15879985D01*
X23718180Y15649684D01*
X23086582Y15649684D01*
X23045096Y15663334D01*
X22909623Y15599148D01*
X22822062Y15457320D01*
X22220834Y15457320D01*
X22207278Y15516224D01*
X22132582Y15653656D01*
X22015997Y15827210D01*
X21929641Y15914782D01*
X21920282Y15917334D01*
X21856640Y15845412D01*
X21820036Y15678358D01*
X21817937Y15489236D01*
X21626695Y15489236D01*
X21660563Y15648728D01*
X21703771Y15973435D01*
X21719912Y16150215D01*
X21781174Y16933334D01*
X21402655Y16933334D01*
X21166298Y16924369D01*
X21039673Y16868679D01*
X20963218Y16723066D01*
X20919063Y16582631D01*
X20838686Y16270920D01*
X20765803Y15919176D01*
X20748556Y15817995D01*
X20718497Y15554964D01*
X20492624Y15554964D01*
X20530899Y16057937D01*
X20603568Y16498670D01*
X20616938Y16551956D01*
X20836549Y17136058D01*
X21206187Y17136058D01*
X21299969Y17045390D01*
X21484782Y17058235D01*
X21658112Y17105711D01*
X21733618Y17133397D01*
X21732016Y17219030D01*
X21709284Y17419264D01*
X21688009Y17571015D01*
X21673683Y17667327D01*
X23807488Y17667327D01*
X23898534Y17613732D01*
X23951608Y17610667D01*
X24118335Y17684955D01*
X24204548Y17897896D01*
X24214666Y18040925D01*
X24258916Y18182392D01*
X24373883Y18203446D01*
X24532893Y18122200D01*
X24709272Y17956766D01*
X24876345Y17725253D01*
X24978090Y17522563D01*
X25045016Y17320886D01*
X25025459Y17224774D01*
X24992868Y17206846D01*
X24928220Y17129189D01*
X24938802Y17095436D01*
X24998564Y17027420D01*
X25095017Y17037737D01*
X25181408Y17069392D01*
X25274986Y17194265D01*
X25311629Y17446698D01*
X25484666Y17446698D01*
X25496443Y17229739D01*
X25558922Y17127438D01*
X25712828Y17085413D01*
X25759833Y17079248D01*
X26303063Y17033185D01*
X26693438Y17048514D01*
X26928679Y17125100D01*
X26960285Y17151048D01*
X27060702Y17343343D01*
X27071391Y17583214D01*
X27006344Y17814973D01*
X26879555Y17982935D01*
X26738419Y18034000D01*
X26587837Y18091813D01*
X26518161Y18219876D01*
X26558535Y18350127D01*
X26591710Y18376609D01*
X26659352Y18470199D01*
X26642530Y18513025D01*
X26529498Y18524911D01*
X26413298Y18475295D01*
X26230341Y18392137D01*
X26129178Y18372667D01*
X26013805Y18305486D01*
X25873633Y18138106D01*
X25834551Y18076334D01*
X25704791Y17889729D01*
X25595110Y17786947D01*
X25572188Y17780000D01*
X25517025Y17704975D01*
X25486689Y17517889D01*
X25484666Y17446698D01*
X25311629Y17446698D01*
X25315021Y17470064D01*
X25300831Y17886842D01*
X25261491Y18233850D01*
X25218091Y18550492D01*
X26852764Y18550492D01*
X26887982Y18447163D01*
X26966333Y18372667D01*
X27067963Y18208164D01*
X27093333Y18067919D01*
X27168321Y17860531D01*
X27305000Y17729881D01*
X27456669Y17599984D01*
X27516666Y17490863D01*
X27583276Y17318781D01*
X27739635Y17247250D01*
X27863588Y17276419D01*
X28012356Y17379496D01*
X28062720Y17434410D01*
X28035411Y17526000D01*
X28321000Y17526000D01*
X28327712Y17447982D01*
X28358336Y17441334D01*
X28444554Y17502794D01*
X28448000Y17526000D01*
X28419113Y17608466D01*
X28410663Y17610667D01*
X28338377Y17551338D01*
X28321000Y17526000D01*
X28035411Y17526000D01*
X28034259Y17529862D01*
X27902037Y17662275D01*
X27878082Y17680332D01*
X27807082Y17737667D01*
X28532666Y17737667D01*
X28575000Y17695334D01*
X28617333Y17737667D01*
X28575000Y17780000D01*
X28532666Y17737667D01*
X27807082Y17737667D01*
X27727586Y17801862D01*
X27717381Y17836445D01*
X28814888Y17836445D01*
X28826511Y17786111D01*
X28871333Y17780000D01*
X28941023Y17810979D01*
X28927777Y17836445D01*
X28827298Y17846578D01*
X28814888Y17836445D01*
X27717381Y17836445D01*
X27701797Y17889250D01*
X27776708Y17991667D01*
X28363333Y17991667D01*
X28405666Y17949334D01*
X28448000Y17991667D01*
X28405666Y18034000D01*
X28363333Y17991667D01*
X27776708Y17991667D01*
X27785136Y18003189D01*
X27792979Y18011878D01*
X27918291Y18185047D01*
X27909928Y18326093D01*
X27799877Y18471834D01*
X27633756Y18574501D01*
X27968769Y18574501D01*
X27982333Y18542000D01*
X28094492Y18460495D01*
X28119326Y18457334D01*
X28165230Y18509500D01*
X28151666Y18542000D01*
X28039507Y18623506D01*
X28014673Y18626667D01*
X27968769Y18574501D01*
X27633756Y18574501D01*
X27619661Y18583212D01*
X27324514Y18625557D01*
X27249544Y18626667D01*
X26971276Y18608524D01*
X26852764Y18550492D01*
X25218091Y18550492D01*
X25207650Y18626667D01*
X24766614Y18626667D01*
X24465097Y18606136D01*
X24255420Y18522285D01*
X24088259Y18341727D01*
X23928543Y18059372D01*
X23817929Y17807368D01*
X23807488Y17667327D01*
X21673683Y17667327D01*
X21639692Y17895826D01*
X23542958Y17895826D01*
X23608409Y17864667D01*
X23690116Y17933324D01*
X23784828Y18095868D01*
X23852242Y18252415D01*
X23833567Y18270775D01*
X23713751Y18167413D01*
X23571761Y18006177D01*
X23542958Y17895826D01*
X21639692Y17895826D01*
X21625434Y17991667D01*
X21390015Y17623956D01*
X21235795Y17331346D01*
X21206187Y17136058D01*
X20836549Y17136058D01*
X20908444Y17327275D01*
X21345688Y18045426D01*
X21909433Y18687418D01*
X22148087Y18881911D01*
X24468666Y18881911D01*
X24544811Y18832904D01*
X24739502Y18801799D01*
X24892000Y18796000D01*
X25315333Y18796000D01*
X25315333Y18965334D01*
X26924000Y18965334D01*
X26973608Y18832549D01*
X27135666Y18796000D01*
X27294797Y18823970D01*
X27347333Y18877688D01*
X27281773Y18971343D01*
X27137291Y19074295D01*
X26992188Y19132950D01*
X26971899Y19134667D01*
X26932927Y19063487D01*
X26924000Y18965334D01*
X25315333Y18965334D01*
X25315333Y19081967D01*
X25276170Y19316313D01*
X25211133Y19427445D01*
X27052532Y19427445D01*
X27123728Y19324948D01*
X27273504Y19187193D01*
X27468442Y19039935D01*
X27675126Y18908929D01*
X27860140Y18819930D01*
X27966163Y18796230D01*
X28124810Y18821131D01*
X28150576Y18882431D01*
X28038617Y18982749D01*
X27827101Y19120982D01*
X27570334Y19267002D01*
X27322626Y19390683D01*
X27138283Y19461898D01*
X27093333Y19468929D01*
X27052532Y19427445D01*
X25211133Y19427445D01*
X25180465Y19479848D01*
X25179016Y19481066D01*
X25081962Y19532295D01*
X24976608Y19495697D01*
X24821403Y19351637D01*
X24755683Y19281010D01*
X24589805Y19084098D01*
X24486145Y18930434D01*
X24468666Y18881911D01*
X22148087Y18881911D01*
X22252945Y18967365D01*
X23599029Y18967365D01*
X23623768Y18926847D01*
X23783419Y18920257D01*
X23866226Y18922047D01*
X24062262Y18943248D01*
X24225850Y19015181D01*
X24405220Y19167529D01*
X24596047Y19371208D01*
X24779939Y19586642D01*
X24895289Y19743670D01*
X24919627Y19811339D01*
X24916031Y19812000D01*
X24798807Y19768508D01*
X24586745Y19656138D01*
X24324472Y19502052D01*
X24056613Y19333411D01*
X23827796Y19177376D01*
X23683191Y19061647D01*
X23599029Y18967365D01*
X22252945Y18967365D01*
X22480625Y19152913D01*
X23079218Y19152913D01*
X23117602Y19087994D01*
X23176826Y19026709D01*
X23243695Y19011337D01*
X23350748Y19055132D01*
X23530524Y19171349D01*
X23812500Y19371052D01*
X24027929Y19529856D01*
X24173881Y19646628D01*
X24214666Y19689187D01*
X24145141Y19686036D01*
X23968257Y19631942D01*
X23731553Y19544377D01*
X23482567Y19440814D01*
X23286967Y19348213D01*
X23114984Y19241370D01*
X23079218Y19152913D01*
X22480625Y19152913D01*
X22580445Y19234261D01*
X23339487Y19666966D01*
X24039533Y19930843D01*
X24490522Y20019735D01*
X25041670Y20063435D01*
X25630092Y20062486D01*
X26192908Y20017429D01*
X26667235Y19928807D01*
X26740706Y19907542D01*
X27557578Y19568299D01*
X28306366Y19088203D01*
X28836072Y18612761D01*
X29295128Y18084669D01*
X29641358Y17562757D01*
X29915748Y16982380D01*
X29985661Y16799568D01*
X30094208Y16374991D01*
X30161463Y15842005D01*
X30186724Y15256601D01*
X30169288Y14674766D01*
X30108454Y14152491D01*
X30023268Y13800667D01*
X29651352Y12933657D01*
X29158998Y12177171D01*
X28553541Y11539797D01*
X27842312Y11030122D01*
X27505847Y10852390D01*
X27127794Y10685722D01*
X26745020Y10539788D01*
X26424552Y10439533D01*
X26348332Y10421628D01*
X25990714Y10373357D01*
X25538732Y10347038D01*
X25066094Y10343998D01*
X24646508Y10365564D01*
X24468666Y10387786D01*
X24002855Y10503794D01*
X23482494Y10693168D01*
X22986263Y10924762D01*
X22716875Y11081273D01*
X22151718Y11519924D01*
X22606000Y11519924D01*
X22676788Y11449492D01*
X22866380Y11327474D01*
X23140614Y11174915D01*
X23293137Y11096590D01*
X23657528Y10921621D01*
X23927621Y10806920D01*
X24089182Y10756971D01*
X24127980Y10776259D01*
X24040224Y10861193D01*
X23903753Y10970597D01*
X23824248Y11035426D01*
X24474106Y11035426D01*
X24531397Y10898817D01*
X24641298Y10768632D01*
X24790337Y10647720D01*
X24932111Y10586979D01*
X25021631Y10596067D01*
X25020264Y10611756D01*
X25760409Y10611756D01*
X25802507Y10593848D01*
X25858702Y10611279D01*
X26045329Y10660830D01*
X26118202Y10668000D01*
X26237498Y10716093D01*
X26438601Y10840090D01*
X26549702Y10917855D01*
X26911351Y10917855D01*
X26925151Y10890793D01*
X27037851Y10922532D01*
X27051000Y10927157D01*
X27283427Y11026897D01*
X27563446Y11169799D01*
X27660457Y11224558D01*
X27936293Y11400355D01*
X28057844Y11517826D01*
X28027950Y11581769D01*
X27881496Y11597592D01*
X27641535Y11526632D01*
X27332671Y11313404D01*
X27220333Y11216529D01*
X27006421Y11020754D01*
X26911351Y10917855D01*
X26549702Y10917855D01*
X26680736Y11009572D01*
X26923129Y11194119D01*
X27125007Y11363312D01*
X27245597Y11486730D01*
X27262666Y11521844D01*
X27187142Y11568749D01*
X26996770Y11596292D01*
X26894920Y11599334D01*
X26678331Y11586663D01*
X26518297Y11527409D01*
X26359046Y11389708D01*
X26190977Y11197167D01*
X25945686Y10897620D01*
X25805149Y10707748D01*
X25760409Y10611756D01*
X25020264Y10611756D01*
X25013908Y10684645D01*
X25011401Y10689167D01*
X24877805Y10877738D01*
X24721586Y11037258D01*
X24588855Y11124900D01*
X24541026Y11126061D01*
X24474106Y11035426D01*
X23824248Y11035426D01*
X23691294Y11143836D01*
X23523504Y11281834D01*
X23193333Y11509380D01*
X23090854Y11542000D01*
X23537333Y11542000D01*
X23596398Y11457023D01*
X23744525Y11312503D01*
X23812500Y11253654D01*
X23985547Y11115491D01*
X24070722Y11081615D01*
X24106791Y11143901D01*
X24115528Y11190145D01*
X24116978Y11391541D01*
X24097019Y11478491D01*
X24058566Y11507750D01*
X24638000Y11507750D01*
X24685861Y11407433D01*
X24805633Y11229782D01*
X24961600Y11021282D01*
X25118043Y10828423D01*
X25239245Y10697691D01*
X25283199Y10668000D01*
X25300802Y10744603D01*
X25312474Y10942194D01*
X25315333Y11133667D01*
X25315333Y11599334D01*
X25484666Y11599334D01*
X25488460Y11112500D01*
X25492254Y10625667D01*
X25869460Y11046682D01*
X26060959Y11269596D01*
X26196726Y11445147D01*
X26246666Y11533515D01*
X26170958Y11572776D01*
X25979417Y11596320D01*
X25865666Y11599334D01*
X25484666Y11599334D01*
X25315333Y11599334D01*
X24976666Y11599334D01*
X24764498Y11579022D01*
X24646603Y11528259D01*
X24638000Y11507750D01*
X24058566Y11507750D01*
X24004317Y11549027D01*
X23835297Y11592738D01*
X23659992Y11601678D01*
X23548440Y11567900D01*
X23537333Y11542000D01*
X23090854Y11542000D01*
X22916739Y11597422D01*
X22872446Y11599334D01*
X22688774Y11577319D01*
X22606337Y11523928D01*
X22606000Y11519924D01*
X22151718Y11519924D01*
X22128751Y11537750D01*
X21591538Y12099899D01*
G37*
D10*
X21591538Y12099899D02*
X21133426Y12729189D01*
X20866818Y13229167D01*
X21166983Y13229167D01*
X21221525Y13072396D01*
X21364001Y12833103D01*
X21564223Y12550092D01*
X21791998Y12262169D01*
X22017137Y12008136D01*
X22209450Y11826800D01*
X22306343Y11764705D01*
X22522144Y11708657D01*
X22755227Y11690382D01*
X22930318Y11713324D01*
X22966907Y11734464D01*
X22949774Y11824797D01*
X22853198Y12006151D01*
X22739663Y12178964D01*
X22537561Y12481132D01*
X22340688Y12799562D01*
X22264387Y12932834D01*
X22140949Y13141763D01*
X22101619Y13178794D01*
X22352000Y13178794D01*
X22398288Y13047777D01*
X22519069Y12823784D01*
X22687213Y12549289D01*
X22875591Y12266766D01*
X23057074Y12018691D01*
X23198437Y11853563D01*
X23413938Y11728669D01*
X23667473Y11701284D01*
X23891447Y11770490D01*
X23975560Y11852542D01*
X24867104Y11852542D01*
X24888657Y11728262D01*
X25047158Y11695559D01*
X25090489Y11700325D01*
X25193449Y11734158D01*
X25251260Y11825844D01*
X25279242Y12016513D01*
X25286356Y12169106D01*
X25483959Y12169106D01*
X25492513Y11908565D01*
X25535354Y11748479D01*
X25545014Y11736542D01*
X25659335Y11705290D01*
X25877659Y11696634D01*
X25989514Y11701264D01*
X26183913Y11719130D01*
X26317140Y11763286D01*
X26351281Y11795699D01*
X26718578Y11795699D01*
X26720044Y11756191D01*
X26834653Y11703779D01*
X27045996Y11686176D01*
X27285244Y11702644D01*
X27483570Y11752445D01*
X27509152Y11764646D01*
X27520173Y11774316D01*
X27855333Y11774316D01*
X27918506Y11690722D01*
X28077627Y11689526D01*
X28287094Y11760184D01*
X28501308Y11892154D01*
X28552497Y11935519D01*
X28715695Y12090175D01*
X28761178Y12164088D01*
X28699169Y12187450D01*
X28638500Y12189519D01*
X28484796Y12239851D01*
X28448000Y12319000D01*
X28407622Y12431749D01*
X28373382Y12446000D01*
X28277714Y12382447D01*
X28136618Y12227889D01*
X27991861Y12036480D01*
X27885208Y11862374D01*
X27855333Y11774316D01*
X27520173Y11774316D01*
X27633730Y11873951D01*
X27809473Y12079197D01*
X27979079Y12308813D01*
X28148036Y12562678D01*
X28231541Y12729100D01*
X28243586Y12857693D01*
X28198162Y12998071D01*
X28183158Y13032501D01*
X28093082Y13194840D01*
X27973344Y13270697D01*
X27762513Y13292080D01*
X27683866Y13292667D01*
X27299735Y13292667D01*
X26987582Y12560524D01*
X26856422Y12235224D01*
X26762527Y11967573D01*
X26718578Y11795699D01*
X26351281Y11795699D01*
X26425305Y11865974D01*
X26544516Y12059439D01*
X26681327Y12319000D01*
X26887740Y12718572D01*
X27013378Y12990617D01*
X27052113Y13159601D01*
X26997813Y13249991D01*
X26844350Y13286254D01*
X26585594Y13292855D01*
X26437386Y13292667D01*
X25770029Y13292667D01*
X25627347Y12993461D01*
X25555045Y12767554D01*
X25506026Y12474102D01*
X25483959Y12169106D01*
X25286356Y12169106D01*
X25289397Y12234334D01*
X25293267Y12495649D01*
X25281065Y12600350D01*
X25250355Y12560606D01*
X25233825Y12511768D01*
X25126903Y12275215D01*
X24985748Y12057316D01*
X24867104Y11852542D01*
X23975560Y11852542D01*
X23987561Y11864248D01*
X24013821Y11983477D01*
X23974298Y12179370D01*
X23861649Y12481074D01*
X23790299Y12647415D01*
X23574917Y13137513D01*
X23771638Y13137513D01*
X23825183Y12957742D01*
X23891980Y12784667D01*
X23996430Y12550408D01*
X24078587Y12396673D01*
X24110102Y12361334D01*
X24126029Y12435822D01*
X24115822Y12622869D01*
X24105234Y12712203D01*
X24021194Y13017799D01*
X23874840Y13181798D01*
X23774858Y13206704D01*
X23771638Y13137513D01*
X23574917Y13137513D01*
X23506731Y13292667D01*
X22929365Y13292667D01*
X22601564Y13282859D01*
X22417598Y13250209D01*
X22352930Y13189876D01*
X22352000Y13178794D01*
X22101619Y13178794D01*
X22027567Y13248515D01*
X21862518Y13287383D01*
X21616742Y13292667D01*
X21366660Y13281884D01*
X21203383Y13254156D01*
X21166983Y13229167D01*
X20866818Y13229167D01*
X20782607Y13387089D01*
X20572346Y14012381D01*
X20509905Y14437414D01*
X20482937Y14962934D01*
X20485590Y15165064D01*
X20717938Y15165064D01*
X20769193Y14616182D01*
X20816980Y14271815D01*
X20887670Y13947880D01*
X20946904Y13764650D01*
X21033012Y13585192D01*
X21133206Y13495802D01*
X21304760Y13465198D01*
X21501013Y13462000D01*
X21743627Y13473310D01*
X21897925Y13502257D01*
X21927244Y13525500D01*
X21910674Y13631629D01*
X21867475Y13862777D01*
X21805395Y14178154D01*
X21770447Y14351000D01*
X21663731Y14874368D01*
X21844000Y14874368D01*
X21869688Y14625483D01*
X21935716Y14308942D01*
X22025531Y13985218D01*
X22122578Y13714779D01*
X22201672Y13567834D01*
X22342018Y13505176D01*
X22623505Y13469149D01*
X22874203Y13462000D01*
X23460339Y13462000D01*
X23404597Y13779500D01*
X23334106Y14174936D01*
X23297326Y14340391D01*
X23466217Y14340391D01*
X23487315Y14255828D01*
X23556836Y14162111D01*
X23641708Y14209843D01*
X23695998Y14325429D01*
X23640344Y14408856D01*
X23527548Y14468389D01*
X23485951Y14454841D01*
X23466217Y14340391D01*
X23297326Y14340391D01*
X23275087Y14440427D01*
X23207342Y14612372D01*
X23110673Y14727170D01*
X22964879Y14821222D01*
X22771808Y14919805D01*
X22528592Y15026458D01*
X23399384Y15026458D01*
X23401274Y15021409D01*
X23447835Y14830681D01*
X23452666Y14767409D01*
X23517917Y14672388D01*
X23664607Y14651825D01*
X23819137Y14712072D01*
X23843773Y14733641D01*
X23979410Y14763381D01*
X24209605Y14720892D01*
X24487002Y14626322D01*
X24764245Y14499826D01*
X24993980Y14361553D01*
X25128850Y14231655D01*
X25146000Y14179493D01*
X25192409Y14068224D01*
X25230666Y14054667D01*
X25274910Y14132425D01*
X25305201Y14338407D01*
X25314241Y14576257D01*
X25484666Y14576257D01*
X25489747Y14265979D01*
X25514192Y14080883D01*
X25571807Y13976911D01*
X25676398Y13910002D01*
X25696333Y13900739D01*
X25862710Y13764390D01*
X25908000Y13633149D01*
X25922654Y13545464D01*
X25990116Y13494129D01*
X26145633Y13469583D01*
X26424454Y13462265D01*
X26539020Y13462000D01*
X27170040Y13462000D01*
X27351566Y13462000D01*
X27772783Y13462000D01*
X28029064Y13472553D01*
X28155623Y13513367D01*
X28191259Y13598181D01*
X28191307Y13610167D01*
X28139589Y13795846D01*
X28138311Y13798034D01*
X29579576Y13798034D01*
X29595587Y13708578D01*
X29663019Y13660685D01*
X29726654Y13763954D01*
X29782656Y13936660D01*
X29796715Y14009310D01*
X29753366Y14023319D01*
X29665648Y13953935D01*
X29579576Y13798034D01*
X28138311Y13798034D01*
X28070122Y13914730D01*
X27994044Y14085405D01*
X27997206Y14189897D01*
X27992310Y14293679D01*
X27955983Y14308667D01*
X27804556Y14336961D01*
X27736434Y14359607D01*
X27621888Y14344825D01*
X27524584Y14194546D01*
X27436949Y13894570D01*
X27404375Y13737167D01*
X27351566Y13462000D01*
X27170040Y13462000D01*
X27258214Y13779500D01*
X27328803Y14071146D01*
X27336439Y14235262D01*
X27279453Y14302172D01*
X27229104Y14308667D01*
X27112553Y14361460D01*
X26959361Y14492223D01*
X26805443Y14659535D01*
X26721536Y14774334D01*
X29802666Y14774334D01*
X29845000Y14732000D01*
X29887333Y14774334D01*
X29845000Y14816667D01*
X29802666Y14774334D01*
X26721536Y14774334D01*
X26686715Y14821975D01*
X26639091Y14938121D01*
X26657624Y14967764D01*
X26713721Y15018797D01*
X29577770Y15018797D01*
X29591000Y14986000D01*
X29667082Y14905230D01*
X29680663Y14901334D01*
X29717029Y14966840D01*
X29718000Y14986000D01*
X29652912Y15067414D01*
X29628336Y15070667D01*
X29577770Y15018797D01*
X26713721Y15018797D01*
X26749655Y15051487D01*
X26754666Y15077723D01*
X26676925Y15114819D01*
X26471281Y15142261D01*
X26179101Y15154994D01*
X26119666Y15155334D01*
X25484666Y15155334D01*
X25484666Y14576257D01*
X25314241Y14576257D01*
X25315333Y14605000D01*
X25315333Y15155334D01*
X24853650Y15155334D01*
X24547532Y15137068D01*
X24278414Y15090472D01*
X24174020Y15056030D01*
X23985458Y14999104D01*
X23863080Y15049893D01*
X23856770Y15056030D01*
X23698088Y15134759D01*
X23553674Y15155334D01*
X23407802Y15126668D01*
X23399384Y15026458D01*
X22528592Y15026458D01*
X22482173Y15046813D01*
X22216587Y15131923D01*
X22076833Y15153915D01*
X21917115Y15134594D01*
X21853885Y15039649D01*
X21844000Y14874368D01*
X21663731Y14874368D01*
X21615072Y15113000D01*
X20717938Y15165064D01*
X20485590Y15165064D01*
X20490311Y15524567D01*
X20492624Y15554964D01*
X20718497Y15554964D01*
X20739394Y15406865D01*
X20818192Y15325116D01*
X20819061Y15324606D01*
X21022329Y15262376D01*
X21281550Y15246567D01*
X21505209Y15279618D01*
X21560825Y15304844D01*
X21610381Y15412407D01*
X21626695Y15489236D01*
X21817937Y15489236D01*
X21857810Y15351114D01*
X21861873Y15345834D01*
X21979275Y15250267D01*
X22115733Y15282763D01*
X22172003Y15316285D01*
X22235879Y15391943D01*
X22220834Y15457320D01*
X22822062Y15457320D01*
X22822805Y15313945D01*
X22843913Y15284310D01*
X22976584Y15246362D01*
X23112375Y15325643D01*
X23183388Y15473699D01*
X23177515Y15525045D01*
X23368000Y15525045D01*
X23394461Y15357697D01*
X23452519Y15278850D01*
X23510186Y15320602D01*
X23524106Y15368398D01*
X23501122Y15543163D01*
X23460606Y15604594D01*
X23387729Y15635348D01*
X23368000Y15525045D01*
X23177515Y15525045D01*
X23166257Y15623468D01*
X23086582Y15649684D01*
X23718180Y15649684D01*
X23722829Y15447141D01*
X23839744Y15317755D01*
X23897166Y15299753D01*
X24250645Y15259873D01*
X24652986Y15254651D01*
X25005067Y15284676D01*
X25050750Y15292917D01*
X25315333Y15345834D01*
X25315333Y16138073D01*
X25484666Y16138073D01*
X25486744Y15747216D01*
X25508852Y15494636D01*
X25574797Y15349318D01*
X25708390Y15280249D01*
X25933439Y15256414D01*
X26166557Y15249822D01*
X26425354Y15261249D01*
X26612578Y15334911D01*
X26744176Y15449102D01*
X29316564Y15449102D01*
X29333518Y15414967D01*
X29414251Y15327434D01*
X29429102Y15389163D01*
X29408549Y15455319D01*
X29346216Y15547525D01*
X29318062Y15545618D01*
X29316564Y15449102D01*
X26744176Y15449102D01*
X26808952Y15505309D01*
X26841060Y15538116D01*
X27022003Y15749478D01*
X27102280Y15938122D01*
X27114678Y16185562D01*
X27113501Y16215449D01*
X27114299Y16273730D01*
X27618321Y16273730D01*
X27642100Y16192774D01*
X27802633Y16171334D01*
X28003176Y16122818D01*
X28105410Y16049061D01*
X28253490Y15958846D01*
X28483092Y15898314D01*
X28517944Y15893960D01*
X28741011Y15868692D01*
X28886840Y15849057D01*
X28898708Y15846900D01*
X28944194Y15901657D01*
X28940311Y15980834D01*
X28925376Y16002000D01*
X29125333Y16002000D01*
X29154220Y15919535D01*
X29162669Y15917334D01*
X29234955Y15976663D01*
X29252333Y16002000D01*
X29245620Y16080019D01*
X29214996Y16086667D01*
X29128778Y16025207D01*
X29125333Y16002000D01*
X28925376Y16002000D01*
X28866036Y16086094D01*
X28672072Y16142588D01*
X28546044Y16155380D01*
X28307233Y16190200D01*
X28218523Y16253660D01*
X28222574Y16293010D01*
X28188136Y16406820D01*
X28068427Y16493945D01*
X27890812Y16536987D01*
X27751126Y16450121D01*
X27736461Y16434315D01*
X27618321Y16273730D01*
X27114299Y16273730D01*
X27116853Y16459971D01*
X27162123Y16573715D01*
X27228373Y16594667D01*
X27327907Y16658249D01*
X27331371Y16742834D01*
X27298271Y16809773D01*
X27209673Y16855224D01*
X27035947Y16884629D01*
X26747464Y16903429D01*
X26393829Y16915032D01*
X25484666Y16939063D01*
X25484666Y16138073D01*
X25315333Y16138073D01*
X25315333Y16933334D01*
X25028058Y16933334D01*
X24796808Y16896065D01*
X24692048Y16806334D01*
X24581337Y16693742D01*
X24518019Y16679334D01*
X24361616Y16619147D01*
X24176276Y16475434D01*
X24021792Y16303469D01*
X23957973Y16161625D01*
X23907675Y16005379D01*
X23830973Y15879985D01*
X23718180Y15649684D01*
X23086582Y15649684D01*
X23045096Y15663334D01*
X22909623Y15599148D01*
X22822062Y15457320D01*
X22220834Y15457320D01*
X22207278Y15516224D01*
X22132582Y15653656D01*
X22015997Y15827210D01*
X21929641Y15914782D01*
X21920282Y15917334D01*
X21856640Y15845412D01*
X21820036Y15678358D01*
X21817937Y15489236D01*
X21626695Y15489236D01*
X21660563Y15648728D01*
X21703771Y15973435D01*
X21719912Y16150215D01*
X21781174Y16933334D01*
X21402655Y16933334D01*
X21166298Y16924369D01*
X21039673Y16868679D01*
X20963218Y16723066D01*
X20919063Y16582631D01*
X20838686Y16270920D01*
X20765803Y15919176D01*
X20748556Y15817995D01*
X20718497Y15554964D01*
X20492624Y15554964D01*
X20530899Y16057937D01*
X20603568Y16498670D01*
X20616938Y16551956D01*
X20836549Y17136058D01*
X21206187Y17136058D01*
X21299969Y17045390D01*
X21484782Y17058235D01*
X21658112Y17105711D01*
X21733618Y17133397D01*
X21732016Y17219030D01*
X21709284Y17419264D01*
X21688009Y17571015D01*
X21673683Y17667327D01*
X23807488Y17667327D01*
X23898534Y17613732D01*
X23951608Y17610667D01*
X24118335Y17684955D01*
X24204548Y17897896D01*
X24214666Y18040925D01*
X24258916Y18182392D01*
X24373883Y18203446D01*
X24532893Y18122200D01*
X24709272Y17956766D01*
X24876345Y17725253D01*
X24978090Y17522563D01*
X25045016Y17320886D01*
X25025459Y17224774D01*
X24992868Y17206846D01*
X24928220Y17129189D01*
X24938802Y17095436D01*
X24998564Y17027420D01*
X25095017Y17037737D01*
X25181408Y17069392D01*
X25274986Y17194265D01*
X25311629Y17446698D01*
X25484666Y17446698D01*
X25496443Y17229739D01*
X25558922Y17127438D01*
X25712828Y17085413D01*
X25759833Y17079248D01*
X26303063Y17033185D01*
X26693438Y17048514D01*
X26928679Y17125100D01*
X26960285Y17151048D01*
X27060702Y17343343D01*
X27071391Y17583214D01*
X27006344Y17814973D01*
X26879555Y17982935D01*
X26738419Y18034000D01*
X26587837Y18091813D01*
X26518161Y18219876D01*
X26558535Y18350127D01*
X26591710Y18376609D01*
X26659352Y18470199D01*
X26642530Y18513025D01*
X26529498Y18524911D01*
X26413298Y18475295D01*
X26230341Y18392137D01*
X26129178Y18372667D01*
X26013805Y18305486D01*
X25873633Y18138106D01*
X25834551Y18076334D01*
X25704791Y17889729D01*
X25595110Y17786947D01*
X25572188Y17780000D01*
X25517025Y17704975D01*
X25486689Y17517889D01*
X25484666Y17446698D01*
X25311629Y17446698D01*
X25315021Y17470064D01*
X25300831Y17886842D01*
X25261491Y18233850D01*
X25218091Y18550492D01*
X26852764Y18550492D01*
X26887982Y18447163D01*
X26966333Y18372667D01*
X27067963Y18208164D01*
X27093333Y18067919D01*
X27168321Y17860531D01*
X27305000Y17729881D01*
X27456669Y17599984D01*
X27516666Y17490863D01*
X27583276Y17318781D01*
X27739635Y17247250D01*
X27863588Y17276419D01*
X28012356Y17379496D01*
X28062720Y17434410D01*
X28035411Y17526000D01*
X28321000Y17526000D01*
X28327712Y17447982D01*
X28358336Y17441334D01*
X28444554Y17502794D01*
X28448000Y17526000D01*
X28419113Y17608466D01*
X28410663Y17610667D01*
X28338377Y17551338D01*
X28321000Y17526000D01*
X28035411Y17526000D01*
X28034259Y17529862D01*
X27902037Y17662275D01*
X27878082Y17680332D01*
X27807082Y17737667D01*
X28532666Y17737667D01*
X28575000Y17695334D01*
X28617333Y17737667D01*
X28575000Y17780000D01*
X28532666Y17737667D01*
X27807082Y17737667D01*
X27727586Y17801862D01*
X27717381Y17836445D01*
X28814888Y17836445D01*
X28826511Y17786111D01*
X28871333Y17780000D01*
X28941023Y17810979D01*
X28927777Y17836445D01*
X28827298Y17846578D01*
X28814888Y17836445D01*
X27717381Y17836445D01*
X27701797Y17889250D01*
X27776708Y17991667D01*
X28363333Y17991667D01*
X28405666Y17949334D01*
X28448000Y17991667D01*
X28405666Y18034000D01*
X28363333Y17991667D01*
X27776708Y17991667D01*
X27785136Y18003189D01*
X27792979Y18011878D01*
X27918291Y18185047D01*
X27909928Y18326093D01*
X27799877Y18471834D01*
X27633756Y18574501D01*
X27968769Y18574501D01*
X27982333Y18542000D01*
X28094492Y18460495D01*
X28119326Y18457334D01*
X28165230Y18509500D01*
X28151666Y18542000D01*
X28039507Y18623506D01*
X28014673Y18626667D01*
X27968769Y18574501D01*
X27633756Y18574501D01*
X27619661Y18583212D01*
X27324514Y18625557D01*
X27249544Y18626667D01*
X26971276Y18608524D01*
X26852764Y18550492D01*
X25218091Y18550492D01*
X25207650Y18626667D01*
X24766614Y18626667D01*
X24465097Y18606136D01*
X24255420Y18522285D01*
X24088259Y18341727D01*
X23928543Y18059372D01*
X23817929Y17807368D01*
X23807488Y17667327D01*
X21673683Y17667327D01*
X21639692Y17895826D01*
X23542958Y17895826D01*
X23608409Y17864667D01*
X23690116Y17933324D01*
X23784828Y18095868D01*
X23852242Y18252415D01*
X23833567Y18270775D01*
X23713751Y18167413D01*
X23571761Y18006177D01*
X23542958Y17895826D01*
X21639692Y17895826D01*
X21625434Y17991667D01*
X21390015Y17623956D01*
X21235795Y17331346D01*
X21206187Y17136058D01*
X20836549Y17136058D01*
X20908444Y17327275D01*
X21345688Y18045426D01*
X21909433Y18687418D01*
X22148087Y18881911D01*
X24468666Y18881911D01*
X24544811Y18832904D01*
X24739502Y18801799D01*
X24892000Y18796000D01*
X25315333Y18796000D01*
X25315333Y18965334D01*
X26924000Y18965334D01*
X26973608Y18832549D01*
X27135666Y18796000D01*
X27294797Y18823970D01*
X27347333Y18877688D01*
X27281773Y18971343D01*
X27137291Y19074295D01*
X26992188Y19132950D01*
X26971899Y19134667D01*
X26932927Y19063487D01*
X26924000Y18965334D01*
X25315333Y18965334D01*
X25315333Y19081967D01*
X25276170Y19316313D01*
X25211133Y19427445D01*
X27052532Y19427445D01*
X27123728Y19324948D01*
X27273504Y19187193D01*
X27468442Y19039935D01*
X27675126Y18908929D01*
X27860140Y18819930D01*
X27966163Y18796230D01*
X28124810Y18821131D01*
X28150576Y18882431D01*
X28038617Y18982749D01*
X27827101Y19120982D01*
X27570334Y19267002D01*
X27322626Y19390683D01*
X27138283Y19461898D01*
X27093333Y19468929D01*
X27052532Y19427445D01*
X25211133Y19427445D01*
X25180465Y19479848D01*
X25179016Y19481066D01*
X25081962Y19532295D01*
X24976608Y19495697D01*
X24821403Y19351637D01*
X24755683Y19281010D01*
X24589805Y19084098D01*
X24486145Y18930434D01*
X24468666Y18881911D01*
X22148087Y18881911D01*
X22252945Y18967365D01*
X23599029Y18967365D01*
X23623768Y18926847D01*
X23783419Y18920257D01*
X23866226Y18922047D01*
X24062262Y18943248D01*
X24225850Y19015181D01*
X24405220Y19167529D01*
X24596047Y19371208D01*
X24779939Y19586642D01*
X24895289Y19743670D01*
X24919627Y19811339D01*
X24916031Y19812000D01*
X24798807Y19768508D01*
X24586745Y19656138D01*
X24324472Y19502052D01*
X24056613Y19333411D01*
X23827796Y19177376D01*
X23683191Y19061647D01*
X23599029Y18967365D01*
X22252945Y18967365D01*
X22480625Y19152913D01*
X23079218Y19152913D01*
X23117602Y19087994D01*
X23176826Y19026709D01*
X23243695Y19011337D01*
X23350748Y19055132D01*
X23530524Y19171349D01*
X23812500Y19371052D01*
X24027929Y19529856D01*
X24173881Y19646628D01*
X24214666Y19689187D01*
X24145141Y19686036D01*
X23968257Y19631942D01*
X23731553Y19544377D01*
X23482567Y19440814D01*
X23286967Y19348213D01*
X23114984Y19241370D01*
X23079218Y19152913D01*
X22480625Y19152913D01*
X22580445Y19234261D01*
X23339487Y19666966D01*
X24039533Y19930843D01*
X24490522Y20019735D01*
X25041670Y20063435D01*
X25630092Y20062486D01*
X26192908Y20017429D01*
X26667235Y19928807D01*
X26740706Y19907542D01*
X27557578Y19568299D01*
X28306366Y19088203D01*
X28836072Y18612761D01*
X29295128Y18084669D01*
X29641358Y17562757D01*
X29915748Y16982380D01*
X29985661Y16799568D01*
X30094208Y16374991D01*
X30161463Y15842005D01*
X30186724Y15256601D01*
X30169288Y14674766D01*
X30108454Y14152491D01*
X30023268Y13800667D01*
X29651352Y12933657D01*
X29158998Y12177171D01*
X28553541Y11539797D01*
X27842312Y11030122D01*
X27505847Y10852390D01*
X27127794Y10685722D01*
X26745020Y10539788D01*
X26424552Y10439533D01*
X26348332Y10421628D01*
X25990714Y10373357D01*
X25538732Y10347038D01*
X25066094Y10343998D01*
X24646508Y10365564D01*
X24468666Y10387786D01*
X24002855Y10503794D01*
X23482494Y10693168D01*
X22986263Y10924762D01*
X22716875Y11081273D01*
X22151718Y11519924D01*
X22606000Y11519924D01*
X22676788Y11449492D01*
X22866380Y11327474D01*
X23140614Y11174915D01*
X23293137Y11096590D01*
X23657528Y10921621D01*
X23927621Y10806920D01*
X24089182Y10756971D01*
X24127980Y10776259D01*
X24040224Y10861193D01*
X23903753Y10970597D01*
X23824248Y11035426D01*
X24474106Y11035426D01*
X24531397Y10898817D01*
X24641298Y10768632D01*
X24790337Y10647720D01*
X24932111Y10586979D01*
X25021631Y10596067D01*
X25020264Y10611756D01*
X25760409Y10611756D01*
X25802507Y10593848D01*
X25858702Y10611279D01*
X26045329Y10660830D01*
X26118202Y10668000D01*
X26237498Y10716093D01*
X26438601Y10840090D01*
X26549702Y10917855D01*
X26911351Y10917855D01*
X26925151Y10890793D01*
X27037851Y10922532D01*
X27051000Y10927157D01*
X27283427Y11026897D01*
X27563446Y11169799D01*
X27660457Y11224558D01*
X27936293Y11400355D01*
X28057844Y11517826D01*
X28027950Y11581769D01*
X27881496Y11597592D01*
X27641535Y11526632D01*
X27332671Y11313404D01*
X27220333Y11216529D01*
X27006421Y11020754D01*
X26911351Y10917855D01*
X26549702Y10917855D01*
X26680736Y11009572D01*
X26923129Y11194119D01*
X27125007Y11363312D01*
X27245597Y11486730D01*
X27262666Y11521844D01*
X27187142Y11568749D01*
X26996770Y11596292D01*
X26894920Y11599334D01*
X26678331Y11586663D01*
X26518297Y11527409D01*
X26359046Y11389708D01*
X26190977Y11197167D01*
X25945686Y10897620D01*
X25805149Y10707748D01*
X25760409Y10611756D01*
X25020264Y10611756D01*
X25013908Y10684645D01*
X25011401Y10689167D01*
X24877805Y10877738D01*
X24721586Y11037258D01*
X24588855Y11124900D01*
X24541026Y11126061D01*
X24474106Y11035426D01*
X23824248Y11035426D01*
X23691294Y11143836D01*
X23523504Y11281834D01*
X23193333Y11509380D01*
X23090854Y11542000D01*
X23537333Y11542000D01*
X23596398Y11457023D01*
X23744525Y11312503D01*
X23812500Y11253654D01*
X23985547Y11115491D01*
X24070722Y11081615D01*
X24106791Y11143901D01*
X24115528Y11190145D01*
X24116978Y11391541D01*
X24097019Y11478491D01*
X24058566Y11507750D01*
X24638000Y11507750D01*
X24685861Y11407433D01*
X24805633Y11229782D01*
X24961600Y11021282D01*
X25118043Y10828423D01*
X25239245Y10697691D01*
X25283199Y10668000D01*
X25300802Y10744603D01*
X25312474Y10942194D01*
X25315333Y11133667D01*
X25315333Y11599334D01*
X25484666Y11599334D01*
X25488460Y11112500D01*
X25492254Y10625667D01*
X25869460Y11046682D01*
X26060959Y11269596D01*
X26196726Y11445147D01*
X26246666Y11533515D01*
X26170958Y11572776D01*
X25979417Y11596320D01*
X25865666Y11599334D01*
X25484666Y11599334D01*
X25315333Y11599334D01*
X24976666Y11599334D01*
X24764498Y11579022D01*
X24646603Y11528259D01*
X24638000Y11507750D01*
X24058566Y11507750D01*
X24004317Y11549027D01*
X23835297Y11592738D01*
X23659992Y11601678D01*
X23548440Y11567900D01*
X23537333Y11542000D01*
X23090854Y11542000D01*
X22916739Y11597422D01*
X22872446Y11599334D01*
X22688774Y11577319D01*
X22606337Y11523928D01*
X22606000Y11519924D01*
X22151718Y11519924D01*
X22128751Y11537750D01*
X21591538Y12099899D01*
%TD*%
D11*
%TO.P,C1,1*%
%TO.N,Net-(C1-Pad1)*%
X13335000Y12700000D03*
D12*
%TO.P,C1,2*%
%TO.N,GND*%
X13335000Y21590000D03*
D11*
%TO.P,C1,1*%
%TO.N,Net-(C1-Pad1)*%
X13335000Y8890000D03*
%TD*%
D13*
%TO.P,D1,1,K*%
%TO.N,Net-(C1-Pad1)*%
X13335000Y5715000D03*
%TO.P,D1,2,A*%
%TO.N,Net-(D1-Pad2)*%
X3937000Y5715000D03*
%TD*%
D14*
%TO.P,R1,1*%
%TO.N,Net-(D2-Pad2)*%
X42545000Y19050000D03*
%TO.P,R1,2*%
%TO.N,Net-(R1-Pad2)*%
X42545000Y11430000D03*
%TD*%
%TO.P,R2,1*%
%TO.N,Net-(D3-Pad2)*%
X38100000Y19050000D03*
%TO.P,R2,2*%
%TO.N,Net-(R2-Pad2)*%
X38100000Y11430000D03*
%TD*%
D15*
%TO.P,SW1,1,1*%
%TO.N,Net-(C1-Pad1)*%
X29790000Y21590000D03*
%TO.P,SW1,2,2*%
%TO.N,Net-(R1-Pad2)*%
X34290000Y21590000D03*
%TO.P,SW1,3*%
%TO.N,N/C*%
X29790000Y28090000D03*
%TO.P,SW1,4*%
X34290000Y28090000D03*
%TD*%
%TO.P,SW2,1,1*%
%TO.N,Net-(C1-Pad1)*%
X29790000Y2540000D03*
%TO.P,SW2,2,2*%
%TO.N,Net-(R2-Pad2)*%
X34290000Y2540000D03*
%TO.P,SW2,3*%
%TO.N,N/C*%
X29790000Y9040000D03*
%TO.P,SW2,4*%
X34290000Y9040000D03*
%TD*%
D16*
%TO.P,P2,1,P1*%
%TO.N,unconnected-(P2-Pad1)*%
X25400000Y15240000D03*
%TD*%
D17*
%TO.P,D2,1,K*%
%TO.N,GND*%
X41275000Y23495000D03*
D14*
%TO.P,D2,2,A*%
%TO.N,Net-(D2-Pad2)*%
X41275000Y26035000D03*
%TD*%
D17*
%TO.P,D3,1,K*%
%TO.N,GND*%
X41275000Y4445000D03*
D14*
%TO.P,D3,2,A*%
%TO.N,Net-(D3-Pad2)*%
X41275000Y6985000D03*
%TD*%
D18*
%TO.P,SC1,1,+*%
%TO.N,Net-(D1-Pad2)*%
X419000Y15381000D03*
%TO.P,SC1,2,-*%
%TO.N,GND*%
X50419000Y15381000D03*
%TD*%
D19*
%TO.N,Net-(D1-Pad2)*%
X927000Y13805000D02*
X927000Y15381000D01*
X3937000Y10795000D02*
X927000Y13805000D01*
X3937000Y10795000D02*
X3937000Y11863000D01*
X3937000Y5715000D02*
X3937000Y10795000D01*
X3937000Y11863000D02*
X419000Y15381000D01*
%TO.N,GND*%
X49389000Y15381000D02*
X49911000Y15381000D01*
X43815000Y20955000D02*
X49389000Y15381000D01*
X49163000Y15381000D02*
X49389000Y15381000D01*
X44831000Y11049000D02*
X49163000Y15381000D01*
%TO.N,Net-(C1-Pad1)*%
X13335000Y8890000D02*
X13335000Y12700000D01*
X26615000Y5715000D02*
X29790000Y2540000D01*
X13335000Y5715000D02*
X13335000Y8890000D01*
X13335000Y5715000D02*
X26615000Y5715000D01*
%TO.N,GND*%
X43815000Y20955000D02*
X42545000Y20955000D01*
X42545000Y20955000D02*
X41275000Y22225000D01*
X41275000Y22225000D02*
X41275000Y23495000D01*
X40132000Y4445000D02*
X39370000Y5207000D01*
X39370000Y5207000D02*
X39370000Y8255000D01*
X39370000Y8255000D02*
X40640000Y9525000D01*
X40640000Y9525000D02*
X43307000Y9525000D01*
X43307000Y9525000D02*
X44831000Y11049000D01*
D20*
X48046000Y14264000D02*
X48046000Y15381000D01*
D19*
X41275000Y4445000D02*
X40132000Y4445000D01*
D20*
X48046000Y15381000D02*
X48046000Y16724000D01*
D19*
X50419000Y15381000D02*
X49163000Y15381000D01*
D20*
%TO.N,Net-(D1-Pad2)*%
X3937000Y14490000D02*
X3046000Y15381000D01*
D21*
X3937000Y14490000D02*
X3046000Y15381000D01*
D19*
%TO.N,Net-(D2-Pad2)*%
X42164000Y19050000D02*
X39243000Y21971000D01*
X39243000Y21971000D02*
X39243000Y25146000D01*
X39243000Y25146000D02*
X40132000Y26035000D01*
X40132000Y26035000D02*
X41275000Y26035000D01*
D20*
X42545000Y19050000D02*
X42164000Y19050000D01*
%TD*%
%TA.AperFunction,NonConductor*%
G36*
X14026565Y33734514D02*
G01*
X14078063Y33685643D01*
X14081751Y33678813D01*
X14243914Y33354852D01*
X14276676Y33289402D01*
X14280412Y33281221D01*
X14467963Y32828435D01*
X14471102Y32820020D01*
X14607561Y32410025D01*
X14625874Y32355003D01*
X14628408Y32346373D01*
X14660000Y32222597D01*
X14657466Y32151645D01*
X14616975Y32093327D01*
X14551383Y32066158D01*
X14524327Y32066171D01*
X10528492Y32499582D01*
X10462925Y32526813D01*
X10422489Y32585169D01*
X10417073Y32640639D01*
X10427003Y32719247D01*
X10427500Y32723179D01*
X10427500Y33038821D01*
X10414994Y33137818D01*
X10414000Y33153610D01*
X10414000Y33286731D01*
X10434002Y33354852D01*
X10487658Y33401345D01*
X10527724Y33412132D01*
X13956822Y33747784D01*
X14026565Y33734514D01*
G37*
%TD.AperFunction*%
%TA.AperFunction,NonConductor*%
G36*
X47889018Y29871000D02*
G01*
X47903851Y29868690D01*
X47903855Y29868690D01*
X47912724Y29867309D01*
X47929012Y29869439D01*
X47953589Y29870233D01*
X47991935Y29867720D01*
X48170701Y29856002D01*
X48187041Y29853851D01*
X48306690Y29830052D01*
X48426343Y29806251D01*
X48442257Y29801987D01*
X48513580Y29777776D01*
X48673292Y29723561D01*
X48688519Y29717254D01*
X48907342Y29609343D01*
X48921616Y29601102D01*
X49124478Y29465553D01*
X49137553Y29455520D01*
X49320993Y29294648D01*
X49332648Y29282993D01*
X49493520Y29099553D01*
X49503553Y29086478D01*
X49639102Y28883616D01*
X49647343Y28869342D01*
X49755254Y28650519D01*
X49761560Y28635295D01*
X49788477Y28556000D01*
X49791433Y28485067D01*
X49755570Y28423794D01*
X49692274Y28391637D01*
X49669164Y28389500D01*
X48428251Y28389500D01*
X48414664Y28390235D01*
X37065443Y29621235D01*
X36999876Y29648466D01*
X36959440Y29706822D01*
X36956973Y29777776D01*
X36993258Y29838800D01*
X37056775Y29870519D01*
X37079030Y29872500D01*
X47869633Y29872500D01*
X47889018Y29871000D01*
G37*
%TD.AperFunction*%
%TA.AperFunction,NonConductor*%
G36*
X47137462Y21367917D02*
G01*
X47565822Y21249118D01*
X47626120Y21211639D01*
X47656582Y21147509D01*
X47647538Y21077091D01*
X47604329Y21024425D01*
X47369253Y20860129D01*
X47369240Y20860119D01*
X47366945Y20858515D01*
X47364804Y20856715D01*
X47364801Y20856713D01*
X47027869Y20573491D01*
X47025450Y20571458D01*
X47023476Y20569474D01*
X47023472Y20569470D01*
X46975850Y20521598D01*
X46710824Y20255181D01*
X46670670Y20206901D01*
X46454753Y19947290D01*
X46395815Y19907706D01*
X46324833Y19906270D01*
X46268784Y19938764D01*
X45050143Y21157405D01*
X45016117Y21219717D01*
X45021182Y21290532D01*
X45063729Y21347368D01*
X45130249Y21372179D01*
X45139238Y21372500D01*
X47103789Y21372500D01*
X47137462Y21367917D01*
G37*
%TD.AperFunction*%
%TA.AperFunction,NonConductor*%
G36*
X46304339Y10980625D02*
G01*
X46359257Y10940575D01*
X46614043Y10617381D01*
X46623769Y10605044D01*
X46930008Y10280639D01*
X46932118Y10278769D01*
X47261766Y9986607D01*
X47261773Y9986602D01*
X47263872Y9984741D01*
X47622718Y9719694D01*
X47740532Y9647921D01*
X47781267Y9623105D01*
X47829036Y9570582D01*
X47840826Y9500571D01*
X47812894Y9435300D01*
X47754108Y9395492D01*
X47715714Y9389500D01*
X44913238Y9389500D01*
X44845117Y9409502D01*
X44798624Y9463158D01*
X44788520Y9533432D01*
X44818014Y9598012D01*
X44824143Y9604595D01*
X46171212Y10951664D01*
X46233524Y10985690D01*
X46304339Y10980625D01*
G37*
%TD.AperFunction*%
%TA.AperFunction,NonConductor*%
G36*
X10230808Y31603362D02*
G01*
X14839253Y30325287D01*
X14899551Y30287808D01*
X14924159Y30242833D01*
X14924194Y30242849D01*
X14924374Y30242440D01*
X14924377Y30242435D01*
X14927811Y30234631D01*
X14927811Y30234630D01*
X14936108Y30215774D01*
X14941925Y30199662D01*
X14950051Y30171229D01*
X14963755Y30149511D01*
X14972517Y30133029D01*
X14982859Y30109526D01*
X14988634Y30102656D01*
X15001886Y30086891D01*
X15011997Y30073050D01*
X15022985Y30055635D01*
X15027776Y30048042D01*
X15034504Y30042100D01*
X15047019Y30031047D01*
X15060057Y30017687D01*
X15076583Y29998027D01*
X15084050Y29993056D01*
X15084055Y29993052D01*
X15101207Y29981635D01*
X15114786Y29971197D01*
X15136951Y29951622D01*
X15145077Y29947807D01*
X15145080Y29947805D01*
X15160189Y29940712D01*
X15176453Y29931549D01*
X15197834Y29917316D01*
X15226071Y29908494D01*
X15242026Y29902289D01*
X15268800Y29889719D01*
X15294168Y29885769D01*
X15312352Y29881537D01*
X15336864Y29873879D01*
X15367584Y29873316D01*
X15371905Y29873237D01*
X15375874Y29873047D01*
X15379386Y29872500D01*
X15410946Y29872500D01*
X15413255Y29872479D01*
X15473525Y29871374D01*
X15473528Y29871374D01*
X15482498Y29871210D01*
X15486303Y29872247D01*
X15490378Y29872500D01*
X16454751Y29872500D01*
X16488424Y29867917D01*
X38134173Y23864829D01*
X38194471Y23827350D01*
X38224933Y23763220D01*
X38226500Y23743412D01*
X38226500Y22033276D01*
X38225763Y22019668D01*
X38221638Y21981696D01*
X38222175Y21975561D01*
X38226046Y21931310D01*
X38226375Y21926482D01*
X38226500Y21923927D01*
X38226500Y21920843D01*
X38226801Y21917776D01*
X38230722Y21877781D01*
X38230844Y21876468D01*
X38231961Y21863704D01*
X38239012Y21783108D01*
X38240511Y21777948D01*
X38241035Y21772606D01*
X38242816Y21766708D01*
X38268098Y21682969D01*
X38268455Y21681764D01*
X38294628Y21591678D01*
X38297100Y21586910D01*
X38298652Y21581768D01*
X38301547Y21576323D01*
X38301550Y21576316D01*
X38342633Y21499050D01*
X38343213Y21497946D01*
X38386366Y21414696D01*
X38389718Y21410497D01*
X38392239Y21405756D01*
X38396131Y21400984D01*
X38451438Y21333171D01*
X38452266Y21332145D01*
X38480757Y21296456D01*
X38483768Y21292684D01*
X38486263Y21290189D01*
X38486973Y21289395D01*
X38490692Y21285041D01*
X38518232Y21251274D01*
X38522972Y21247353D01*
X38553878Y21221785D01*
X38562657Y21213795D01*
X41031264Y18745187D01*
X41064688Y18685506D01*
X41090631Y18577447D01*
X41092524Y18572876D01*
X41092525Y18572874D01*
X41167709Y18391364D01*
X41182460Y18355751D01*
X41307840Y18151151D01*
X41463682Y17968682D01*
X41646151Y17812840D01*
X41850751Y17687460D01*
X41855321Y17685567D01*
X41855323Y17685566D01*
X41956045Y17643846D01*
X42072447Y17595631D01*
X42154037Y17576043D01*
X42300965Y17540768D01*
X42300971Y17540767D01*
X42305778Y17539613D01*
X42545000Y17520786D01*
X42784222Y17539613D01*
X42789029Y17540767D01*
X42789035Y17540768D01*
X42935963Y17576043D01*
X43017553Y17595631D01*
X43133955Y17643846D01*
X43234677Y17685566D01*
X43234679Y17685567D01*
X43239249Y17687460D01*
X43443849Y17812840D01*
X43626318Y17968682D01*
X43782160Y18151151D01*
X43907540Y18355751D01*
X43922292Y18391364D01*
X43997475Y18572874D01*
X43997476Y18572876D01*
X43999369Y18577447D01*
X44041034Y18750992D01*
X44054232Y18805965D01*
X44054233Y18805971D01*
X44055387Y18810778D01*
X44067963Y18970573D01*
X44093248Y19036914D01*
X44150386Y19079054D01*
X44221237Y19083613D01*
X44282670Y19049782D01*
X45453691Y17878761D01*
X45487717Y17816449D01*
X45488993Y17769630D01*
X45448913Y17520786D01*
X45438678Y17457243D01*
X45410500Y17059270D01*
X45410500Y13767650D01*
X45410563Y13766244D01*
X45410563Y13766227D01*
X45411509Y13744994D01*
X45425300Y13435324D01*
X45425672Y13432551D01*
X45425673Y13432545D01*
X45458975Y13184607D01*
X45448219Y13114430D01*
X45423191Y13078739D01*
X44205181Y11860729D01*
X44142869Y11826703D01*
X44072054Y11831768D01*
X44015218Y11874315D01*
X44000357Y11902962D01*
X43999369Y11902553D01*
X43909434Y12119677D01*
X43909433Y12119679D01*
X43907540Y12124249D01*
X43782160Y12328849D01*
X43694126Y12431925D01*
X43629531Y12507556D01*
X43626318Y12511318D01*
X43443849Y12667160D01*
X43239249Y12792540D01*
X43234679Y12794433D01*
X43234677Y12794434D01*
X43022126Y12882475D01*
X43022124Y12882476D01*
X43017553Y12884369D01*
X42935963Y12903957D01*
X42789035Y12939232D01*
X42789029Y12939233D01*
X42784222Y12940387D01*
X42545000Y12959214D01*
X42305778Y12940387D01*
X42300971Y12939233D01*
X42300965Y12939232D01*
X42154037Y12903957D01*
X42072447Y12884369D01*
X42067876Y12882476D01*
X42067874Y12882475D01*
X41855323Y12794434D01*
X41855321Y12794433D01*
X41850751Y12792540D01*
X41646151Y12667160D01*
X41463682Y12511318D01*
X41460469Y12507556D01*
X41395875Y12431925D01*
X41307840Y12328849D01*
X41182460Y12124249D01*
X41090631Y11902553D01*
X41089476Y11897741D01*
X41035768Y11674035D01*
X41035767Y11674029D01*
X41034613Y11669222D01*
X41015786Y11430000D01*
X41034613Y11190778D01*
X41035767Y11185971D01*
X41035768Y11185965D01*
X41049616Y11128286D01*
X41090631Y10957447D01*
X41092524Y10952876D01*
X41092525Y10952874D01*
X41097620Y10940575D01*
X41182460Y10735751D01*
X41185047Y10731529D01*
X41187293Y10727122D01*
X41185821Y10726372D01*
X41202480Y10664819D01*
X41181034Y10597139D01*
X41126401Y10551799D01*
X41076509Y10541500D01*
X40702276Y10541500D01*
X40688668Y10542237D01*
X40656821Y10545697D01*
X40656817Y10545697D01*
X40650696Y10546362D01*
X40613828Y10543137D01*
X40600310Y10541954D01*
X40595482Y10541625D01*
X40592927Y10541500D01*
X40589843Y10541500D01*
X40574469Y10539992D01*
X40546781Y10537278D01*
X40545468Y10537156D01*
X40505371Y10533648D01*
X40452108Y10528988D01*
X40446948Y10527489D01*
X40441606Y10526965D01*
X40374879Y10506819D01*
X40351948Y10499896D01*
X40350684Y10499521D01*
X40266593Y10475090D01*
X40266589Y10475088D01*
X40260678Y10473371D01*
X40255914Y10470902D01*
X40250768Y10469348D01*
X40167961Y10425319D01*
X40166904Y10424764D01*
X40083696Y10381634D01*
X40079497Y10378282D01*
X40074756Y10375761D01*
X40069984Y10371869D01*
X40002171Y10316562D01*
X40001145Y10315734D01*
X39964436Y10286429D01*
X39961684Y10284232D01*
X39959189Y10281737D01*
X39958395Y10281027D01*
X39954040Y10277307D01*
X39925049Y10253663D01*
X39925046Y10253660D01*
X39920274Y10249768D01*
X39916346Y10245020D01*
X39916345Y10245019D01*
X39890789Y10214127D01*
X39882800Y10205348D01*
X38695267Y9017815D01*
X38685125Y9008714D01*
X38655351Y8984775D01*
X38622813Y8945998D01*
X38619649Y8942371D01*
X38617954Y8940502D01*
X38615760Y8938308D01*
X38588188Y8904742D01*
X38587526Y8903945D01*
X38527214Y8832067D01*
X38524627Y8827361D01*
X38521218Y8823211D01*
X38518310Y8817787D01*
X38518303Y8817777D01*
X38476939Y8740632D01*
X38476310Y8739472D01*
X38431179Y8657379D01*
X38429555Y8652259D01*
X38427017Y8647526D01*
X38402790Y8568284D01*
X38399648Y8558007D01*
X38399256Y8556747D01*
X38387599Y8520001D01*
X38347934Y8461117D01*
X38282732Y8433025D01*
X38212693Y8444644D01*
X38188671Y8459804D01*
X34484801Y11430000D01*
X36570786Y11430000D01*
X36589613Y11190778D01*
X36590767Y11185971D01*
X36590768Y11185965D01*
X36604616Y11128286D01*
X36645631Y10957447D01*
X36647524Y10952876D01*
X36647525Y10952874D01*
X36652620Y10940575D01*
X36737460Y10735751D01*
X36862840Y10531151D01*
X36866057Y10527384D01*
X36866058Y10527383D01*
X36953712Y10424753D01*
X37018682Y10348682D01*
X37022444Y10345469D01*
X37180385Y10210576D01*
X37201151Y10192840D01*
X37405751Y10067460D01*
X37410321Y10065567D01*
X37410323Y10065566D01*
X37600948Y9986607D01*
X37627447Y9975631D01*
X37709037Y9956043D01*
X37855965Y9920768D01*
X37855971Y9920767D01*
X37860778Y9919613D01*
X38100000Y9900786D01*
X38339222Y9919613D01*
X38344029Y9920767D01*
X38344035Y9920768D01*
X38490963Y9956043D01*
X38572553Y9975631D01*
X38599052Y9986607D01*
X38789677Y10065566D01*
X38789679Y10065567D01*
X38794249Y10067460D01*
X38998849Y10192840D01*
X39019616Y10210576D01*
X39177556Y10345469D01*
X39181318Y10348682D01*
X39246288Y10424753D01*
X39333942Y10527383D01*
X39333943Y10527384D01*
X39337160Y10531151D01*
X39462540Y10735751D01*
X39547381Y10940575D01*
X39552475Y10952874D01*
X39552476Y10952876D01*
X39554369Y10957447D01*
X39595384Y11128286D01*
X39609232Y11185965D01*
X39609233Y11185971D01*
X39610387Y11190778D01*
X39629214Y11430000D01*
X39610387Y11669222D01*
X39609233Y11674029D01*
X39609232Y11674035D01*
X39555524Y11897741D01*
X39554369Y11902553D01*
X39462540Y12124249D01*
X39337160Y12328849D01*
X39249126Y12431925D01*
X39184531Y12507556D01*
X39181318Y12511318D01*
X38998849Y12667160D01*
X38794249Y12792540D01*
X38789679Y12794433D01*
X38789677Y12794434D01*
X38577126Y12882475D01*
X38577124Y12882476D01*
X38572553Y12884369D01*
X38490963Y12903957D01*
X38344035Y12939232D01*
X38344029Y12939233D01*
X38339222Y12940387D01*
X38100000Y12959214D01*
X37860778Y12940387D01*
X37855971Y12939233D01*
X37855965Y12939232D01*
X37709037Y12903957D01*
X37627447Y12884369D01*
X37622876Y12882476D01*
X37622874Y12882475D01*
X37410323Y12794434D01*
X37410321Y12794433D01*
X37405751Y12792540D01*
X37201151Y12667160D01*
X37018682Y12511318D01*
X37015469Y12507556D01*
X36950875Y12431925D01*
X36862840Y12328849D01*
X36737460Y12124249D01*
X36645631Y11902553D01*
X36644476Y11897741D01*
X36590768Y11674035D01*
X36590767Y11674029D01*
X36589613Y11669222D01*
X36570786Y11430000D01*
X34484801Y11430000D01*
X30719492Y14449465D01*
X30678861Y14507686D01*
X30673164Y14562340D01*
X30676737Y14593014D01*
X30678027Y14601540D01*
X30680467Y14614622D01*
X30681359Y14619404D01*
X30681505Y14624264D01*
X30681506Y14624277D01*
X30681734Y14631882D01*
X30682523Y14642681D01*
X30683087Y14647523D01*
X30683088Y14647535D01*
X30683605Y14651977D01*
X30683488Y14656443D01*
X30683488Y14656450D01*
X30683105Y14671025D01*
X30683119Y14678106D01*
X30699199Y15214699D01*
X30699921Y15224907D01*
X30701471Y15238777D01*
X30700754Y15255395D01*
X30700694Y15264596D01*
X30700964Y15273590D01*
X30700964Y15273594D01*
X30701098Y15278072D01*
X30699443Y15292747D01*
X30698767Y15301424D01*
X30675504Y15840550D01*
X30675440Y15849624D01*
X30675790Y15861740D01*
X30675931Y15866607D01*
X30674222Y15880151D01*
X30673349Y15890483D01*
X30673089Y15896501D01*
X30672896Y15900977D01*
X30672069Y15905389D01*
X30669612Y15918492D01*
X30668444Y15925940D01*
X30641838Y16136784D01*
X30605025Y16428527D01*
X30604615Y16432213D01*
X30602080Y16458586D01*
X30602079Y16458592D01*
X30601614Y16463428D01*
X30600410Y16468138D01*
X30600340Y16468538D01*
X30599522Y16472136D01*
X30599052Y16475856D01*
X30590299Y16507763D01*
X30589747Y16509845D01*
X30486543Y16913520D01*
X30485406Y16918366D01*
X30480592Y16940867D01*
X30480590Y16940875D01*
X30479572Y16945631D01*
X30477833Y16950179D01*
X30476718Y16953942D01*
X30476552Y16953887D01*
X30475138Y16958133D01*
X30474027Y16962478D01*
X30462909Y16989332D01*
X30461639Y16992524D01*
X30404483Y17141978D01*
X30401331Y17151292D01*
X30398457Y17161022D01*
X30397076Y17165698D01*
X30390420Y17179776D01*
X30386642Y17188626D01*
X30382201Y17200239D01*
X30380021Y17204160D01*
X30374505Y17214080D01*
X30370715Y17221457D01*
X30149175Y17690048D01*
X30108641Y17775784D01*
X30108106Y17776931D01*
X30093409Y17808869D01*
X30093409Y17808870D01*
X30091374Y17813291D01*
X30081762Y17827780D01*
X30029278Y17907214D01*
X30028900Y17907534D01*
X30028573Y17907959D01*
X29728283Y18360622D01*
X29726602Y18363225D01*
X29711505Y18387244D01*
X29708916Y18391364D01*
X29705721Y18395039D01*
X29705448Y18395408D01*
X29704174Y18396964D01*
X29702651Y18399259D01*
X29699681Y18402591D01*
X29699672Y18402603D01*
X29678933Y18425872D01*
X29677902Y18427043D01*
X29230919Y18941245D01*
X29228426Y18944204D01*
X29211921Y18964412D01*
X29208837Y18968188D01*
X29205212Y18971442D01*
X29204931Y18971736D01*
X29202023Y18974487D01*
X29199430Y18977470D01*
X29174794Y18998774D01*
X29173054Y19000306D01*
X29117688Y19050000D01*
X36570786Y19050000D01*
X36589613Y18810778D01*
X36590767Y18805971D01*
X36590768Y18805965D01*
X36603966Y18750992D01*
X36645631Y18577447D01*
X36647524Y18572876D01*
X36647525Y18572874D01*
X36722709Y18391364D01*
X36737460Y18355751D01*
X36862840Y18151151D01*
X37018682Y17968682D01*
X37201151Y17812840D01*
X37405751Y17687460D01*
X37410321Y17685567D01*
X37410323Y17685566D01*
X37511045Y17643846D01*
X37627447Y17595631D01*
X37709037Y17576043D01*
X37855965Y17540768D01*
X37855971Y17540767D01*
X37860778Y17539613D01*
X38100000Y17520786D01*
X38339222Y17539613D01*
X38344029Y17540767D01*
X38344035Y17540768D01*
X38490963Y17576043D01*
X38572553Y17595631D01*
X38688955Y17643846D01*
X38789677Y17685566D01*
X38789679Y17685567D01*
X38794249Y17687460D01*
X38998849Y17812840D01*
X39181318Y17968682D01*
X39337160Y18151151D01*
X39462540Y18355751D01*
X39477292Y18391364D01*
X39552475Y18572874D01*
X39552476Y18572876D01*
X39554369Y18577447D01*
X39596034Y18750992D01*
X39609232Y18805965D01*
X39609233Y18805971D01*
X39610387Y18810778D01*
X39629214Y19050000D01*
X39610387Y19289222D01*
X39609233Y19294029D01*
X39609232Y19294035D01*
X39573957Y19440963D01*
X39554369Y19522553D01*
X39544828Y19545587D01*
X39464434Y19739677D01*
X39464433Y19739679D01*
X39462540Y19744249D01*
X39337160Y19948849D01*
X39318511Y19970685D01*
X39184531Y20127556D01*
X39181318Y20131318D01*
X39063715Y20231760D01*
X39002617Y20283942D01*
X39002616Y20283943D01*
X38998849Y20287160D01*
X38794249Y20412540D01*
X38789679Y20414433D01*
X38789677Y20414434D01*
X38577126Y20502475D01*
X38577124Y20502476D01*
X38572553Y20504369D01*
X38482041Y20526099D01*
X38344035Y20559232D01*
X38344029Y20559233D01*
X38339222Y20560387D01*
X38100000Y20579214D01*
X37860778Y20560387D01*
X37855971Y20559233D01*
X37855965Y20559232D01*
X37717959Y20526099D01*
X37627447Y20504369D01*
X37622876Y20502476D01*
X37622874Y20502475D01*
X37410323Y20414434D01*
X37410321Y20414433D01*
X37405751Y20412540D01*
X37201151Y20287160D01*
X37197384Y20283943D01*
X37197383Y20283942D01*
X37136285Y20231760D01*
X37018682Y20131318D01*
X37015469Y20127556D01*
X36881490Y19970685D01*
X36862840Y19948849D01*
X36737460Y19744249D01*
X36735567Y19739679D01*
X36735566Y19739677D01*
X36655172Y19545587D01*
X36645631Y19522553D01*
X36626043Y19440963D01*
X36590768Y19294035D01*
X36590767Y19294029D01*
X36589613Y19289222D01*
X36570786Y19050000D01*
X29117688Y19050000D01*
X28772265Y19360037D01*
X28703725Y19421556D01*
X28702665Y19422645D01*
X28701828Y19423975D01*
X28664228Y19457261D01*
X28643978Y19475187D01*
X28643335Y19475760D01*
X28624393Y19492761D01*
X28624390Y19492764D01*
X28621926Y19494975D01*
X28620692Y19495800D01*
X28617200Y19498891D01*
X28590385Y19516084D01*
X28588427Y19517366D01*
X28538068Y19551028D01*
X28538067Y19551028D01*
X28530604Y19556017D01*
X28526667Y19557255D01*
X28522873Y19559370D01*
X27895269Y19961768D01*
X27891120Y19964794D01*
X27887932Y19968298D01*
X27829625Y20003893D01*
X27827269Y20005367D01*
X27807470Y20018061D01*
X27803702Y20020477D01*
X27799828Y20022244D01*
X27795930Y20024493D01*
X27795623Y20024649D01*
X27791463Y20027189D01*
X27765697Y20037889D01*
X27761787Y20039593D01*
X27759652Y20040567D01*
X27703761Y20066057D01*
X27696649Y20067084D01*
X27688271Y20070044D01*
X26951098Y20376189D01*
X26946198Y20378347D01*
X26926309Y20387618D01*
X26926305Y20387619D01*
X26921893Y20389676D01*
X26917209Y20391032D01*
X26915516Y20391667D01*
X26912026Y20392893D01*
X26911987Y20392775D01*
X26907743Y20394193D01*
X26903602Y20395913D01*
X26899266Y20397027D01*
X26899256Y20397030D01*
X26876550Y20402861D01*
X26872864Y20403867D01*
X26828330Y20416756D01*
X26821438Y20418967D01*
X26805447Y20424609D01*
X26805444Y20424610D01*
X26800863Y20426226D01*
X26792062Y20427870D01*
X26780174Y20430694D01*
X26778885Y20431067D01*
X26778886Y20431067D01*
X26774584Y20432312D01*
X26752047Y20435476D01*
X26746477Y20436387D01*
X26303594Y20519135D01*
X26297521Y20520426D01*
X26273758Y20526099D01*
X26267327Y20526614D01*
X26258554Y20527782D01*
X26255369Y20528145D01*
X26250975Y20528966D01*
X26238850Y20529481D01*
X26225570Y20530046D01*
X26220867Y20530334D01*
X25991459Y20548699D01*
X25695884Y20572362D01*
X25686364Y20573491D01*
X25675733Y20575164D01*
X25675728Y20575164D01*
X25670919Y20575921D01*
X25666053Y20575929D01*
X25666051Y20575929D01*
X25658772Y20575941D01*
X25655960Y20575945D01*
X25646110Y20576347D01*
X25634318Y20577291D01*
X25617861Y20576263D01*
X25609840Y20576019D01*
X25338193Y20576458D01*
X25066632Y20576896D01*
X25057355Y20577253D01*
X25045814Y20578124D01*
X25045806Y20578124D01*
X25040957Y20578490D01*
X25026827Y20577370D01*
X25016675Y20576976D01*
X25013556Y20576981D01*
X25010113Y20576987D01*
X25010110Y20576987D01*
X25005629Y20576994D01*
X25001192Y20576366D01*
X25001181Y20576365D01*
X24988509Y20574571D01*
X24980808Y20573721D01*
X24463388Y20532695D01*
X24458488Y20532403D01*
X24453071Y20532185D01*
X24430463Y20531277D01*
X24425692Y20530337D01*
X24425023Y20530258D01*
X24421816Y20529699D01*
X24417654Y20529069D01*
X24413181Y20528714D01*
X24384585Y20522278D01*
X24381370Y20521601D01*
X24011473Y20448692D01*
X24008999Y20448370D01*
X24006475Y20448569D01*
X23934481Y20433524D01*
X23933289Y20433282D01*
X23904057Y20427520D01*
X23901994Y20426797D01*
X23900985Y20426555D01*
X23900607Y20426445D01*
X23895841Y20425449D01*
X23872780Y20416756D01*
X23867105Y20414617D01*
X23864306Y20413599D01*
X23808854Y20394180D01*
X23808851Y20394179D01*
X23800386Y20391214D01*
X23796277Y20388272D01*
X23791191Y20386002D01*
X23758656Y20373738D01*
X23535545Y20289638D01*
X23464749Y20284327D01*
X23412280Y20309242D01*
X21772099Y21624531D01*
X28377095Y21624531D01*
X28377392Y21619378D01*
X28377392Y21619375D01*
X28389399Y21411131D01*
X28390427Y21393303D01*
X28391564Y21388257D01*
X28391565Y21388251D01*
X28414825Y21285040D01*
X28441346Y21167358D01*
X28443288Y21162576D01*
X28443289Y21162572D01*
X28492124Y21042306D01*
X28528484Y20952763D01*
X28649501Y20755281D01*
X28801147Y20580216D01*
X28979349Y20432270D01*
X29179322Y20315416D01*
X29395694Y20232791D01*
X29400760Y20231760D01*
X29400761Y20231760D01*
X29453846Y20220960D01*
X29622656Y20186615D01*
X29753324Y20181824D01*
X29848949Y20178317D01*
X29848953Y20178317D01*
X29854113Y20178128D01*
X29859233Y20178784D01*
X29859235Y20178784D01*
X29932270Y20188140D01*
X30083847Y20207558D01*
X30088795Y20209043D01*
X30088802Y20209044D01*
X30300747Y20272631D01*
X30305690Y20274114D01*
X30320767Y20281500D01*
X30509049Y20373738D01*
X30509052Y20373740D01*
X30513684Y20376009D01*
X30702243Y20510506D01*
X30866303Y20673995D01*
X31001458Y20862083D01*
X31048641Y20957550D01*
X31101784Y21065078D01*
X31101785Y21065080D01*
X31104078Y21069720D01*
X31171408Y21291329D01*
X31201640Y21520959D01*
X31203135Y21582147D01*
X31203245Y21586635D01*
X31203245Y21586639D01*
X31203327Y21590000D01*
X31200912Y21619375D01*
X31200488Y21624531D01*
X32877095Y21624531D01*
X32877392Y21619378D01*
X32877392Y21619375D01*
X32889399Y21411131D01*
X32890427Y21393303D01*
X32891564Y21388257D01*
X32891565Y21388251D01*
X32914825Y21285040D01*
X32941346Y21167358D01*
X32943288Y21162576D01*
X32943289Y21162572D01*
X32992124Y21042306D01*
X33028484Y20952763D01*
X33149501Y20755281D01*
X33301147Y20580216D01*
X33479349Y20432270D01*
X33679322Y20315416D01*
X33895694Y20232791D01*
X33900760Y20231760D01*
X33900761Y20231760D01*
X33953846Y20220960D01*
X34122656Y20186615D01*
X34253324Y20181824D01*
X34348949Y20178317D01*
X34348953Y20178317D01*
X34354113Y20178128D01*
X34359233Y20178784D01*
X34359235Y20178784D01*
X34432270Y20188140D01*
X34583847Y20207558D01*
X34588795Y20209043D01*
X34588802Y20209044D01*
X34800747Y20272631D01*
X34805690Y20274114D01*
X34820767Y20281500D01*
X35009049Y20373738D01*
X35009052Y20373740D01*
X35013684Y20376009D01*
X35202243Y20510506D01*
X35366303Y20673995D01*
X35501458Y20862083D01*
X35548641Y20957550D01*
X35601784Y21065078D01*
X35601785Y21065080D01*
X35604078Y21069720D01*
X35671408Y21291329D01*
X35701640Y21520959D01*
X35703135Y21582147D01*
X35703245Y21586635D01*
X35703245Y21586639D01*
X35703327Y21590000D01*
X35700912Y21619375D01*
X35684773Y21815682D01*
X35684772Y21815688D01*
X35684349Y21820833D01*
X35656137Y21933150D01*
X35629184Y22040456D01*
X35629183Y22040460D01*
X35627925Y22045467D01*
X35625866Y22050203D01*
X35537630Y22253132D01*
X35537628Y22253135D01*
X35535570Y22257869D01*
X35409764Y22452335D01*
X35253887Y22623642D01*
X35249836Y22626841D01*
X35249832Y22626845D01*
X35076177Y22763989D01*
X35076172Y22763992D01*
X35072123Y22767190D01*
X35067607Y22769683D01*
X35067604Y22769685D01*
X34873879Y22876627D01*
X34873875Y22876629D01*
X34869355Y22879124D01*
X34864486Y22880848D01*
X34864482Y22880850D01*
X34655903Y22954712D01*
X34655899Y22954713D01*
X34651028Y22956438D01*
X34645935Y22957345D01*
X34645932Y22957346D01*
X34428095Y22996149D01*
X34428089Y22996150D01*
X34423006Y22997055D01*
X34350096Y22997946D01*
X34196581Y22999821D01*
X34196579Y22999821D01*
X34191411Y22999884D01*
X33962464Y22964850D01*
X33742314Y22892894D01*
X33737726Y22890506D01*
X33737722Y22890504D01*
X33711065Y22876627D01*
X33536872Y22785948D01*
X33532739Y22782845D01*
X33532736Y22782843D01*
X33507625Y22763989D01*
X33351655Y22646883D01*
X33191639Y22479436D01*
X33188725Y22475164D01*
X33188724Y22475163D01*
X33173152Y22452335D01*
X33061119Y22288101D01*
X32963602Y22078019D01*
X32901707Y21854831D01*
X32877095Y21624531D01*
X31200488Y21624531D01*
X31184773Y21815682D01*
X31184772Y21815688D01*
X31184349Y21820833D01*
X31156137Y21933150D01*
X31129184Y22040456D01*
X31129183Y22040460D01*
X31127925Y22045467D01*
X31125866Y22050203D01*
X31037630Y22253132D01*
X31037628Y22253135D01*
X31035570Y22257869D01*
X30909764Y22452335D01*
X30753887Y22623642D01*
X30749836Y22626841D01*
X30749832Y22626845D01*
X30576177Y22763989D01*
X30576172Y22763992D01*
X30572123Y22767190D01*
X30567607Y22769683D01*
X30567604Y22769685D01*
X30373879Y22876627D01*
X30373875Y22876629D01*
X30369355Y22879124D01*
X30364486Y22880848D01*
X30364482Y22880850D01*
X30155903Y22954712D01*
X30155899Y22954713D01*
X30151028Y22956438D01*
X30145935Y22957345D01*
X30145932Y22957346D01*
X29928095Y22996149D01*
X29928089Y22996150D01*
X29923006Y22997055D01*
X29850096Y22997946D01*
X29696581Y22999821D01*
X29696579Y22999821D01*
X29691411Y22999884D01*
X29462464Y22964850D01*
X29242314Y22892894D01*
X29237726Y22890506D01*
X29237722Y22890504D01*
X29211065Y22876627D01*
X29036872Y22785948D01*
X29032739Y22782845D01*
X29032736Y22782843D01*
X29007625Y22763989D01*
X28851655Y22646883D01*
X28691639Y22479436D01*
X28688725Y22475164D01*
X28688724Y22475163D01*
X28673152Y22452335D01*
X28561119Y22288101D01*
X28463602Y22078019D01*
X28401707Y21854831D01*
X28377095Y21624531D01*
X21772099Y21624531D01*
X9904239Y31141569D01*
X9863609Y31199788D01*
X9860906Y31270733D01*
X9881130Y31313925D01*
X9955554Y31416361D01*
X9968395Y31431395D01*
X10108040Y31571040D01*
X10170352Y31605066D01*
X10230808Y31603362D01*
G37*
%TD.AperFunction*%
%TA.AperFunction,NonConductor*%
G36*
X49737285Y2352498D02*
G01*
X49783778Y2298842D01*
X49793882Y2228568D01*
X49788478Y2206003D01*
X49768858Y2148203D01*
X49761561Y2126707D01*
X49755254Y2111481D01*
X49647343Y1892658D01*
X49639102Y1878384D01*
X49503553Y1675522D01*
X49493520Y1662447D01*
X49332648Y1479007D01*
X49320993Y1467352D01*
X49137553Y1306480D01*
X49124478Y1296447D01*
X48921616Y1160898D01*
X48907342Y1152657D01*
X48688519Y1044746D01*
X48673292Y1038439D01*
X48557776Y999226D01*
X48442257Y960013D01*
X48426343Y955749D01*
X48306690Y931948D01*
X48187041Y908149D01*
X48170701Y905998D01*
X48029437Y896738D01*
X47960763Y892237D01*
X47937650Y893267D01*
X47934146Y893310D01*
X47925276Y894691D01*
X47916374Y893527D01*
X47916372Y893527D01*
X47901323Y891559D01*
X47893714Y890564D01*
X47877379Y889500D01*
X47673211Y889500D01*
X47605090Y909502D01*
X47594385Y917203D01*
X46059313Y2148203D01*
X46018682Y2206424D01*
X46015979Y2277369D01*
X46052060Y2338513D01*
X46115471Y2370444D01*
X46138139Y2372500D01*
X49669164Y2372500D01*
X49737285Y2352498D01*
G37*
%TD.AperFunction*%
%TA.AperFunction,NonConductor*%
G36*
X11801977Y7596767D02*
G01*
X11817282Y7591029D01*
X11817288Y7591027D01*
X11824684Y7588255D01*
X11886866Y7581500D01*
X12192500Y7581500D01*
X12260621Y7561498D01*
X12307114Y7507842D01*
X12318500Y7455500D01*
X12318500Y7243374D01*
X12298498Y7175253D01*
X12261586Y7138003D01*
X12253193Y7132500D01*
X12253186Y7132495D01*
X12249282Y7129935D01*
X12052067Y6953914D01*
X11981394Y6868939D01*
X11934160Y6812146D01*
X11875223Y6772562D01*
X11804241Y6771126D01*
X11743750Y6808293D01*
X11712431Y6875770D01*
X11632893Y7461840D01*
X11643552Y7532032D01*
X11690468Y7585318D01*
X11758745Y7604781D01*
X11801977Y7596767D01*
G37*
%TD.AperFunction*%
%TA.AperFunction,NonConductor*%
G36*
X9212222Y30635786D02*
G01*
X9232200Y30614422D01*
X19983729Y16037829D01*
X20008068Y15971135D01*
X20007965Y15953477D01*
X19985847Y15662819D01*
X19983312Y15649142D01*
X19983441Y15649123D01*
X19982114Y15640245D01*
X19979542Y15631645D01*
X19979487Y15622671D01*
X19979487Y15622669D01*
X19979303Y15592497D01*
X19978302Y15580984D01*
X19978632Y15580954D01*
X19978193Y15576110D01*
X19977380Y15571305D01*
X19977316Y15566433D01*
X19977316Y15566432D01*
X19977119Y15551401D01*
X19976767Y15543490D01*
X19975494Y15526765D01*
X19976249Y15515398D01*
X19976514Y15505402D01*
X19973292Y15259983D01*
X19973093Y15244834D01*
X19972968Y15243283D01*
X19972508Y15241745D01*
X19972481Y15237264D01*
X19972037Y15164629D01*
X19972028Y15163748D01*
X19971666Y15136117D01*
X19971666Y15136114D01*
X19969865Y14998931D01*
X19969207Y14987626D01*
X19968062Y14976564D01*
X19968312Y14971696D01*
X19969056Y14957201D01*
X19969211Y14949094D01*
X19968997Y14932807D01*
X19970533Y14920982D01*
X19971416Y14911213D01*
X19983561Y14674548D01*
X19996064Y14430897D01*
X19996225Y14423369D01*
X19996044Y14402352D01*
X19997460Y14392715D01*
X19998630Y14380885D01*
X19998969Y14374276D01*
X19999832Y14369870D01*
X19999833Y14369865D01*
X20003182Y14352775D01*
X20004196Y14346860D01*
X20053860Y14008805D01*
X20054353Y14003139D01*
X20053764Y13998025D01*
X20055283Y13989175D01*
X20065183Y13931477D01*
X20065659Y13928489D01*
X20069658Y13901267D01*
X20070932Y13896968D01*
X20071073Y13896327D01*
X20071955Y13891822D01*
X20072054Y13891429D01*
X20072878Y13886629D01*
X20078927Y13868642D01*
X20081565Y13860797D01*
X20082943Y13856439D01*
X20100869Y13795950D01*
X20104974Y13789581D01*
X20108512Y13780655D01*
X20272734Y13292279D01*
X20273352Y13289944D01*
X20273477Y13287492D01*
X20275652Y13281253D01*
X20275653Y13281249D01*
X20297736Y13217902D01*
X20298187Y13216586D01*
X20307638Y13188478D01*
X20308590Y13186588D01*
X20308920Y13185727D01*
X20309080Y13185361D01*
X20310681Y13180768D01*
X20325184Y13153571D01*
X20326532Y13150970D01*
X20357055Y13090377D01*
X20360459Y13086732D01*
X20363301Y13082090D01*
X20381685Y13047613D01*
X20387124Y13034156D01*
X20387126Y13034157D01*
X20390792Y13025962D01*
X20393258Y13017333D01*
X20398046Y13009744D01*
X20398048Y13009740D01*
X20420341Y12974409D01*
X20424951Y12966475D01*
X20431061Y12955018D01*
X20431063Y12955015D01*
X20676785Y12494205D01*
X20677667Y12492521D01*
X20694739Y12459308D01*
X20697185Y12455949D01*
X20697668Y12455042D01*
X20699005Y12453216D01*
X20699006Y12453215D01*
X20727039Y12414939D01*
X20727252Y12414647D01*
X21171311Y11804659D01*
X21172844Y11802505D01*
X21192663Y11774044D01*
X21196023Y11770527D01*
X21196406Y11770059D01*
X21196899Y11769510D01*
X21198091Y11767873D01*
X21201206Y11764670D01*
X21201207Y11764669D01*
X21224649Y11740566D01*
X21225416Y11739770D01*
X21751808Y11188945D01*
X21752361Y11188362D01*
X21756403Y11184078D01*
X21756152Y11183841D01*
X21757310Y11183003D01*
X21757367Y11183057D01*
X21763401Y11176661D01*
X21778961Y11160167D01*
X21778965Y11160164D01*
X21782304Y11156624D01*
X21786149Y11153640D01*
X21805271Y11138798D01*
X21805273Y11138796D01*
X21806908Y11137527D01*
X21807485Y11137077D01*
X21822207Y11125513D01*
X21827782Y11120868D01*
X21866896Y11086324D01*
X21875023Y11082509D01*
X21882523Y11077582D01*
X21882301Y11077244D01*
X21893084Y11070641D01*
X22395296Y10680845D01*
X22397304Y10679253D01*
X22424329Y10657364D01*
X22428543Y10654916D01*
X22429071Y10654552D01*
X22429592Y10654227D01*
X22431152Y10653016D01*
X22464631Y10633945D01*
X22465312Y10633554D01*
X22536168Y10592387D01*
X22709838Y10491486D01*
X22716758Y10487160D01*
X22728801Y10479077D01*
X22728807Y10479074D01*
X22732850Y10476360D01*
X22737263Y10474300D01*
X22737269Y10474297D01*
X22743103Y10471574D01*
X22753106Y10466347D01*
X22756299Y10464492D01*
X22756309Y10464487D01*
X22760182Y10462237D01*
X22764339Y10460557D01*
X22778960Y10454648D01*
X22785035Y10452005D01*
X23245401Y10237149D01*
X23252902Y10233339D01*
X23269297Y10224308D01*
X23273859Y10222648D01*
X23273863Y10222646D01*
X23277732Y10221238D01*
X23280544Y10220215D01*
X23290734Y10215992D01*
X23298737Y10212257D01*
X23303028Y10210956D01*
X23303033Y10210954D01*
X23317468Y10206577D01*
X23323994Y10204402D01*
X23811601Y10026949D01*
X23817394Y10024677D01*
X23839947Y10015180D01*
X23844677Y10014002D01*
X23844680Y10014001D01*
X23846177Y10013628D01*
X23854393Y10011118D01*
X23857670Y10010183D01*
X23861891Y10008647D01*
X23886834Y10003414D01*
X23891367Y10002374D01*
X24299277Y9900786D01*
X24332681Y9892467D01*
X24336899Y9891339D01*
X24365307Y9883208D01*
X24370140Y9882604D01*
X24370615Y9882507D01*
X24375127Y9881831D01*
X24376004Y9881678D01*
X24380348Y9880596D01*
X24384800Y9880141D01*
X24384806Y9880140D01*
X24411110Y9877452D01*
X24413922Y9877133D01*
X24485677Y9868167D01*
X24550792Y9839873D01*
X24571455Y9817931D01*
X26697405Y6935633D01*
X26721744Y6868939D01*
X26706161Y6799673D01*
X26655604Y6749828D01*
X26607862Y6735400D01*
X26581448Y6732903D01*
X26572514Y6732059D01*
X26560657Y6731500D01*
X14859567Y6731500D01*
X14791446Y6751502D01*
X14760617Y6779494D01*
X14684719Y6875770D01*
X14649925Y6919906D01*
X14457385Y7101030D01*
X14405680Y7136899D01*
X14361110Y7192163D01*
X14351500Y7240427D01*
X14351500Y7455500D01*
X14371502Y7523621D01*
X14425158Y7570114D01*
X14477500Y7581500D01*
X14783134Y7581500D01*
X14845316Y7588255D01*
X14981705Y7639385D01*
X15098261Y7726739D01*
X15185615Y7843295D01*
X15236745Y7979684D01*
X15243500Y8041866D01*
X15243500Y9738134D01*
X15236745Y9800316D01*
X15185615Y9936705D01*
X15098261Y10053261D01*
X14981705Y10140615D01*
X14845316Y10191745D01*
X14783134Y10198500D01*
X14477500Y10198500D01*
X14409379Y10218502D01*
X14362886Y10272158D01*
X14351500Y10324500D01*
X14351500Y11265500D01*
X14371502Y11333621D01*
X14425158Y11380114D01*
X14477500Y11391500D01*
X14783134Y11391500D01*
X14845316Y11398255D01*
X14981705Y11449385D01*
X15098261Y11536739D01*
X15185615Y11653295D01*
X15236745Y11789684D01*
X15243500Y11851866D01*
X15243500Y13548134D01*
X15236745Y13610316D01*
X15185615Y13746705D01*
X15098261Y13863261D01*
X14981705Y13950615D01*
X14845316Y14001745D01*
X14783134Y14008500D01*
X11886866Y14008500D01*
X11824684Y14001745D01*
X11688295Y13950615D01*
X11571739Y13863261D01*
X11484385Y13746705D01*
X11433255Y13610316D01*
X11426500Y13548134D01*
X11426500Y11851866D01*
X11433255Y11789684D01*
X11484385Y11653295D01*
X11571739Y11536739D01*
X11688295Y11449385D01*
X11824684Y11398255D01*
X11886866Y11391500D01*
X12192500Y11391500D01*
X12260621Y11371498D01*
X12307114Y11317842D01*
X12318500Y11265500D01*
X12318500Y10324500D01*
X12298498Y10256379D01*
X12244842Y10209886D01*
X12192500Y10198500D01*
X11886866Y10198500D01*
X11824684Y10191745D01*
X11688295Y10140615D01*
X11571739Y10053261D01*
X11566358Y10046081D01*
X11566357Y10046080D01*
X11510089Y9971002D01*
X11453230Y9928487D01*
X11382411Y9923461D01*
X11320118Y9957521D01*
X11286128Y10019853D01*
X11284408Y10029622D01*
X11282175Y10046080D01*
X9715500Y21590000D01*
X11421502Y21590000D01*
X11441457Y21361913D01*
X11442881Y21356600D01*
X11442881Y21356598D01*
X11464905Y21274406D01*
X11500716Y21140757D01*
X11503039Y21135776D01*
X11503039Y21135775D01*
X11595151Y20938238D01*
X11595154Y20938233D01*
X11597477Y20933251D01*
X11728802Y20745700D01*
X11890700Y20583802D01*
X11895208Y20580645D01*
X11895211Y20580643D01*
X11901955Y20575921D01*
X12078251Y20452477D01*
X12083233Y20450154D01*
X12083238Y20450151D01*
X12239654Y20377214D01*
X12285757Y20355716D01*
X12291065Y20354294D01*
X12291067Y20354293D01*
X12501598Y20297881D01*
X12501600Y20297881D01*
X12506913Y20296457D01*
X12606480Y20287746D01*
X12675149Y20281738D01*
X12675156Y20281738D01*
X12677873Y20281500D01*
X13992127Y20281500D01*
X13994844Y20281738D01*
X13994851Y20281738D01*
X14063520Y20287746D01*
X14163087Y20296457D01*
X14168400Y20297881D01*
X14168402Y20297881D01*
X14378933Y20354293D01*
X14378935Y20354294D01*
X14384243Y20355716D01*
X14430346Y20377214D01*
X14586762Y20450151D01*
X14586767Y20450154D01*
X14591749Y20452477D01*
X14768045Y20575921D01*
X14774789Y20580643D01*
X14774792Y20580645D01*
X14779300Y20583802D01*
X14941198Y20745700D01*
X15072523Y20933251D01*
X15074846Y20938233D01*
X15074849Y20938238D01*
X15166961Y21135775D01*
X15166961Y21135776D01*
X15169284Y21140757D01*
X15205096Y21274406D01*
X15227119Y21356598D01*
X15227119Y21356600D01*
X15228543Y21361913D01*
X15248498Y21590000D01*
X15228543Y21818087D01*
X15222467Y21840764D01*
X15170707Y22033933D01*
X15170706Y22033935D01*
X15169284Y22039243D01*
X15079263Y22232295D01*
X15074849Y22241762D01*
X15074846Y22241767D01*
X15072523Y22246749D01*
X14941198Y22434300D01*
X14779300Y22596198D01*
X14774792Y22599355D01*
X14774789Y22599357D01*
X14696611Y22654098D01*
X14591749Y22727523D01*
X14586767Y22729846D01*
X14586762Y22729849D01*
X14389225Y22821961D01*
X14389224Y22821961D01*
X14384243Y22824284D01*
X14378935Y22825706D01*
X14378933Y22825707D01*
X14168402Y22882119D01*
X14168400Y22882119D01*
X14163087Y22883543D01*
X14063520Y22892254D01*
X13994851Y22898262D01*
X13994844Y22898262D01*
X13992127Y22898500D01*
X12677873Y22898500D01*
X12675156Y22898262D01*
X12675149Y22898262D01*
X12606480Y22892254D01*
X12506913Y22883543D01*
X12501600Y22882119D01*
X12501598Y22882119D01*
X12291067Y22825707D01*
X12291065Y22825706D01*
X12285757Y22824284D01*
X12280776Y22821961D01*
X12280775Y22821961D01*
X12083238Y22729849D01*
X12083233Y22729846D01*
X12078251Y22727523D01*
X11973389Y22654098D01*
X11895211Y22599357D01*
X11895208Y22599355D01*
X11890700Y22596198D01*
X11728802Y22434300D01*
X11597477Y22246749D01*
X11595154Y22241767D01*
X11595151Y22241762D01*
X11590737Y22232295D01*
X11500716Y22039243D01*
X11499294Y22033935D01*
X11499293Y22033933D01*
X11447533Y21840764D01*
X11441457Y21818087D01*
X11421502Y21590000D01*
X9715500Y21590000D01*
X8528985Y30332742D01*
X8539644Y30402934D01*
X8586560Y30456220D01*
X8614902Y30469519D01*
X8844266Y30544044D01*
X8847852Y30545731D01*
X8847856Y30545733D01*
X8993827Y30614422D01*
X9077156Y30653633D01*
X9147309Y30664539D01*
X9212222Y30635786D01*
G37*
%TD.AperFunction*%
%TA.AperFunction,NonConductor*%
G36*
X30759353Y1410766D02*
G01*
X30797840Y1376389D01*
X31008862Y1090292D01*
X31033201Y1023598D01*
X31017618Y954332D01*
X30967061Y904487D01*
X30907461Y889500D01*
X29966536Y889500D01*
X29898415Y909502D01*
X29851922Y963158D01*
X29841818Y1033432D01*
X29871312Y1098012D01*
X29931038Y1136396D01*
X29950526Y1140479D01*
X30083847Y1157558D01*
X30088795Y1159043D01*
X30088802Y1159044D01*
X30300747Y1222631D01*
X30305690Y1224114D01*
X30386236Y1263573D01*
X30509049Y1323738D01*
X30509052Y1323740D01*
X30513684Y1326009D01*
X30584315Y1376389D01*
X30623271Y1404176D01*
X30690344Y1427450D01*
X30759353Y1410766D01*
G37*
%TD.AperFunction*%
%TA.AperFunction,NonConductor*%
G36*
X26209883Y4678498D02*
G01*
X26230857Y4661595D01*
X28346782Y2545670D01*
X28380808Y2483358D01*
X28383478Y2463828D01*
X28390427Y2343303D01*
X28441346Y2117358D01*
X28443288Y2112576D01*
X28443289Y2112572D01*
X28526540Y1907550D01*
X28528484Y1902763D01*
X28649501Y1705281D01*
X28801147Y1530216D01*
X28979349Y1382270D01*
X29179322Y1265416D01*
X29395694Y1182791D01*
X29400760Y1181760D01*
X29400761Y1181760D01*
X29611076Y1138971D01*
X29673842Y1105789D01*
X29708704Y1043941D01*
X29704595Y973064D01*
X29662818Y915659D01*
X29596639Y889954D01*
X29585956Y889500D01*
X12634908Y889500D01*
X12566787Y909502D01*
X12520294Y963158D01*
X12510053Y998555D01*
X12080356Y4164748D01*
X12091015Y4234940D01*
X12137931Y4288226D01*
X12206208Y4307689D01*
X12279715Y4283305D01*
X12389896Y4202517D01*
X12394031Y4200341D01*
X12394035Y4200339D01*
X12461683Y4164748D01*
X12623836Y4079435D01*
X12873400Y3992284D01*
X12877993Y3991412D01*
X13128515Y3943849D01*
X13128518Y3943849D01*
X13133104Y3942978D01*
X13265173Y3937789D01*
X13392575Y3932782D01*
X13392581Y3932782D01*
X13397243Y3932599D01*
X13660015Y3961378D01*
X13664526Y3962566D01*
X13664528Y3962566D01*
X13911124Y4027489D01*
X13911126Y4027490D01*
X13915647Y4028680D01*
X14030191Y4077892D01*
X14154229Y4131183D01*
X14154231Y4131184D01*
X14158523Y4133028D01*
X14300918Y4221145D01*
X14379332Y4269669D01*
X14379334Y4269670D01*
X14383307Y4272129D01*
X14585063Y4442927D01*
X14759356Y4641671D01*
X14761887Y4645606D01*
X14763939Y4648329D01*
X14820910Y4690695D01*
X14864567Y4698500D01*
X26141762Y4698500D01*
X26209883Y4678498D01*
G37*
%TD.AperFunction*%
%TA.AperFunction,NonConductor*%
G36*
X6460407Y30824198D02*
G01*
X6483780Y30816407D01*
X6511441Y30803262D01*
X6708131Y30678438D01*
X6711710Y30676754D01*
X6711717Y30676750D01*
X6990144Y30545733D01*
X6990148Y30545731D01*
X6993734Y30544044D01*
X7293928Y30446505D01*
X7384932Y30429145D01*
X7448098Y30396733D01*
X7483713Y30335316D01*
X7487257Y30301329D01*
X6545797Y1011452D01*
X6523617Y944009D01*
X6468495Y899264D01*
X6419862Y889500D01*
X2968367Y889500D01*
X2948982Y891000D01*
X2934149Y893310D01*
X2934145Y893310D01*
X2925276Y894691D01*
X2908988Y892561D01*
X2884411Y891767D01*
X2839801Y894691D01*
X2667299Y905998D01*
X2650959Y908149D01*
X2470677Y944009D01*
X2411657Y955749D01*
X2395743Y960013D01*
X2244209Y1011452D01*
X2164708Y1038439D01*
X2149481Y1044746D01*
X1930658Y1152657D01*
X1916384Y1160898D01*
X1713522Y1296447D01*
X1700447Y1306480D01*
X1517007Y1467352D01*
X1505352Y1479007D01*
X1344480Y1662447D01*
X1334447Y1675522D01*
X1198898Y1878384D01*
X1190657Y1892658D01*
X1082746Y2111481D01*
X1076439Y2126708D01*
X998014Y2357740D01*
X993748Y2373660D01*
X946149Y2612959D01*
X943998Y2629299D01*
X930476Y2835593D01*
X931650Y2858768D01*
X931334Y2858796D01*
X931770Y2863656D01*
X932576Y2868448D01*
X932729Y2881000D01*
X928773Y2908624D01*
X927500Y2926486D01*
X927500Y8781387D01*
X947502Y8849508D01*
X1001158Y8896001D01*
X1032812Y8905677D01*
X1192796Y8932306D01*
X1461375Y8977010D01*
X1572980Y9005977D01*
X1890467Y9088380D01*
X1890478Y9088383D01*
X1893185Y9089086D01*
X2161559Y9184913D01*
X2310680Y9238159D01*
X2310685Y9238161D01*
X2313323Y9239103D01*
X2315863Y9240274D01*
X2315868Y9240276D01*
X2598906Y9370759D01*
X2718462Y9425875D01*
X2720890Y9427269D01*
X2720899Y9427273D01*
X2731787Y9433521D01*
X2800826Y9450078D01*
X2867857Y9426681D01*
X2911597Y9370759D01*
X2920500Y9324237D01*
X2920500Y7243374D01*
X2900498Y7175253D01*
X2863586Y7138003D01*
X2855193Y7132500D01*
X2855186Y7132495D01*
X2851282Y7129935D01*
X2654067Y6953914D01*
X2485036Y6750676D01*
X2347901Y6524686D01*
X2245677Y6280909D01*
X2244526Y6276377D01*
X2244525Y6276374D01*
X2233226Y6231884D01*
X2180608Y6024699D01*
X2154124Y5761686D01*
X2154348Y5757020D01*
X2154348Y5757015D01*
X2156518Y5711840D01*
X2166807Y5497648D01*
X2218378Y5238384D01*
X2219957Y5233986D01*
X2219959Y5233979D01*
X2306121Y4993999D01*
X2307704Y4989590D01*
X2309921Y4985464D01*
X2377301Y4860064D01*
X2432822Y4756733D01*
X2435617Y4752989D01*
X2435619Y4752987D01*
X2518743Y4641671D01*
X2590985Y4544927D01*
X2594292Y4541649D01*
X2594297Y4541643D01*
X2693879Y4442927D01*
X2778718Y4358826D01*
X2991896Y4202517D01*
X2996031Y4200341D01*
X2996035Y4200339D01*
X3119293Y4135490D01*
X3225836Y4079435D01*
X3475400Y3992284D01*
X3479993Y3991412D01*
X3730515Y3943849D01*
X3730518Y3943849D01*
X3735104Y3942978D01*
X3867173Y3937789D01*
X3994575Y3932782D01*
X3994581Y3932782D01*
X3999243Y3932599D01*
X4262015Y3961378D01*
X4266526Y3962566D01*
X4266528Y3962566D01*
X4513124Y4027489D01*
X4513126Y4027490D01*
X4517647Y4028680D01*
X4632191Y4077892D01*
X4756229Y4131183D01*
X4756231Y4131184D01*
X4760523Y4133028D01*
X4985307Y4272129D01*
X5001788Y4286081D01*
X5183496Y4439907D01*
X5183498Y4439909D01*
X5187063Y4442927D01*
X5361356Y4641671D01*
X5435367Y4756733D01*
X5501831Y4860064D01*
X5504359Y4863994D01*
X5612930Y5105012D01*
X5684683Y5359430D01*
X5718043Y5621660D01*
X5720487Y5715000D01*
X5700897Y5978616D01*
X5642557Y6236441D01*
X5627028Y6276374D01*
X5548442Y6478458D01*
X5548441Y6478460D01*
X5546749Y6482811D01*
X5520535Y6528677D01*
X5417897Y6708255D01*
X5415578Y6712313D01*
X5251925Y6919906D01*
X5059385Y7101030D01*
X5007680Y7136899D01*
X4963110Y7192163D01*
X4953500Y7240427D01*
X4953500Y10732724D01*
X4954237Y10746332D01*
X4957697Y10778179D01*
X4957697Y10778183D01*
X4958362Y10784304D01*
X4953979Y10834403D01*
X4953500Y10845384D01*
X4953500Y11725826D01*
X4964799Y11777977D01*
X5069595Y12008462D01*
X5069600Y12008473D01*
X5070752Y12011008D01*
X5071674Y12013634D01*
X5071679Y12013646D01*
X5217637Y12429278D01*
X5218567Y12431925D01*
X5250602Y12558060D01*
X5327692Y12861603D01*
X5328381Y12864316D01*
X5349137Y12993177D01*
X5398876Y13301986D01*
X5398877Y13301993D01*
X5399322Y13304757D01*
X5427500Y13702730D01*
X5427500Y16994350D01*
X5412700Y17326676D01*
X5353312Y17768823D01*
X5254855Y18203940D01*
X5118108Y18628583D01*
X4944155Y19039388D01*
X4734371Y19433104D01*
X4732850Y19435433D01*
X4491944Y19804279D01*
X4491941Y19804283D01*
X4490420Y19806612D01*
X4407192Y19912187D01*
X4215960Y20154763D01*
X4215958Y20154765D01*
X4214231Y20156956D01*
X3907992Y20481361D01*
X3792407Y20583802D01*
X3576234Y20775393D01*
X3576227Y20775398D01*
X3574128Y20777259D01*
X3215282Y21042306D01*
X3014449Y21164655D01*
X2836684Y21272951D01*
X2836677Y21272955D01*
X2834295Y21274406D01*
X2486737Y21445802D01*
X2434489Y21493869D01*
X2416522Y21562555D01*
X2426464Y21607995D01*
X6304566Y30753850D01*
X6349574Y30808757D01*
X6417122Y30830615D01*
X6460407Y30824198D01*
G37*
%TD.AperFunction*%
%TA.AperFunction,NonConductor*%
G36*
X5447727Y32110284D02*
G01*
X5497871Y32057258D01*
X5801707Y31449586D01*
X5814281Y31379712D01*
X5787082Y31314132D01*
X5778772Y31304814D01*
X1143263Y26599070D01*
X1081208Y26564577D01*
X1010356Y26569110D01*
X953202Y26611228D01*
X927892Y26677560D01*
X927500Y26687493D01*
X927500Y30327750D01*
X929246Y30348655D01*
X931770Y30363656D01*
X931770Y30363659D01*
X932576Y30368448D01*
X932729Y30381000D01*
X932040Y30385812D01*
X932039Y30385826D01*
X930138Y30399098D01*
X928945Y30421458D01*
X945154Y30875275D01*
X945796Y30884246D01*
X998182Y31371518D01*
X999462Y31380422D01*
X1016007Y31472127D01*
X1076395Y31806828D01*
X1108173Y31870314D01*
X1169231Y31906541D01*
X1193879Y31910286D01*
X3717118Y32040799D01*
X5378664Y32126741D01*
X5447727Y32110284D01*
G37*
%TD.AperFunction*%
%TA.AperFunction,NonConductor*%
G36*
X3615338Y35791670D02*
G01*
X3646118Y35769969D01*
X5539954Y33955044D01*
X5575297Y33893469D01*
X5577060Y33843359D01*
X5561085Y33747510D01*
X5553951Y33721840D01*
X5528557Y33657702D01*
X5450060Y33351975D01*
X5442909Y33295365D01*
X5414528Y33230291D01*
X5355468Y33190889D01*
X5288338Y33188677D01*
X2105927Y33956845D01*
X2044402Y33992272D01*
X2011797Y34055339D01*
X2018464Y34126022D01*
X2027130Y34143621D01*
X2035080Y34157020D01*
X2039943Y34164587D01*
X2319451Y34567155D01*
X2324841Y34574355D01*
X2632350Y34955951D01*
X2638240Y34962749D01*
X2972197Y35321443D01*
X2978557Y35327803D01*
X3337251Y35661760D01*
X3344049Y35667650D01*
X3479877Y35777107D01*
X3545469Y35804276D01*
X3615338Y35791670D01*
G37*
%TD.AperFunction*%
%TA.AperFunction,NonConductor*%
G36*
X6577100Y37218421D02*
G01*
X6632381Y37173873D01*
X6654189Y37115203D01*
X6712758Y36558803D01*
X6849590Y35258899D01*
X6836829Y35189059D01*
X6789108Y35137665D01*
X6323210Y34858126D01*
X6254506Y34840230D01*
X6187034Y34862319D01*
X6155516Y34893409D01*
X5673899Y35574316D01*
X4977553Y36558805D01*
X4954546Y36625969D01*
X4971504Y36694911D01*
X5023042Y36743740D01*
X5032204Y36747973D01*
X5076840Y36766462D01*
X5471576Y36929967D01*
X5479980Y36933102D01*
X5945002Y37087875D01*
X5953622Y37090407D01*
X6428491Y37211609D01*
X6437279Y37213521D01*
X6506510Y37226011D01*
X6577100Y37218421D01*
G37*
%TD.AperFunction*%
%TA.AperFunction,NonConductor*%
G36*
X8413275Y37354846D02*
G01*
X8422246Y37354204D01*
X8909518Y37301818D01*
X8918422Y37300538D01*
X9159572Y37257029D01*
X9400725Y37213520D01*
X9409509Y37211609D01*
X9884378Y37090407D01*
X9892991Y37087878D01*
X9898410Y37086074D01*
X9956726Y37045583D01*
X9983895Y36979991D01*
X9971289Y36910122D01*
X9965469Y36899750D01*
X8974543Y35314268D01*
X8954687Y35282499D01*
X8901621Y35235334D01*
X8831480Y35224345D01*
X8808903Y35229446D01*
X8547848Y35314268D01*
X8547850Y35314268D01*
X8544072Y35315495D01*
X8234020Y35374641D01*
X8076351Y35384560D01*
X8053713Y35388072D01*
X7974818Y35407795D01*
X7913583Y35443722D01*
X7881492Y35507052D01*
X7879559Y35536773D01*
X7971168Y37246802D01*
X7994786Y37313756D01*
X8050852Y37357312D01*
X8101485Y37365982D01*
X8413275Y37354846D01*
G37*
%TD.AperFunction*%
%TA.AperFunction,NonConductor*%
G36*
X11460882Y36400215D02*
G01*
X11486429Y36388683D01*
X11695020Y36264920D01*
X11702587Y36260057D01*
X12105155Y35980549D01*
X12112355Y35975159D01*
X12493951Y35667650D01*
X12500749Y35661760D01*
X12859443Y35327803D01*
X12865803Y35321443D01*
X13163561Y35001629D01*
X13195340Y34938142D01*
X13187751Y34867552D01*
X13143203Y34812271D01*
X13091728Y34791431D01*
X10113161Y34303141D01*
X10042702Y34311859D01*
X9987943Y34357586D01*
X9833747Y34588879D01*
X9812605Y34656652D01*
X9831460Y34725099D01*
X9845624Y34743821D01*
X11329172Y36365373D01*
X11389912Y36402131D01*
X11460882Y36400215D01*
G37*
%TD.AperFunction*%
M02*
