%TF.GenerationSoftware,KiCad,Pcbnew,(5.1.10)-1*%
%TF.CreationDate,2021-07-04T12:46:57+01:00*%
%TF.ProjectId,SolderSolar,536f6c64-6572-4536-9f6c-61722e6b6963,rev?*%
%TF.SameCoordinates,PX6350ce0PY463f660*%
%TF.FileFunction,Copper,L1,Top*%
%TF.FilePolarity,Positive*%
%FSLAX46Y46*%
G04 Gerber Fmt 4.6, Leading zero omitted, Abs format (unit mm)*
G04 Created by KiCad (PCBNEW (5.1.10)-1) date 2021-07-04 12:46:57*
%MOMM*%
%LPD*%
G01*
G04 APERTURE LIST*
%TA.AperFunction,EtchedComponent*%
%ADD10C,0.010000*%
%TD*%
%TA.AperFunction,ComponentPad*%
%ADD11C,2.032000*%
%TD*%
%TA.AperFunction,ComponentPad*%
%ADD12R,2.032000X2.032000*%
%TD*%
%TA.AperFunction,ComponentPad*%
%ADD13C,1.800000*%
%TD*%
%TA.AperFunction,ComponentPad*%
%ADD14O,2.800000X1.600000*%
%TD*%
%TA.AperFunction,ComponentPad*%
%ADD15R,2.800000X1.600000*%
%TD*%
%TA.AperFunction,ComponentPad*%
%ADD16C,2.540000*%
%TD*%
%TA.AperFunction,SMDPad,CuDef*%
%ADD17C,0.010000*%
%TD*%
%TA.AperFunction,ComponentPad*%
%ADD18O,9.000000X12.000000*%
%TD*%
%TA.AperFunction,Conductor*%
%ADD19C,1.016000*%
%TD*%
%TA.AperFunction,Conductor*%
%ADD20C,0.300000*%
%TD*%
%TA.AperFunction,Conductor*%
%ADD21C,0.500000*%
%TD*%
%TA.AperFunction,NonConductor*%
%ADD22C,0.254000*%
%TD*%
%TA.AperFunction,NonConductor*%
%ADD23C,0.500000*%
%TD*%
G04 APERTURE END LIST*
D10*
%TO.C,P2*%
G36*
X25630092Y20062486D02*
G01*
X26192908Y20017429D01*
X26667235Y19928807D01*
X26740706Y19907542D01*
X27557578Y19568299D01*
X28306366Y19088203D01*
X28836072Y18612761D01*
X29295128Y18084669D01*
X29641358Y17562757D01*
X29915748Y16982380D01*
X29985661Y16799568D01*
X30094208Y16374991D01*
X30161463Y15842005D01*
X30186724Y15256601D01*
X30169288Y14674766D01*
X30108454Y14152491D01*
X30023268Y13800667D01*
X29651352Y12933657D01*
X29158998Y12177171D01*
X28553541Y11539797D01*
X27842312Y11030122D01*
X27505847Y10852390D01*
X27127794Y10685722D01*
X26745020Y10539788D01*
X26424552Y10439533D01*
X26348332Y10421628D01*
X25990714Y10373357D01*
X25538732Y10347038D01*
X25066094Y10343998D01*
X24646508Y10365564D01*
X24468666Y10387786D01*
X24002855Y10503794D01*
X23482494Y10693168D01*
X22986263Y10924762D01*
X22716875Y11081273D01*
X22151718Y11519924D01*
X22606000Y11519924D01*
X22676788Y11449492D01*
X22866380Y11327474D01*
X23140614Y11174915D01*
X23293137Y11096590D01*
X23657528Y10921621D01*
X23927621Y10806920D01*
X24089182Y10756971D01*
X24127980Y10776259D01*
X24040224Y10861193D01*
X23903753Y10970597D01*
X23824248Y11035426D01*
X24474106Y11035426D01*
X24531397Y10898817D01*
X24641298Y10768632D01*
X24790337Y10647720D01*
X24932111Y10586979D01*
X25021631Y10596067D01*
X25020264Y10611756D01*
X25760409Y10611756D01*
X25802507Y10593848D01*
X25858702Y10611279D01*
X26045329Y10660830D01*
X26118202Y10668000D01*
X26237498Y10716093D01*
X26438601Y10840090D01*
X26549702Y10917855D01*
X26911351Y10917855D01*
X26925151Y10890793D01*
X27037851Y10922532D01*
X27051000Y10927157D01*
X27283427Y11026897D01*
X27563446Y11169799D01*
X27660457Y11224558D01*
X27936293Y11400355D01*
X28057844Y11517826D01*
X28027950Y11581769D01*
X27881496Y11597592D01*
X27641535Y11526632D01*
X27332671Y11313404D01*
X27220333Y11216529D01*
X27006421Y11020754D01*
X26911351Y10917855D01*
X26549702Y10917855D01*
X26680736Y11009572D01*
X26923129Y11194119D01*
X27125007Y11363312D01*
X27245597Y11486730D01*
X27262666Y11521844D01*
X27187142Y11568749D01*
X26996770Y11596292D01*
X26894920Y11599334D01*
X26678331Y11586663D01*
X26518297Y11527409D01*
X26359046Y11389708D01*
X26190977Y11197167D01*
X25945686Y10897620D01*
X25805149Y10707748D01*
X25760409Y10611756D01*
X25020264Y10611756D01*
X25013908Y10684645D01*
X25011401Y10689167D01*
X24877805Y10877738D01*
X24721586Y11037258D01*
X24588855Y11124900D01*
X24541026Y11126061D01*
X24474106Y11035426D01*
X23824248Y11035426D01*
X23691294Y11143836D01*
X23523504Y11281834D01*
X23193333Y11509380D01*
X23090854Y11542000D01*
X23537333Y11542000D01*
X23596398Y11457023D01*
X23744525Y11312503D01*
X23812500Y11253654D01*
X23985547Y11115491D01*
X24070722Y11081615D01*
X24106791Y11143901D01*
X24115528Y11190145D01*
X24116978Y11391541D01*
X24097019Y11478491D01*
X24058566Y11507750D01*
X24638000Y11507750D01*
X24685861Y11407433D01*
X24805633Y11229782D01*
X24961600Y11021282D01*
X25118043Y10828423D01*
X25239245Y10697691D01*
X25283199Y10668000D01*
X25300802Y10744603D01*
X25312474Y10942194D01*
X25315333Y11133667D01*
X25315333Y11599334D01*
X25484666Y11599334D01*
X25488460Y11112500D01*
X25492254Y10625667D01*
X25869460Y11046682D01*
X26060959Y11269596D01*
X26196726Y11445147D01*
X26246666Y11533515D01*
X26170958Y11572776D01*
X25979417Y11596320D01*
X25865666Y11599334D01*
X25484666Y11599334D01*
X25315333Y11599334D01*
X24976666Y11599334D01*
X24764498Y11579022D01*
X24646603Y11528259D01*
X24638000Y11507750D01*
X24058566Y11507750D01*
X24004317Y11549027D01*
X23835297Y11592738D01*
X23659992Y11601678D01*
X23548440Y11567900D01*
X23537333Y11542000D01*
X23090854Y11542000D01*
X22916739Y11597422D01*
X22872446Y11599334D01*
X22688774Y11577319D01*
X22606337Y11523928D01*
X22606000Y11519924D01*
X22151718Y11519924D01*
X22128751Y11537750D01*
X21591538Y12099899D01*
X21133426Y12729189D01*
X20866818Y13229167D01*
X21166983Y13229167D01*
X21221525Y13072396D01*
X21364001Y12833103D01*
X21564223Y12550092D01*
X21791998Y12262169D01*
X22017137Y12008136D01*
X22209450Y11826800D01*
X22306343Y11764705D01*
X22522144Y11708657D01*
X22755227Y11690382D01*
X22930318Y11713324D01*
X22966907Y11734464D01*
X22949774Y11824797D01*
X22853198Y12006151D01*
X22739663Y12178964D01*
X22537561Y12481132D01*
X22340688Y12799562D01*
X22264387Y12932834D01*
X22140949Y13141763D01*
X22101619Y13178794D01*
X22352000Y13178794D01*
X22398288Y13047777D01*
X22519069Y12823784D01*
X22687213Y12549289D01*
X22875591Y12266766D01*
X23057074Y12018691D01*
X23198437Y11853563D01*
X23413938Y11728669D01*
X23667473Y11701284D01*
X23891447Y11770490D01*
X23975560Y11852542D01*
X24867104Y11852542D01*
X24888657Y11728262D01*
X25047158Y11695559D01*
X25090489Y11700325D01*
X25193449Y11734158D01*
X25251260Y11825844D01*
X25279242Y12016513D01*
X25286356Y12169106D01*
X25483959Y12169106D01*
X25492513Y11908565D01*
X25535354Y11748479D01*
X25545014Y11736542D01*
X25659335Y11705290D01*
X25877659Y11696634D01*
X25989514Y11701264D01*
X26183913Y11719130D01*
X26317140Y11763286D01*
X26351281Y11795699D01*
X26718578Y11795699D01*
X26720044Y11756191D01*
X26834653Y11703779D01*
X27045996Y11686176D01*
X27285244Y11702644D01*
X27483570Y11752445D01*
X27509152Y11764646D01*
X27520173Y11774316D01*
X27855333Y11774316D01*
X27918506Y11690722D01*
X28077627Y11689526D01*
X28287094Y11760184D01*
X28501308Y11892154D01*
X28552497Y11935519D01*
X28715695Y12090175D01*
X28761178Y12164088D01*
X28699169Y12187450D01*
X28638500Y12189519D01*
X28484796Y12239851D01*
X28448000Y12319000D01*
X28407622Y12431749D01*
X28373382Y12446000D01*
X28277714Y12382447D01*
X28136618Y12227889D01*
X27991861Y12036480D01*
X27885208Y11862374D01*
X27855333Y11774316D01*
X27520173Y11774316D01*
X27633730Y11873951D01*
X27809473Y12079197D01*
X27979079Y12308813D01*
X28148036Y12562678D01*
X28231541Y12729100D01*
X28243586Y12857693D01*
X28198162Y12998071D01*
X28183158Y13032501D01*
X28093082Y13194840D01*
X27973344Y13270697D01*
X27762513Y13292080D01*
X27683866Y13292667D01*
X27299735Y13292667D01*
X26987582Y12560524D01*
X26856422Y12235224D01*
X26762527Y11967573D01*
X26718578Y11795699D01*
X26351281Y11795699D01*
X26425305Y11865974D01*
X26544516Y12059439D01*
X26681327Y12319000D01*
X26887740Y12718572D01*
X27013378Y12990617D01*
X27052113Y13159601D01*
X26997813Y13249991D01*
X26844350Y13286254D01*
X26585594Y13292855D01*
X26437386Y13292667D01*
X25770029Y13292667D01*
X25627347Y12993461D01*
X25555045Y12767554D01*
X25506026Y12474102D01*
X25483959Y12169106D01*
X25286356Y12169106D01*
X25289397Y12234334D01*
X25293267Y12495649D01*
X25281065Y12600350D01*
X25250355Y12560606D01*
X25233825Y12511768D01*
X25126903Y12275215D01*
X24985748Y12057316D01*
X24867104Y11852542D01*
X23975560Y11852542D01*
X23987561Y11864248D01*
X24013821Y11983477D01*
X23974298Y12179370D01*
X23861649Y12481074D01*
X23790299Y12647415D01*
X23574917Y13137513D01*
X23771638Y13137513D01*
X23825183Y12957742D01*
X23891980Y12784667D01*
X23996430Y12550408D01*
X24078587Y12396673D01*
X24110102Y12361334D01*
X24126029Y12435822D01*
X24115822Y12622869D01*
X24105234Y12712203D01*
X24021194Y13017799D01*
X23874840Y13181798D01*
X23774858Y13206704D01*
X23771638Y13137513D01*
X23574917Y13137513D01*
X23506731Y13292667D01*
X22929365Y13292667D01*
X22601564Y13282859D01*
X22417598Y13250209D01*
X22352930Y13189876D01*
X22352000Y13178794D01*
X22101619Y13178794D01*
X22027567Y13248515D01*
X21862518Y13287383D01*
X21616742Y13292667D01*
X21366660Y13281884D01*
X21203383Y13254156D01*
X21166983Y13229167D01*
X20866818Y13229167D01*
X20782607Y13387089D01*
X20572346Y14012381D01*
X20509905Y14437414D01*
X20482937Y14962934D01*
X20485590Y15165064D01*
X20717938Y15165064D01*
X20769193Y14616182D01*
X20816980Y14271815D01*
X20887670Y13947880D01*
X20946904Y13764650D01*
X21033012Y13585192D01*
X21133206Y13495802D01*
X21304760Y13465198D01*
X21501013Y13462000D01*
X21743627Y13473310D01*
X21897925Y13502257D01*
X21927244Y13525500D01*
X21910674Y13631629D01*
X21867475Y13862777D01*
X21805395Y14178154D01*
X21770447Y14351000D01*
X21663731Y14874368D01*
X21844000Y14874368D01*
X21869688Y14625483D01*
X21935716Y14308942D01*
X22025531Y13985218D01*
X22122578Y13714779D01*
X22201672Y13567834D01*
X22342018Y13505176D01*
X22623505Y13469149D01*
X22874203Y13462000D01*
X23460339Y13462000D01*
X23404597Y13779500D01*
X23334106Y14174936D01*
X23297326Y14340391D01*
X23466217Y14340391D01*
X23487315Y14255828D01*
X23556836Y14162111D01*
X23641708Y14209843D01*
X23695998Y14325429D01*
X23640344Y14408856D01*
X23527548Y14468389D01*
X23485951Y14454841D01*
X23466217Y14340391D01*
X23297326Y14340391D01*
X23275087Y14440427D01*
X23207342Y14612372D01*
X23110673Y14727170D01*
X22964879Y14821222D01*
X22771808Y14919805D01*
X22528592Y15026458D01*
X23399384Y15026458D01*
X23401274Y15021409D01*
X23447835Y14830681D01*
X23452666Y14767409D01*
X23517917Y14672388D01*
X23664607Y14651825D01*
X23819137Y14712072D01*
X23843773Y14733641D01*
X23979410Y14763381D01*
X24209605Y14720892D01*
X24487002Y14626322D01*
X24764245Y14499826D01*
X24993980Y14361553D01*
X25128850Y14231655D01*
X25146000Y14179493D01*
X25192409Y14068224D01*
X25230666Y14054667D01*
X25274910Y14132425D01*
X25305201Y14338407D01*
X25315333Y14605000D01*
X25315333Y15155334D01*
X25484666Y15155334D01*
X25484666Y14576257D01*
X25489747Y14265979D01*
X25514192Y14080883D01*
X25571807Y13976911D01*
X25676398Y13910002D01*
X25696333Y13900739D01*
X25862710Y13764390D01*
X25908000Y13633149D01*
X25922654Y13545464D01*
X25990116Y13494129D01*
X26145633Y13469583D01*
X26424454Y13462265D01*
X26539020Y13462000D01*
X27170040Y13462000D01*
X27351566Y13462000D01*
X27772783Y13462000D01*
X28029064Y13472553D01*
X28155623Y13513367D01*
X28191259Y13598181D01*
X28191307Y13610167D01*
X28139589Y13795846D01*
X28138311Y13798034D01*
X29579576Y13798034D01*
X29595587Y13708578D01*
X29663019Y13660685D01*
X29726654Y13763954D01*
X29782656Y13936660D01*
X29796715Y14009310D01*
X29753366Y14023319D01*
X29665648Y13953935D01*
X29579576Y13798034D01*
X28138311Y13798034D01*
X28070122Y13914730D01*
X27994044Y14085405D01*
X27997206Y14189897D01*
X27992310Y14293679D01*
X27955983Y14308667D01*
X27804556Y14336961D01*
X27736434Y14359607D01*
X27621888Y14344825D01*
X27524584Y14194546D01*
X27436949Y13894570D01*
X27404375Y13737167D01*
X27351566Y13462000D01*
X27170040Y13462000D01*
X27258214Y13779500D01*
X27328803Y14071146D01*
X27336439Y14235262D01*
X27279453Y14302172D01*
X27229104Y14308667D01*
X27112553Y14361460D01*
X26959361Y14492223D01*
X26805443Y14659535D01*
X26721536Y14774334D01*
X29802666Y14774334D01*
X29845000Y14732000D01*
X29887333Y14774334D01*
X29845000Y14816667D01*
X29802666Y14774334D01*
X26721536Y14774334D01*
X26686715Y14821975D01*
X26639091Y14938121D01*
X26657624Y14967764D01*
X26713721Y15018797D01*
X29577770Y15018797D01*
X29591000Y14986000D01*
X29667082Y14905230D01*
X29680663Y14901334D01*
X29717029Y14966840D01*
X29718000Y14986000D01*
X29652912Y15067414D01*
X29628336Y15070667D01*
X29577770Y15018797D01*
X26713721Y15018797D01*
X26749655Y15051487D01*
X26754666Y15077723D01*
X26676925Y15114819D01*
X26471281Y15142261D01*
X26179101Y15154994D01*
X26119666Y15155334D01*
X25484666Y15155334D01*
X25315333Y15155334D01*
X24853650Y15155334D01*
X24547532Y15137068D01*
X24278414Y15090472D01*
X24174020Y15056030D01*
X23985458Y14999104D01*
X23863080Y15049893D01*
X23856770Y15056030D01*
X23698088Y15134759D01*
X23553674Y15155334D01*
X23407802Y15126668D01*
X23399384Y15026458D01*
X22528592Y15026458D01*
X22482173Y15046813D01*
X22216587Y15131923D01*
X22076833Y15153915D01*
X21917115Y15134594D01*
X21853885Y15039649D01*
X21844000Y14874368D01*
X21663731Y14874368D01*
X21615072Y15113000D01*
X20717938Y15165064D01*
X20485590Y15165064D01*
X20490311Y15524567D01*
X20492624Y15554964D01*
X20718497Y15554964D01*
X20739394Y15406865D01*
X20818192Y15325116D01*
X20819061Y15324606D01*
X21022329Y15262376D01*
X21281550Y15246567D01*
X21505209Y15279618D01*
X21560825Y15304844D01*
X21610381Y15412407D01*
X21626695Y15489236D01*
X21817937Y15489236D01*
X21857810Y15351114D01*
X21861873Y15345834D01*
X21979275Y15250267D01*
X22115733Y15282763D01*
X22172003Y15316285D01*
X22235879Y15391943D01*
X22220834Y15457320D01*
X22822062Y15457320D01*
X22822805Y15313945D01*
X22843913Y15284310D01*
X22976584Y15246362D01*
X23112375Y15325643D01*
X23183388Y15473699D01*
X23177515Y15525045D01*
X23368000Y15525045D01*
X23394461Y15357697D01*
X23452519Y15278850D01*
X23510186Y15320602D01*
X23524106Y15368398D01*
X23501122Y15543163D01*
X23460606Y15604594D01*
X23387729Y15635348D01*
X23368000Y15525045D01*
X23177515Y15525045D01*
X23166257Y15623468D01*
X23086582Y15649684D01*
X23718180Y15649684D01*
X23722829Y15447141D01*
X23839744Y15317755D01*
X23897166Y15299753D01*
X24250645Y15259873D01*
X24652986Y15254651D01*
X25005067Y15284676D01*
X25050750Y15292917D01*
X25315333Y15345834D01*
X25315333Y16138073D01*
X25484666Y16138073D01*
X25486744Y15747216D01*
X25508852Y15494636D01*
X25574797Y15349318D01*
X25708390Y15280249D01*
X25933439Y15256414D01*
X26166557Y15249822D01*
X26425354Y15261249D01*
X26612578Y15334911D01*
X26744176Y15449102D01*
X29316564Y15449102D01*
X29333518Y15414967D01*
X29414251Y15327434D01*
X29429102Y15389163D01*
X29408549Y15455319D01*
X29346216Y15547525D01*
X29318062Y15545618D01*
X29316564Y15449102D01*
X26744176Y15449102D01*
X26808952Y15505309D01*
X26841060Y15538116D01*
X27022003Y15749478D01*
X27102280Y15938122D01*
X27114678Y16185562D01*
X27113501Y16215449D01*
X27114299Y16273730D01*
X27618321Y16273730D01*
X27642100Y16192774D01*
X27802633Y16171334D01*
X28003176Y16122818D01*
X28105410Y16049061D01*
X28253490Y15958846D01*
X28483092Y15898314D01*
X28517944Y15893960D01*
X28741011Y15868692D01*
X28886840Y15849057D01*
X28898708Y15846900D01*
X28944194Y15901657D01*
X28940311Y15980834D01*
X28925376Y16002000D01*
X29125333Y16002000D01*
X29154220Y15919535D01*
X29162669Y15917334D01*
X29234955Y15976663D01*
X29252333Y16002000D01*
X29245620Y16080019D01*
X29214996Y16086667D01*
X29128778Y16025207D01*
X29125333Y16002000D01*
X28925376Y16002000D01*
X28866036Y16086094D01*
X28672072Y16142588D01*
X28546044Y16155380D01*
X28307233Y16190200D01*
X28218523Y16253660D01*
X28222574Y16293010D01*
X28188136Y16406820D01*
X28068427Y16493945D01*
X27890812Y16536987D01*
X27751126Y16450121D01*
X27736461Y16434315D01*
X27618321Y16273730D01*
X27114299Y16273730D01*
X27116853Y16459971D01*
X27162123Y16573715D01*
X27228373Y16594667D01*
X27327907Y16658249D01*
X27331371Y16742834D01*
X27298271Y16809773D01*
X27209673Y16855224D01*
X27035947Y16884629D01*
X26747464Y16903429D01*
X26393829Y16915032D01*
X25484666Y16939063D01*
X25484666Y16138073D01*
X25315333Y16138073D01*
X25315333Y16933334D01*
X25028058Y16933334D01*
X24796808Y16896065D01*
X24692048Y16806334D01*
X24581337Y16693742D01*
X24518019Y16679334D01*
X24361616Y16619147D01*
X24176276Y16475434D01*
X24021792Y16303469D01*
X23957973Y16161625D01*
X23907675Y16005379D01*
X23830973Y15879985D01*
X23718180Y15649684D01*
X23086582Y15649684D01*
X23045096Y15663334D01*
X22909623Y15599148D01*
X22822062Y15457320D01*
X22220834Y15457320D01*
X22207278Y15516224D01*
X22132582Y15653656D01*
X22015997Y15827210D01*
X21929641Y15914782D01*
X21920282Y15917334D01*
X21856640Y15845412D01*
X21820036Y15678358D01*
X21817937Y15489236D01*
X21626695Y15489236D01*
X21660563Y15648728D01*
X21703771Y15973435D01*
X21719912Y16150215D01*
X21781174Y16933334D01*
X21402655Y16933334D01*
X21166298Y16924369D01*
X21039673Y16868679D01*
X20963218Y16723066D01*
X20919063Y16582631D01*
X20838686Y16270920D01*
X20765803Y15919176D01*
X20748556Y15817995D01*
X20718497Y15554964D01*
X20492624Y15554964D01*
X20530899Y16057937D01*
X20603568Y16498670D01*
X20616938Y16551956D01*
X20836549Y17136058D01*
X21206187Y17136058D01*
X21299969Y17045390D01*
X21484782Y17058235D01*
X21658112Y17105711D01*
X21733618Y17133397D01*
X21732016Y17219030D01*
X21709284Y17419264D01*
X21688009Y17571015D01*
X21673683Y17667327D01*
X23807488Y17667327D01*
X23898534Y17613732D01*
X23951608Y17610667D01*
X24118335Y17684955D01*
X24204548Y17897896D01*
X24214666Y18040925D01*
X24258916Y18182392D01*
X24373883Y18203446D01*
X24532893Y18122200D01*
X24709272Y17956766D01*
X24876345Y17725253D01*
X24978090Y17522563D01*
X25045016Y17320886D01*
X25025459Y17224774D01*
X24992868Y17206846D01*
X24928220Y17129189D01*
X24938802Y17095436D01*
X24998564Y17027420D01*
X25095017Y17037737D01*
X25181408Y17069392D01*
X25274986Y17194265D01*
X25311629Y17446698D01*
X25484666Y17446698D01*
X25496443Y17229739D01*
X25558922Y17127438D01*
X25712828Y17085413D01*
X25759833Y17079248D01*
X26303063Y17033185D01*
X26693438Y17048514D01*
X26928679Y17125100D01*
X26960285Y17151048D01*
X27060702Y17343343D01*
X27071391Y17583214D01*
X27006344Y17814973D01*
X26879555Y17982935D01*
X26738419Y18034000D01*
X26587837Y18091813D01*
X26518161Y18219876D01*
X26558535Y18350127D01*
X26591710Y18376609D01*
X26659352Y18470199D01*
X26642530Y18513025D01*
X26529498Y18524911D01*
X26413298Y18475295D01*
X26230341Y18392137D01*
X26129178Y18372667D01*
X26013805Y18305486D01*
X25873633Y18138106D01*
X25834551Y18076334D01*
X25704791Y17889729D01*
X25595110Y17786947D01*
X25572188Y17780000D01*
X25517025Y17704975D01*
X25486689Y17517889D01*
X25484666Y17446698D01*
X25311629Y17446698D01*
X25315021Y17470064D01*
X25300831Y17886842D01*
X25261491Y18233850D01*
X25218091Y18550492D01*
X26852764Y18550492D01*
X26887982Y18447163D01*
X26966333Y18372667D01*
X27067963Y18208164D01*
X27093333Y18067919D01*
X27168321Y17860531D01*
X27305000Y17729881D01*
X27456669Y17599984D01*
X27516666Y17490863D01*
X27583276Y17318781D01*
X27739635Y17247250D01*
X27863588Y17276419D01*
X28012356Y17379496D01*
X28062720Y17434410D01*
X28035411Y17526000D01*
X28321000Y17526000D01*
X28327712Y17447982D01*
X28358336Y17441334D01*
X28444554Y17502794D01*
X28448000Y17526000D01*
X28419113Y17608466D01*
X28410663Y17610667D01*
X28338377Y17551338D01*
X28321000Y17526000D01*
X28035411Y17526000D01*
X28034259Y17529862D01*
X27902037Y17662275D01*
X27878082Y17680332D01*
X27807082Y17737667D01*
X28532666Y17737667D01*
X28575000Y17695334D01*
X28617333Y17737667D01*
X28575000Y17780000D01*
X28532666Y17737667D01*
X27807082Y17737667D01*
X27727586Y17801862D01*
X27717381Y17836445D01*
X28814888Y17836445D01*
X28826511Y17786111D01*
X28871333Y17780000D01*
X28941023Y17810979D01*
X28927777Y17836445D01*
X28827298Y17846578D01*
X28814888Y17836445D01*
X27717381Y17836445D01*
X27701797Y17889250D01*
X27776708Y17991667D01*
X28363333Y17991667D01*
X28405666Y17949334D01*
X28448000Y17991667D01*
X28405666Y18034000D01*
X28363333Y17991667D01*
X27776708Y17991667D01*
X27785136Y18003189D01*
X27792979Y18011878D01*
X27918291Y18185047D01*
X27909928Y18326093D01*
X27799877Y18471834D01*
X27633756Y18574501D01*
X27968769Y18574501D01*
X27982333Y18542000D01*
X28094492Y18460495D01*
X28119326Y18457334D01*
X28165230Y18509500D01*
X28151666Y18542000D01*
X28039507Y18623506D01*
X28014673Y18626667D01*
X27968769Y18574501D01*
X27633756Y18574501D01*
X27619661Y18583212D01*
X27324514Y18625557D01*
X27249544Y18626667D01*
X26971276Y18608524D01*
X26852764Y18550492D01*
X25218091Y18550492D01*
X25207650Y18626667D01*
X24766614Y18626667D01*
X24465097Y18606136D01*
X24255420Y18522285D01*
X24088259Y18341727D01*
X23928543Y18059372D01*
X23817929Y17807368D01*
X23807488Y17667327D01*
X21673683Y17667327D01*
X21639692Y17895826D01*
X23542958Y17895826D01*
X23608409Y17864667D01*
X23690116Y17933324D01*
X23784828Y18095868D01*
X23852242Y18252415D01*
X23833567Y18270775D01*
X23713751Y18167413D01*
X23571761Y18006177D01*
X23542958Y17895826D01*
X21639692Y17895826D01*
X21625434Y17991667D01*
X21390015Y17623956D01*
X21235795Y17331346D01*
X21206187Y17136058D01*
X20836549Y17136058D01*
X20908444Y17327275D01*
X21345688Y18045426D01*
X21909433Y18687418D01*
X22148087Y18881911D01*
X24468666Y18881911D01*
X24544811Y18832904D01*
X24739502Y18801799D01*
X24892000Y18796000D01*
X25315333Y18796000D01*
X25315333Y18965334D01*
X26924000Y18965334D01*
X26973608Y18832549D01*
X27135666Y18796000D01*
X27294797Y18823970D01*
X27347333Y18877688D01*
X27281773Y18971343D01*
X27137291Y19074295D01*
X26992188Y19132950D01*
X26971899Y19134667D01*
X26932927Y19063487D01*
X26924000Y18965334D01*
X25315333Y18965334D01*
X25315333Y19081967D01*
X25276170Y19316313D01*
X25211133Y19427445D01*
X27052532Y19427445D01*
X27123728Y19324948D01*
X27273504Y19187193D01*
X27468442Y19039935D01*
X27675126Y18908929D01*
X27860140Y18819930D01*
X27966163Y18796230D01*
X28124810Y18821131D01*
X28150576Y18882431D01*
X28038617Y18982749D01*
X27827101Y19120982D01*
X27570334Y19267002D01*
X27322626Y19390683D01*
X27138283Y19461898D01*
X27093333Y19468929D01*
X27052532Y19427445D01*
X25211133Y19427445D01*
X25180465Y19479848D01*
X25179016Y19481066D01*
X25081962Y19532295D01*
X24976608Y19495697D01*
X24821403Y19351637D01*
X24755683Y19281010D01*
X24589805Y19084098D01*
X24486145Y18930434D01*
X24468666Y18881911D01*
X22148087Y18881911D01*
X22252945Y18967365D01*
X23599029Y18967365D01*
X23623768Y18926847D01*
X23783419Y18920257D01*
X23866226Y18922047D01*
X24062262Y18943248D01*
X24225850Y19015181D01*
X24405220Y19167529D01*
X24596047Y19371208D01*
X24779939Y19586642D01*
X24895289Y19743670D01*
X24919627Y19811339D01*
X24916031Y19812000D01*
X24798807Y19768508D01*
X24586745Y19656138D01*
X24324472Y19502052D01*
X24056613Y19333411D01*
X23827796Y19177376D01*
X23683191Y19061647D01*
X23599029Y18967365D01*
X22252945Y18967365D01*
X22480625Y19152913D01*
X23079218Y19152913D01*
X23117602Y19087994D01*
X23176826Y19026709D01*
X23243695Y19011337D01*
X23350748Y19055132D01*
X23530524Y19171349D01*
X23812500Y19371052D01*
X24027929Y19529856D01*
X24173881Y19646628D01*
X24214666Y19689187D01*
X24145141Y19686036D01*
X23968257Y19631942D01*
X23731553Y19544377D01*
X23482567Y19440814D01*
X23286967Y19348213D01*
X23114984Y19241370D01*
X23079218Y19152913D01*
X22480625Y19152913D01*
X22580445Y19234261D01*
X23339487Y19666966D01*
X24039533Y19930843D01*
X24490522Y20019735D01*
X25041670Y20063435D01*
X25630092Y20062486D01*
G37*
X25630092Y20062486D02*
X26192908Y20017429D01*
X26667235Y19928807D01*
X26740706Y19907542D01*
X27557578Y19568299D01*
X28306366Y19088203D01*
X28836072Y18612761D01*
X29295128Y18084669D01*
X29641358Y17562757D01*
X29915748Y16982380D01*
X29985661Y16799568D01*
X30094208Y16374991D01*
X30161463Y15842005D01*
X30186724Y15256601D01*
X30169288Y14674766D01*
X30108454Y14152491D01*
X30023268Y13800667D01*
X29651352Y12933657D01*
X29158998Y12177171D01*
X28553541Y11539797D01*
X27842312Y11030122D01*
X27505847Y10852390D01*
X27127794Y10685722D01*
X26745020Y10539788D01*
X26424552Y10439533D01*
X26348332Y10421628D01*
X25990714Y10373357D01*
X25538732Y10347038D01*
X25066094Y10343998D01*
X24646508Y10365564D01*
X24468666Y10387786D01*
X24002855Y10503794D01*
X23482494Y10693168D01*
X22986263Y10924762D01*
X22716875Y11081273D01*
X22151718Y11519924D01*
X22606000Y11519924D01*
X22676788Y11449492D01*
X22866380Y11327474D01*
X23140614Y11174915D01*
X23293137Y11096590D01*
X23657528Y10921621D01*
X23927621Y10806920D01*
X24089182Y10756971D01*
X24127980Y10776259D01*
X24040224Y10861193D01*
X23903753Y10970597D01*
X23824248Y11035426D01*
X24474106Y11035426D01*
X24531397Y10898817D01*
X24641298Y10768632D01*
X24790337Y10647720D01*
X24932111Y10586979D01*
X25021631Y10596067D01*
X25020264Y10611756D01*
X25760409Y10611756D01*
X25802507Y10593848D01*
X25858702Y10611279D01*
X26045329Y10660830D01*
X26118202Y10668000D01*
X26237498Y10716093D01*
X26438601Y10840090D01*
X26549702Y10917855D01*
X26911351Y10917855D01*
X26925151Y10890793D01*
X27037851Y10922532D01*
X27051000Y10927157D01*
X27283427Y11026897D01*
X27563446Y11169799D01*
X27660457Y11224558D01*
X27936293Y11400355D01*
X28057844Y11517826D01*
X28027950Y11581769D01*
X27881496Y11597592D01*
X27641535Y11526632D01*
X27332671Y11313404D01*
X27220333Y11216529D01*
X27006421Y11020754D01*
X26911351Y10917855D01*
X26549702Y10917855D01*
X26680736Y11009572D01*
X26923129Y11194119D01*
X27125007Y11363312D01*
X27245597Y11486730D01*
X27262666Y11521844D01*
X27187142Y11568749D01*
X26996770Y11596292D01*
X26894920Y11599334D01*
X26678331Y11586663D01*
X26518297Y11527409D01*
X26359046Y11389708D01*
X26190977Y11197167D01*
X25945686Y10897620D01*
X25805149Y10707748D01*
X25760409Y10611756D01*
X25020264Y10611756D01*
X25013908Y10684645D01*
X25011401Y10689167D01*
X24877805Y10877738D01*
X24721586Y11037258D01*
X24588855Y11124900D01*
X24541026Y11126061D01*
X24474106Y11035426D01*
X23824248Y11035426D01*
X23691294Y11143836D01*
X23523504Y11281834D01*
X23193333Y11509380D01*
X23090854Y11542000D01*
X23537333Y11542000D01*
X23596398Y11457023D01*
X23744525Y11312503D01*
X23812500Y11253654D01*
X23985547Y11115491D01*
X24070722Y11081615D01*
X24106791Y11143901D01*
X24115528Y11190145D01*
X24116978Y11391541D01*
X24097019Y11478491D01*
X24058566Y11507750D01*
X24638000Y11507750D01*
X24685861Y11407433D01*
X24805633Y11229782D01*
X24961600Y11021282D01*
X25118043Y10828423D01*
X25239245Y10697691D01*
X25283199Y10668000D01*
X25300802Y10744603D01*
X25312474Y10942194D01*
X25315333Y11133667D01*
X25315333Y11599334D01*
X25484666Y11599334D01*
X25488460Y11112500D01*
X25492254Y10625667D01*
X25869460Y11046682D01*
X26060959Y11269596D01*
X26196726Y11445147D01*
X26246666Y11533515D01*
X26170958Y11572776D01*
X25979417Y11596320D01*
X25865666Y11599334D01*
X25484666Y11599334D01*
X25315333Y11599334D01*
X24976666Y11599334D01*
X24764498Y11579022D01*
X24646603Y11528259D01*
X24638000Y11507750D01*
X24058566Y11507750D01*
X24004317Y11549027D01*
X23835297Y11592738D01*
X23659992Y11601678D01*
X23548440Y11567900D01*
X23537333Y11542000D01*
X23090854Y11542000D01*
X22916739Y11597422D01*
X22872446Y11599334D01*
X22688774Y11577319D01*
X22606337Y11523928D01*
X22606000Y11519924D01*
X22151718Y11519924D01*
X22128751Y11537750D01*
X21591538Y12099899D01*
X21133426Y12729189D01*
X20866818Y13229167D01*
X21166983Y13229167D01*
X21221525Y13072396D01*
X21364001Y12833103D01*
X21564223Y12550092D01*
X21791998Y12262169D01*
X22017137Y12008136D01*
X22209450Y11826800D01*
X22306343Y11764705D01*
X22522144Y11708657D01*
X22755227Y11690382D01*
X22930318Y11713324D01*
X22966907Y11734464D01*
X22949774Y11824797D01*
X22853198Y12006151D01*
X22739663Y12178964D01*
X22537561Y12481132D01*
X22340688Y12799562D01*
X22264387Y12932834D01*
X22140949Y13141763D01*
X22101619Y13178794D01*
X22352000Y13178794D01*
X22398288Y13047777D01*
X22519069Y12823784D01*
X22687213Y12549289D01*
X22875591Y12266766D01*
X23057074Y12018691D01*
X23198437Y11853563D01*
X23413938Y11728669D01*
X23667473Y11701284D01*
X23891447Y11770490D01*
X23975560Y11852542D01*
X24867104Y11852542D01*
X24888657Y11728262D01*
X25047158Y11695559D01*
X25090489Y11700325D01*
X25193449Y11734158D01*
X25251260Y11825844D01*
X25279242Y12016513D01*
X25286356Y12169106D01*
X25483959Y12169106D01*
X25492513Y11908565D01*
X25535354Y11748479D01*
X25545014Y11736542D01*
X25659335Y11705290D01*
X25877659Y11696634D01*
X25989514Y11701264D01*
X26183913Y11719130D01*
X26317140Y11763286D01*
X26351281Y11795699D01*
X26718578Y11795699D01*
X26720044Y11756191D01*
X26834653Y11703779D01*
X27045996Y11686176D01*
X27285244Y11702644D01*
X27483570Y11752445D01*
X27509152Y11764646D01*
X27520173Y11774316D01*
X27855333Y11774316D01*
X27918506Y11690722D01*
X28077627Y11689526D01*
X28287094Y11760184D01*
X28501308Y11892154D01*
X28552497Y11935519D01*
X28715695Y12090175D01*
X28761178Y12164088D01*
X28699169Y12187450D01*
X28638500Y12189519D01*
X28484796Y12239851D01*
X28448000Y12319000D01*
X28407622Y12431749D01*
X28373382Y12446000D01*
X28277714Y12382447D01*
X28136618Y12227889D01*
X27991861Y12036480D01*
X27885208Y11862374D01*
X27855333Y11774316D01*
X27520173Y11774316D01*
X27633730Y11873951D01*
X27809473Y12079197D01*
X27979079Y12308813D01*
X28148036Y12562678D01*
X28231541Y12729100D01*
X28243586Y12857693D01*
X28198162Y12998071D01*
X28183158Y13032501D01*
X28093082Y13194840D01*
X27973344Y13270697D01*
X27762513Y13292080D01*
X27683866Y13292667D01*
X27299735Y13292667D01*
X26987582Y12560524D01*
X26856422Y12235224D01*
X26762527Y11967573D01*
X26718578Y11795699D01*
X26351281Y11795699D01*
X26425305Y11865974D01*
X26544516Y12059439D01*
X26681327Y12319000D01*
X26887740Y12718572D01*
X27013378Y12990617D01*
X27052113Y13159601D01*
X26997813Y13249991D01*
X26844350Y13286254D01*
X26585594Y13292855D01*
X26437386Y13292667D01*
X25770029Y13292667D01*
X25627347Y12993461D01*
X25555045Y12767554D01*
X25506026Y12474102D01*
X25483959Y12169106D01*
X25286356Y12169106D01*
X25289397Y12234334D01*
X25293267Y12495649D01*
X25281065Y12600350D01*
X25250355Y12560606D01*
X25233825Y12511768D01*
X25126903Y12275215D01*
X24985748Y12057316D01*
X24867104Y11852542D01*
X23975560Y11852542D01*
X23987561Y11864248D01*
X24013821Y11983477D01*
X23974298Y12179370D01*
X23861649Y12481074D01*
X23790299Y12647415D01*
X23574917Y13137513D01*
X23771638Y13137513D01*
X23825183Y12957742D01*
X23891980Y12784667D01*
X23996430Y12550408D01*
X24078587Y12396673D01*
X24110102Y12361334D01*
X24126029Y12435822D01*
X24115822Y12622869D01*
X24105234Y12712203D01*
X24021194Y13017799D01*
X23874840Y13181798D01*
X23774858Y13206704D01*
X23771638Y13137513D01*
X23574917Y13137513D01*
X23506731Y13292667D01*
X22929365Y13292667D01*
X22601564Y13282859D01*
X22417598Y13250209D01*
X22352930Y13189876D01*
X22352000Y13178794D01*
X22101619Y13178794D01*
X22027567Y13248515D01*
X21862518Y13287383D01*
X21616742Y13292667D01*
X21366660Y13281884D01*
X21203383Y13254156D01*
X21166983Y13229167D01*
X20866818Y13229167D01*
X20782607Y13387089D01*
X20572346Y14012381D01*
X20509905Y14437414D01*
X20482937Y14962934D01*
X20485590Y15165064D01*
X20717938Y15165064D01*
X20769193Y14616182D01*
X20816980Y14271815D01*
X20887670Y13947880D01*
X20946904Y13764650D01*
X21033012Y13585192D01*
X21133206Y13495802D01*
X21304760Y13465198D01*
X21501013Y13462000D01*
X21743627Y13473310D01*
X21897925Y13502257D01*
X21927244Y13525500D01*
X21910674Y13631629D01*
X21867475Y13862777D01*
X21805395Y14178154D01*
X21770447Y14351000D01*
X21663731Y14874368D01*
X21844000Y14874368D01*
X21869688Y14625483D01*
X21935716Y14308942D01*
X22025531Y13985218D01*
X22122578Y13714779D01*
X22201672Y13567834D01*
X22342018Y13505176D01*
X22623505Y13469149D01*
X22874203Y13462000D01*
X23460339Y13462000D01*
X23404597Y13779500D01*
X23334106Y14174936D01*
X23297326Y14340391D01*
X23466217Y14340391D01*
X23487315Y14255828D01*
X23556836Y14162111D01*
X23641708Y14209843D01*
X23695998Y14325429D01*
X23640344Y14408856D01*
X23527548Y14468389D01*
X23485951Y14454841D01*
X23466217Y14340391D01*
X23297326Y14340391D01*
X23275087Y14440427D01*
X23207342Y14612372D01*
X23110673Y14727170D01*
X22964879Y14821222D01*
X22771808Y14919805D01*
X22528592Y15026458D01*
X23399384Y15026458D01*
X23401274Y15021409D01*
X23447835Y14830681D01*
X23452666Y14767409D01*
X23517917Y14672388D01*
X23664607Y14651825D01*
X23819137Y14712072D01*
X23843773Y14733641D01*
X23979410Y14763381D01*
X24209605Y14720892D01*
X24487002Y14626322D01*
X24764245Y14499826D01*
X24993980Y14361553D01*
X25128850Y14231655D01*
X25146000Y14179493D01*
X25192409Y14068224D01*
X25230666Y14054667D01*
X25274910Y14132425D01*
X25305201Y14338407D01*
X25315333Y14605000D01*
X25315333Y15155334D01*
X25484666Y15155334D01*
X25484666Y14576257D01*
X25489747Y14265979D01*
X25514192Y14080883D01*
X25571807Y13976911D01*
X25676398Y13910002D01*
X25696333Y13900739D01*
X25862710Y13764390D01*
X25908000Y13633149D01*
X25922654Y13545464D01*
X25990116Y13494129D01*
X26145633Y13469583D01*
X26424454Y13462265D01*
X26539020Y13462000D01*
X27170040Y13462000D01*
X27351566Y13462000D01*
X27772783Y13462000D01*
X28029064Y13472553D01*
X28155623Y13513367D01*
X28191259Y13598181D01*
X28191307Y13610167D01*
X28139589Y13795846D01*
X28138311Y13798034D01*
X29579576Y13798034D01*
X29595587Y13708578D01*
X29663019Y13660685D01*
X29726654Y13763954D01*
X29782656Y13936660D01*
X29796715Y14009310D01*
X29753366Y14023319D01*
X29665648Y13953935D01*
X29579576Y13798034D01*
X28138311Y13798034D01*
X28070122Y13914730D01*
X27994044Y14085405D01*
X27997206Y14189897D01*
X27992310Y14293679D01*
X27955983Y14308667D01*
X27804556Y14336961D01*
X27736434Y14359607D01*
X27621888Y14344825D01*
X27524584Y14194546D01*
X27436949Y13894570D01*
X27404375Y13737167D01*
X27351566Y13462000D01*
X27170040Y13462000D01*
X27258214Y13779500D01*
X27328803Y14071146D01*
X27336439Y14235262D01*
X27279453Y14302172D01*
X27229104Y14308667D01*
X27112553Y14361460D01*
X26959361Y14492223D01*
X26805443Y14659535D01*
X26721536Y14774334D01*
X29802666Y14774334D01*
X29845000Y14732000D01*
X29887333Y14774334D01*
X29845000Y14816667D01*
X29802666Y14774334D01*
X26721536Y14774334D01*
X26686715Y14821975D01*
X26639091Y14938121D01*
X26657624Y14967764D01*
X26713721Y15018797D01*
X29577770Y15018797D01*
X29591000Y14986000D01*
X29667082Y14905230D01*
X29680663Y14901334D01*
X29717029Y14966840D01*
X29718000Y14986000D01*
X29652912Y15067414D01*
X29628336Y15070667D01*
X29577770Y15018797D01*
X26713721Y15018797D01*
X26749655Y15051487D01*
X26754666Y15077723D01*
X26676925Y15114819D01*
X26471281Y15142261D01*
X26179101Y15154994D01*
X26119666Y15155334D01*
X25484666Y15155334D01*
X25315333Y15155334D01*
X24853650Y15155334D01*
X24547532Y15137068D01*
X24278414Y15090472D01*
X24174020Y15056030D01*
X23985458Y14999104D01*
X23863080Y15049893D01*
X23856770Y15056030D01*
X23698088Y15134759D01*
X23553674Y15155334D01*
X23407802Y15126668D01*
X23399384Y15026458D01*
X22528592Y15026458D01*
X22482173Y15046813D01*
X22216587Y15131923D01*
X22076833Y15153915D01*
X21917115Y15134594D01*
X21853885Y15039649D01*
X21844000Y14874368D01*
X21663731Y14874368D01*
X21615072Y15113000D01*
X20717938Y15165064D01*
X20485590Y15165064D01*
X20490311Y15524567D01*
X20492624Y15554964D01*
X20718497Y15554964D01*
X20739394Y15406865D01*
X20818192Y15325116D01*
X20819061Y15324606D01*
X21022329Y15262376D01*
X21281550Y15246567D01*
X21505209Y15279618D01*
X21560825Y15304844D01*
X21610381Y15412407D01*
X21626695Y15489236D01*
X21817937Y15489236D01*
X21857810Y15351114D01*
X21861873Y15345834D01*
X21979275Y15250267D01*
X22115733Y15282763D01*
X22172003Y15316285D01*
X22235879Y15391943D01*
X22220834Y15457320D01*
X22822062Y15457320D01*
X22822805Y15313945D01*
X22843913Y15284310D01*
X22976584Y15246362D01*
X23112375Y15325643D01*
X23183388Y15473699D01*
X23177515Y15525045D01*
X23368000Y15525045D01*
X23394461Y15357697D01*
X23452519Y15278850D01*
X23510186Y15320602D01*
X23524106Y15368398D01*
X23501122Y15543163D01*
X23460606Y15604594D01*
X23387729Y15635348D01*
X23368000Y15525045D01*
X23177515Y15525045D01*
X23166257Y15623468D01*
X23086582Y15649684D01*
X23718180Y15649684D01*
X23722829Y15447141D01*
X23839744Y15317755D01*
X23897166Y15299753D01*
X24250645Y15259873D01*
X24652986Y15254651D01*
X25005067Y15284676D01*
X25050750Y15292917D01*
X25315333Y15345834D01*
X25315333Y16138073D01*
X25484666Y16138073D01*
X25486744Y15747216D01*
X25508852Y15494636D01*
X25574797Y15349318D01*
X25708390Y15280249D01*
X25933439Y15256414D01*
X26166557Y15249822D01*
X26425354Y15261249D01*
X26612578Y15334911D01*
X26744176Y15449102D01*
X29316564Y15449102D01*
X29333518Y15414967D01*
X29414251Y15327434D01*
X29429102Y15389163D01*
X29408549Y15455319D01*
X29346216Y15547525D01*
X29318062Y15545618D01*
X29316564Y15449102D01*
X26744176Y15449102D01*
X26808952Y15505309D01*
X26841060Y15538116D01*
X27022003Y15749478D01*
X27102280Y15938122D01*
X27114678Y16185562D01*
X27113501Y16215449D01*
X27114299Y16273730D01*
X27618321Y16273730D01*
X27642100Y16192774D01*
X27802633Y16171334D01*
X28003176Y16122818D01*
X28105410Y16049061D01*
X28253490Y15958846D01*
X28483092Y15898314D01*
X28517944Y15893960D01*
X28741011Y15868692D01*
X28886840Y15849057D01*
X28898708Y15846900D01*
X28944194Y15901657D01*
X28940311Y15980834D01*
X28925376Y16002000D01*
X29125333Y16002000D01*
X29154220Y15919535D01*
X29162669Y15917334D01*
X29234955Y15976663D01*
X29252333Y16002000D01*
X29245620Y16080019D01*
X29214996Y16086667D01*
X29128778Y16025207D01*
X29125333Y16002000D01*
X28925376Y16002000D01*
X28866036Y16086094D01*
X28672072Y16142588D01*
X28546044Y16155380D01*
X28307233Y16190200D01*
X28218523Y16253660D01*
X28222574Y16293010D01*
X28188136Y16406820D01*
X28068427Y16493945D01*
X27890812Y16536987D01*
X27751126Y16450121D01*
X27736461Y16434315D01*
X27618321Y16273730D01*
X27114299Y16273730D01*
X27116853Y16459971D01*
X27162123Y16573715D01*
X27228373Y16594667D01*
X27327907Y16658249D01*
X27331371Y16742834D01*
X27298271Y16809773D01*
X27209673Y16855224D01*
X27035947Y16884629D01*
X26747464Y16903429D01*
X26393829Y16915032D01*
X25484666Y16939063D01*
X25484666Y16138073D01*
X25315333Y16138073D01*
X25315333Y16933334D01*
X25028058Y16933334D01*
X24796808Y16896065D01*
X24692048Y16806334D01*
X24581337Y16693742D01*
X24518019Y16679334D01*
X24361616Y16619147D01*
X24176276Y16475434D01*
X24021792Y16303469D01*
X23957973Y16161625D01*
X23907675Y16005379D01*
X23830973Y15879985D01*
X23718180Y15649684D01*
X23086582Y15649684D01*
X23045096Y15663334D01*
X22909623Y15599148D01*
X22822062Y15457320D01*
X22220834Y15457320D01*
X22207278Y15516224D01*
X22132582Y15653656D01*
X22015997Y15827210D01*
X21929641Y15914782D01*
X21920282Y15917334D01*
X21856640Y15845412D01*
X21820036Y15678358D01*
X21817937Y15489236D01*
X21626695Y15489236D01*
X21660563Y15648728D01*
X21703771Y15973435D01*
X21719912Y16150215D01*
X21781174Y16933334D01*
X21402655Y16933334D01*
X21166298Y16924369D01*
X21039673Y16868679D01*
X20963218Y16723066D01*
X20919063Y16582631D01*
X20838686Y16270920D01*
X20765803Y15919176D01*
X20748556Y15817995D01*
X20718497Y15554964D01*
X20492624Y15554964D01*
X20530899Y16057937D01*
X20603568Y16498670D01*
X20616938Y16551956D01*
X20836549Y17136058D01*
X21206187Y17136058D01*
X21299969Y17045390D01*
X21484782Y17058235D01*
X21658112Y17105711D01*
X21733618Y17133397D01*
X21732016Y17219030D01*
X21709284Y17419264D01*
X21688009Y17571015D01*
X21673683Y17667327D01*
X23807488Y17667327D01*
X23898534Y17613732D01*
X23951608Y17610667D01*
X24118335Y17684955D01*
X24204548Y17897896D01*
X24214666Y18040925D01*
X24258916Y18182392D01*
X24373883Y18203446D01*
X24532893Y18122200D01*
X24709272Y17956766D01*
X24876345Y17725253D01*
X24978090Y17522563D01*
X25045016Y17320886D01*
X25025459Y17224774D01*
X24992868Y17206846D01*
X24928220Y17129189D01*
X24938802Y17095436D01*
X24998564Y17027420D01*
X25095017Y17037737D01*
X25181408Y17069392D01*
X25274986Y17194265D01*
X25311629Y17446698D01*
X25484666Y17446698D01*
X25496443Y17229739D01*
X25558922Y17127438D01*
X25712828Y17085413D01*
X25759833Y17079248D01*
X26303063Y17033185D01*
X26693438Y17048514D01*
X26928679Y17125100D01*
X26960285Y17151048D01*
X27060702Y17343343D01*
X27071391Y17583214D01*
X27006344Y17814973D01*
X26879555Y17982935D01*
X26738419Y18034000D01*
X26587837Y18091813D01*
X26518161Y18219876D01*
X26558535Y18350127D01*
X26591710Y18376609D01*
X26659352Y18470199D01*
X26642530Y18513025D01*
X26529498Y18524911D01*
X26413298Y18475295D01*
X26230341Y18392137D01*
X26129178Y18372667D01*
X26013805Y18305486D01*
X25873633Y18138106D01*
X25834551Y18076334D01*
X25704791Y17889729D01*
X25595110Y17786947D01*
X25572188Y17780000D01*
X25517025Y17704975D01*
X25486689Y17517889D01*
X25484666Y17446698D01*
X25311629Y17446698D01*
X25315021Y17470064D01*
X25300831Y17886842D01*
X25261491Y18233850D01*
X25218091Y18550492D01*
X26852764Y18550492D01*
X26887982Y18447163D01*
X26966333Y18372667D01*
X27067963Y18208164D01*
X27093333Y18067919D01*
X27168321Y17860531D01*
X27305000Y17729881D01*
X27456669Y17599984D01*
X27516666Y17490863D01*
X27583276Y17318781D01*
X27739635Y17247250D01*
X27863588Y17276419D01*
X28012356Y17379496D01*
X28062720Y17434410D01*
X28035411Y17526000D01*
X28321000Y17526000D01*
X28327712Y17447982D01*
X28358336Y17441334D01*
X28444554Y17502794D01*
X28448000Y17526000D01*
X28419113Y17608466D01*
X28410663Y17610667D01*
X28338377Y17551338D01*
X28321000Y17526000D01*
X28035411Y17526000D01*
X28034259Y17529862D01*
X27902037Y17662275D01*
X27878082Y17680332D01*
X27807082Y17737667D01*
X28532666Y17737667D01*
X28575000Y17695334D01*
X28617333Y17737667D01*
X28575000Y17780000D01*
X28532666Y17737667D01*
X27807082Y17737667D01*
X27727586Y17801862D01*
X27717381Y17836445D01*
X28814888Y17836445D01*
X28826511Y17786111D01*
X28871333Y17780000D01*
X28941023Y17810979D01*
X28927777Y17836445D01*
X28827298Y17846578D01*
X28814888Y17836445D01*
X27717381Y17836445D01*
X27701797Y17889250D01*
X27776708Y17991667D01*
X28363333Y17991667D01*
X28405666Y17949334D01*
X28448000Y17991667D01*
X28405666Y18034000D01*
X28363333Y17991667D01*
X27776708Y17991667D01*
X27785136Y18003189D01*
X27792979Y18011878D01*
X27918291Y18185047D01*
X27909928Y18326093D01*
X27799877Y18471834D01*
X27633756Y18574501D01*
X27968769Y18574501D01*
X27982333Y18542000D01*
X28094492Y18460495D01*
X28119326Y18457334D01*
X28165230Y18509500D01*
X28151666Y18542000D01*
X28039507Y18623506D01*
X28014673Y18626667D01*
X27968769Y18574501D01*
X27633756Y18574501D01*
X27619661Y18583212D01*
X27324514Y18625557D01*
X27249544Y18626667D01*
X26971276Y18608524D01*
X26852764Y18550492D01*
X25218091Y18550492D01*
X25207650Y18626667D01*
X24766614Y18626667D01*
X24465097Y18606136D01*
X24255420Y18522285D01*
X24088259Y18341727D01*
X23928543Y18059372D01*
X23817929Y17807368D01*
X23807488Y17667327D01*
X21673683Y17667327D01*
X21639692Y17895826D01*
X23542958Y17895826D01*
X23608409Y17864667D01*
X23690116Y17933324D01*
X23784828Y18095868D01*
X23852242Y18252415D01*
X23833567Y18270775D01*
X23713751Y18167413D01*
X23571761Y18006177D01*
X23542958Y17895826D01*
X21639692Y17895826D01*
X21625434Y17991667D01*
X21390015Y17623956D01*
X21235795Y17331346D01*
X21206187Y17136058D01*
X20836549Y17136058D01*
X20908444Y17327275D01*
X21345688Y18045426D01*
X21909433Y18687418D01*
X22148087Y18881911D01*
X24468666Y18881911D01*
X24544811Y18832904D01*
X24739502Y18801799D01*
X24892000Y18796000D01*
X25315333Y18796000D01*
X25315333Y18965334D01*
X26924000Y18965334D01*
X26973608Y18832549D01*
X27135666Y18796000D01*
X27294797Y18823970D01*
X27347333Y18877688D01*
X27281773Y18971343D01*
X27137291Y19074295D01*
X26992188Y19132950D01*
X26971899Y19134667D01*
X26932927Y19063487D01*
X26924000Y18965334D01*
X25315333Y18965334D01*
X25315333Y19081967D01*
X25276170Y19316313D01*
X25211133Y19427445D01*
X27052532Y19427445D01*
X27123728Y19324948D01*
X27273504Y19187193D01*
X27468442Y19039935D01*
X27675126Y18908929D01*
X27860140Y18819930D01*
X27966163Y18796230D01*
X28124810Y18821131D01*
X28150576Y18882431D01*
X28038617Y18982749D01*
X27827101Y19120982D01*
X27570334Y19267002D01*
X27322626Y19390683D01*
X27138283Y19461898D01*
X27093333Y19468929D01*
X27052532Y19427445D01*
X25211133Y19427445D01*
X25180465Y19479848D01*
X25179016Y19481066D01*
X25081962Y19532295D01*
X24976608Y19495697D01*
X24821403Y19351637D01*
X24755683Y19281010D01*
X24589805Y19084098D01*
X24486145Y18930434D01*
X24468666Y18881911D01*
X22148087Y18881911D01*
X22252945Y18967365D01*
X23599029Y18967365D01*
X23623768Y18926847D01*
X23783419Y18920257D01*
X23866226Y18922047D01*
X24062262Y18943248D01*
X24225850Y19015181D01*
X24405220Y19167529D01*
X24596047Y19371208D01*
X24779939Y19586642D01*
X24895289Y19743670D01*
X24919627Y19811339D01*
X24916031Y19812000D01*
X24798807Y19768508D01*
X24586745Y19656138D01*
X24324472Y19502052D01*
X24056613Y19333411D01*
X23827796Y19177376D01*
X23683191Y19061647D01*
X23599029Y18967365D01*
X22252945Y18967365D01*
X22480625Y19152913D01*
X23079218Y19152913D01*
X23117602Y19087994D01*
X23176826Y19026709D01*
X23243695Y19011337D01*
X23350748Y19055132D01*
X23530524Y19171349D01*
X23812500Y19371052D01*
X24027929Y19529856D01*
X24173881Y19646628D01*
X24214666Y19689187D01*
X24145141Y19686036D01*
X23968257Y19631942D01*
X23731553Y19544377D01*
X23482567Y19440814D01*
X23286967Y19348213D01*
X23114984Y19241370D01*
X23079218Y19152913D01*
X22480625Y19152913D01*
X22580445Y19234261D01*
X23339487Y19666966D01*
X24039533Y19930843D01*
X24490522Y20019735D01*
X25041670Y20063435D01*
X25630092Y20062486D01*
%TD*%
D11*
%TO.P,R1,2*%
%TO.N,Net-(R1-Pad2)*%
X42545000Y11430000D03*
%TO.P,R1,1*%
%TO.N,Net-(D2-Pad2)*%
X42545000Y19050000D03*
%TD*%
%TO.P,R2,2*%
%TO.N,Net-(R2-Pad2)*%
X38100000Y11430000D03*
%TO.P,R2,1*%
%TO.N,Net-(D3-Pad2)*%
X38100000Y19050000D03*
%TD*%
%TO.P,P4,2*%
%TO.N,N/C*%
X33655000Y17780000D03*
D12*
%TO.P,P4,1*%
X33655000Y12700000D03*
%TD*%
%TO.P,D2,1*%
%TO.N,GND*%
X41275000Y23495000D03*
D11*
%TO.P,D2,2*%
%TO.N,Net-(D2-Pad2)*%
X41275000Y26035000D03*
%TD*%
D12*
%TO.P,D3,1*%
%TO.N,GND*%
X41275000Y4445000D03*
D11*
%TO.P,D3,2*%
%TO.N,Net-(D3-Pad2)*%
X41275000Y6985000D03*
%TD*%
D13*
%TO.P,SW2,1*%
%TO.N,Net-(C1-Pad1)*%
X29790000Y2540000D03*
%TO.P,SW2,2*%
%TO.N,Net-(R2-Pad2)*%
X34290000Y2540000D03*
%TO.P,SW2,4*%
%TO.N,N/C*%
X34290000Y9040000D03*
%TO.P,SW2,3*%
X29790000Y9040000D03*
%TD*%
%TO.P,SW1,1*%
%TO.N,Net-(C1-Pad1)*%
X29790000Y21590000D03*
%TO.P,SW1,2*%
%TO.N,Net-(R1-Pad2)*%
X34290000Y21590000D03*
%TO.P,SW1,4*%
%TO.N,N/C*%
X34290000Y28090000D03*
%TO.P,SW1,3*%
X29790000Y28090000D03*
%TD*%
D14*
%TO.P,C1,2*%
%TO.N,GND*%
X13335000Y21590000D03*
D15*
%TO.P,C1,1*%
%TO.N,Net-(C1-Pad1)*%
X13335000Y8890000D03*
%TD*%
D16*
%TO.P,D1,1*%
%TO.N,Net-(C1-Pad1)*%
X13335000Y5715000D03*
%TO.P,D1,2*%
%TO.N,Net-(D1-Pad2)*%
X3937000Y5715000D03*
%TD*%
D17*
%TO.P,P2,1*%
%TO.N,N/C*%
X25400000Y15240000D03*
%TD*%
D18*
%TO.P,SC1,2*%
%TO.N,GND*%
X50419000Y15381000D03*
%TO.P,SC1,1*%
%TO.N,Net-(D1-Pad2)*%
X419000Y15381000D03*
%TD*%
D19*
%TO.N,Net-(C1-Pad1)*%
X13335000Y5715000D02*
X26615000Y5715000D01*
X26615000Y5715000D02*
X29790000Y2540000D01*
X13335000Y5715000D02*
X13335000Y8890000D01*
%TO.N,GND*%
X50419000Y15381000D02*
X49163000Y15381000D01*
X49163000Y15381000D02*
X44831000Y11049000D01*
X50419000Y15381000D02*
X49389000Y15381000D01*
X49389000Y15381000D02*
X45720000Y19050000D01*
X41275000Y4445000D02*
X40132000Y4445000D01*
X43307000Y9525000D02*
X44831000Y11049000D01*
X44831000Y11049000D02*
X48046000Y14264000D01*
X40640000Y9525000D02*
X43307000Y9525000D01*
X39370000Y8255000D02*
X40640000Y9525000D01*
X39370000Y5207000D02*
X39370000Y8255000D01*
X40132000Y4445000D02*
X39370000Y5207000D01*
D20*
X48046000Y14264000D02*
X48046000Y15381000D01*
X48046000Y15381000D02*
X48046000Y16724000D01*
D19*
X48046000Y16724000D02*
X45720000Y19050000D01*
X45720000Y19050000D02*
X43815000Y20955000D01*
X43815000Y20955000D02*
X42545000Y20955000D01*
X42545000Y20955000D02*
X41275000Y22225000D01*
X41275000Y22225000D02*
X41275000Y23495000D01*
%TO.N,Net-(D1-Pad2)*%
X3937000Y5715000D02*
X3937000Y11863000D01*
X3937000Y11863000D02*
X419000Y15381000D01*
D21*
X3937000Y14490000D02*
X3046000Y15381000D01*
D20*
X3937000Y14490000D02*
X3046000Y15381000D01*
%TO.N,Net-(D2-Pad2)*%
X42545000Y19050000D02*
X42164000Y19050000D01*
D19*
X42164000Y19050000D02*
X39243000Y21971000D01*
X39243000Y21971000D02*
X39243000Y25146000D01*
X39243000Y25146000D02*
X40132000Y26035000D01*
X40132000Y26035000D02*
X41275000Y26035000D01*
%TD*%
D22*
X48251382Y29559645D02*
X48571103Y29463115D01*
X48865985Y29306324D01*
X49124797Y29095242D01*
X49337678Y28837912D01*
X49430631Y28666000D01*
X47049988Y28666000D01*
X38475840Y29596000D01*
X47880603Y29596000D01*
X48251382Y29559645D01*
%TA.AperFunction,NonConductor*%
D23*
G36*
X48251382Y29559645D02*
G01*
X48571103Y29463115D01*
X48865985Y29306324D01*
X49124797Y29095242D01*
X49337678Y28837912D01*
X49430631Y28666000D01*
X47049988Y28666000D01*
X38475840Y29596000D01*
X47880603Y29596000D01*
X48251382Y29559645D01*
G37*
%TD.AperFunction*%
D22*
X14070483Y33068522D02*
X14373564Y32210268D01*
X10554000Y32624559D01*
X10554000Y33140525D01*
X10541000Y33205881D01*
X10541000Y33285824D01*
X13788891Y33603739D01*
X14070483Y33068522D01*
%TA.AperFunction,NonConductor*%
D23*
G36*
X14070483Y33068522D02*
G01*
X14373564Y32210268D01*
X10554000Y32624559D01*
X10554000Y33140525D01*
X10541000Y33205881D01*
X10541000Y33285824D01*
X13788891Y33603739D01*
X14070483Y33068522D01*
G37*
%TD.AperFunction*%
D22*
X49344325Y1934017D02*
X49133244Y1675206D01*
X48875913Y1462323D01*
X48582133Y1303476D01*
X48263091Y1204716D01*
X47894729Y1166000D01*
X47487135Y1166000D01*
X46327414Y2096000D01*
X49430452Y2096000D01*
X49344325Y1934017D01*
%TA.AperFunction,NonConductor*%
D23*
G36*
X49344325Y1934017D02*
G01*
X49133244Y1675206D01*
X48875913Y1462323D01*
X48582133Y1303476D01*
X48263091Y1204716D01*
X47894729Y1166000D01*
X47487135Y1166000D01*
X46327414Y2096000D01*
X49430452Y2096000D01*
X49344325Y1934017D01*
G37*
%TD.AperFunction*%
D22*
X14643318Y30247832D02*
X14645359Y30227113D01*
X14690246Y30079140D01*
X14763138Y29942767D01*
X14861236Y29823236D01*
X14980767Y29725138D01*
X15117140Y29652246D01*
X15265113Y29607359D01*
X15380439Y29596000D01*
X16993675Y29596000D01*
X38100001Y23742513D01*
X38100000Y22027139D01*
X38094471Y21971000D01*
X38100000Y21914861D01*
X38100000Y21914855D01*
X38112743Y21785478D01*
X38116539Y21746933D01*
X38123641Y21723522D01*
X38181897Y21531478D01*
X38288032Y21332912D01*
X38430867Y21158867D01*
X38474482Y21123073D01*
X40939647Y18657907D01*
X40957447Y18568421D01*
X41081903Y18267958D01*
X41262585Y17997549D01*
X41492549Y17767585D01*
X41762958Y17586903D01*
X42063421Y17462447D01*
X42382391Y17399000D01*
X42707609Y17399000D01*
X43026579Y17462447D01*
X43327042Y17586903D01*
X43597451Y17767585D01*
X43827415Y17997549D01*
X44008097Y18267958D01*
X44132553Y18568421D01*
X44196000Y18887391D01*
X44196000Y18957554D01*
X44951478Y18202076D01*
X44951483Y18202072D01*
X45350016Y17803539D01*
X45284000Y17133265D01*
X45284000Y13628734D01*
X45329753Y13164198D01*
X44116321Y11950766D01*
X44008097Y12212042D01*
X43827415Y12482451D01*
X43597451Y12712415D01*
X43327042Y12893097D01*
X43026579Y13017553D01*
X42707609Y13081000D01*
X42382391Y13081000D01*
X42063421Y13017553D01*
X41762958Y12893097D01*
X41492549Y12712415D01*
X41262585Y12482451D01*
X41081903Y12212042D01*
X40957447Y11911579D01*
X40894000Y11592609D01*
X40894000Y11267391D01*
X40957447Y10948421D01*
X41073601Y10668000D01*
X40696138Y10668000D01*
X40639999Y10673529D01*
X40583860Y10668000D01*
X40583854Y10668000D01*
X40451814Y10654995D01*
X40415932Y10651461D01*
X40350574Y10631635D01*
X40200477Y10586103D01*
X40001911Y10479968D01*
X39959387Y10445069D01*
X39877610Y10377956D01*
X39827867Y10337133D01*
X39792077Y10293523D01*
X38601478Y9102923D01*
X38557868Y9067133D01*
X38415033Y8893089D01*
X38318703Y8712867D01*
X38308898Y8694523D01*
X38267824Y8559122D01*
X35029030Y11156365D01*
X35122185Y11232815D01*
X35201537Y11329506D01*
X35260502Y11439820D01*
X35296812Y11559518D01*
X35300071Y11592609D01*
X36449000Y11592609D01*
X36449000Y11267391D01*
X36512447Y10948421D01*
X36636903Y10647958D01*
X36817585Y10377549D01*
X37047549Y10147585D01*
X37317958Y9966903D01*
X37618421Y9842447D01*
X37937391Y9779000D01*
X38262609Y9779000D01*
X38581579Y9842447D01*
X38882042Y9966903D01*
X39152451Y10147585D01*
X39382415Y10377549D01*
X39563097Y10647958D01*
X39687553Y10948421D01*
X39751000Y11267391D01*
X39751000Y11592609D01*
X39687553Y11911579D01*
X39563097Y12212042D01*
X39382415Y12482451D01*
X39152451Y12712415D01*
X38882042Y12893097D01*
X38581579Y13017553D01*
X38262609Y13081000D01*
X37937391Y13081000D01*
X37618421Y13017553D01*
X37317958Y12893097D01*
X37047549Y12712415D01*
X36817585Y12482451D01*
X36636903Y12212042D01*
X36512447Y11911579D01*
X36449000Y11592609D01*
X35300071Y11592609D01*
X35309072Y11684000D01*
X35309072Y13716000D01*
X35296812Y13840482D01*
X35260502Y13960180D01*
X35201537Y14070494D01*
X35122185Y14167185D01*
X35025494Y14246537D01*
X34915180Y14305502D01*
X34795482Y14341812D01*
X34671000Y14354072D01*
X32639000Y14354072D01*
X32514518Y14341812D01*
X32394820Y14305502D01*
X32284506Y14246537D01*
X32187815Y14167185D01*
X32108463Y14070494D01*
X32049498Y13960180D01*
X32013188Y13840482D01*
X32000928Y13716000D01*
X32000928Y13584652D01*
X30798915Y14548566D01*
X30804990Y14600720D01*
X30805411Y14623804D01*
X30808671Y14646665D01*
X30809001Y14655596D01*
X30826437Y15237430D01*
X30825153Y15256347D01*
X30826452Y15275262D01*
X30826129Y15284192D01*
X30800868Y15869596D01*
X30797788Y15891316D01*
X30797485Y15913254D01*
X30796428Y15922128D01*
X30729173Y16455114D01*
X30721318Y16489708D01*
X30716418Y16524841D01*
X30714265Y16533514D01*
X30605718Y16958091D01*
X30594686Y16988499D01*
X30586572Y17019809D01*
X30583438Y17028177D01*
X30513526Y17210989D01*
X30504589Y17228891D01*
X30498106Y17247823D01*
X30494343Y17255928D01*
X30219953Y17836304D01*
X30198568Y17872031D01*
X30179564Y17909072D01*
X30174676Y17916553D01*
X30157391Y17942609D01*
X32004000Y17942609D01*
X32004000Y17617391D01*
X32067447Y17298421D01*
X32191903Y16997958D01*
X32372585Y16727549D01*
X32602549Y16497585D01*
X32872958Y16316903D01*
X33173421Y16192447D01*
X33492391Y16129000D01*
X33817609Y16129000D01*
X34136579Y16192447D01*
X34437042Y16316903D01*
X34707451Y16497585D01*
X34937415Y16727549D01*
X35118097Y16997958D01*
X35242553Y17298421D01*
X35306000Y17617391D01*
X35306000Y17942609D01*
X35242553Y18261579D01*
X35118097Y18562042D01*
X34937415Y18832451D01*
X34707451Y19062415D01*
X34482671Y19212609D01*
X36449000Y19212609D01*
X36449000Y18887391D01*
X36512447Y18568421D01*
X36636903Y18267958D01*
X36817585Y17997549D01*
X37047549Y17767585D01*
X37317958Y17586903D01*
X37618421Y17462447D01*
X37937391Y17399000D01*
X38262609Y17399000D01*
X38581579Y17462447D01*
X38882042Y17586903D01*
X39152451Y17767585D01*
X39382415Y17997549D01*
X39563097Y18267958D01*
X39687553Y18568421D01*
X39751000Y18887391D01*
X39751000Y19212609D01*
X39687553Y19531579D01*
X39563097Y19832042D01*
X39382415Y20102451D01*
X39152451Y20332415D01*
X38882042Y20513097D01*
X38581579Y20637553D01*
X38262609Y20701000D01*
X37937391Y20701000D01*
X37618421Y20637553D01*
X37317958Y20513097D01*
X37047549Y20332415D01*
X36817585Y20102451D01*
X36636903Y19832042D01*
X36512447Y19531579D01*
X36449000Y19212609D01*
X34482671Y19212609D01*
X34437042Y19243097D01*
X34136579Y19367553D01*
X33817609Y19431000D01*
X33492391Y19431000D01*
X33173421Y19367553D01*
X32872958Y19243097D01*
X32602549Y19062415D01*
X32372585Y18832451D01*
X32191903Y18562042D01*
X32067447Y18261579D01*
X32004000Y17942609D01*
X30157391Y17942609D01*
X29828446Y18438466D01*
X29805022Y18467228D01*
X29783961Y18497758D01*
X29778146Y18504543D01*
X29319089Y19032635D01*
X29293555Y19056781D01*
X29270175Y19083032D01*
X29263567Y19089047D01*
X28733861Y19564489D01*
X28695888Y19592393D01*
X28659295Y19622096D01*
X28651806Y19626972D01*
X27903017Y20107068D01*
X27856736Y20130717D01*
X27811269Y20155871D01*
X27803041Y20159356D01*
X26986169Y20498599D01*
X26956175Y20507742D01*
X26927208Y20519766D01*
X26918641Y20522310D01*
X26845170Y20543575D01*
X26819001Y20548445D01*
X26793550Y20556218D01*
X26784777Y20557921D01*
X26310450Y20646543D01*
X26281455Y20649071D01*
X26252884Y20654613D01*
X26243981Y20655388D01*
X25681165Y20700445D01*
X25660552Y20700077D01*
X25640060Y20702409D01*
X25631124Y20702485D01*
X25042702Y20703434D01*
X25021395Y20701380D01*
X24999997Y20702077D01*
X24991084Y20701433D01*
X24439936Y20657733D01*
X24407933Y20652013D01*
X24375536Y20649321D01*
X24366756Y20647654D01*
X23915767Y20558762D01*
X23869257Y20544763D01*
X23822178Y20532804D01*
X23813795Y20529710D01*
X23491740Y20408314D01*
X21829636Y21741184D01*
X28255000Y21741184D01*
X28255000Y21438816D01*
X28313989Y21142257D01*
X28429701Y20862905D01*
X28597688Y20611495D01*
X28811495Y20397688D01*
X29062905Y20229701D01*
X29342257Y20113989D01*
X29638816Y20055000D01*
X29941184Y20055000D01*
X30237743Y20113989D01*
X30517095Y20229701D01*
X30768505Y20397688D01*
X30982312Y20611495D01*
X31150299Y20862905D01*
X31266011Y21142257D01*
X31325000Y21438816D01*
X31325000Y21741184D01*
X32755000Y21741184D01*
X32755000Y21438816D01*
X32813989Y21142257D01*
X32929701Y20862905D01*
X33097688Y20611495D01*
X33311495Y20397688D01*
X33562905Y20229701D01*
X33842257Y20113989D01*
X34138816Y20055000D01*
X34441184Y20055000D01*
X34737743Y20113989D01*
X35017095Y20229701D01*
X35268505Y20397688D01*
X35482312Y20611495D01*
X35650299Y20862905D01*
X35766011Y21142257D01*
X35825000Y21438816D01*
X35825000Y21741184D01*
X35766011Y22037743D01*
X35650299Y22317095D01*
X35482312Y22568505D01*
X35268505Y22782312D01*
X35017095Y22950299D01*
X34737743Y23066011D01*
X34441184Y23125000D01*
X34138816Y23125000D01*
X33842257Y23066011D01*
X33562905Y22950299D01*
X33311495Y22782312D01*
X33097688Y22568505D01*
X32929701Y22317095D01*
X32813989Y22037743D01*
X32755000Y21741184D01*
X31325000Y21741184D01*
X31266011Y22037743D01*
X31150299Y22317095D01*
X30982312Y22568505D01*
X30768505Y22782312D01*
X30517095Y22950299D01*
X30237743Y23066011D01*
X29941184Y23125000D01*
X29638816Y23125000D01*
X29342257Y23066011D01*
X29062905Y22950299D01*
X28811495Y22782312D01*
X28597688Y22568505D01*
X28429701Y22317095D01*
X28313989Y22037743D01*
X28255000Y21741184D01*
X21829636Y21741184D01*
X9989127Y31236288D01*
X10062087Y31345481D01*
X10197431Y31480825D01*
X14643318Y30247832D01*
%TA.AperFunction,NonConductor*%
D23*
G36*
X14643318Y30247832D02*
G01*
X14645359Y30227113D01*
X14690246Y30079140D01*
X14763138Y29942767D01*
X14861236Y29823236D01*
X14980767Y29725138D01*
X15117140Y29652246D01*
X15265113Y29607359D01*
X15380439Y29596000D01*
X16993675Y29596000D01*
X38100001Y23742513D01*
X38100000Y22027139D01*
X38094471Y21971000D01*
X38100000Y21914861D01*
X38100000Y21914855D01*
X38112743Y21785478D01*
X38116539Y21746933D01*
X38123641Y21723522D01*
X38181897Y21531478D01*
X38288032Y21332912D01*
X38430867Y21158867D01*
X38474482Y21123073D01*
X40939647Y18657907D01*
X40957447Y18568421D01*
X41081903Y18267958D01*
X41262585Y17997549D01*
X41492549Y17767585D01*
X41762958Y17586903D01*
X42063421Y17462447D01*
X42382391Y17399000D01*
X42707609Y17399000D01*
X43026579Y17462447D01*
X43327042Y17586903D01*
X43597451Y17767585D01*
X43827415Y17997549D01*
X44008097Y18267958D01*
X44132553Y18568421D01*
X44196000Y18887391D01*
X44196000Y18957554D01*
X44951478Y18202076D01*
X44951483Y18202072D01*
X45350016Y17803539D01*
X45284000Y17133265D01*
X45284000Y13628734D01*
X45329753Y13164198D01*
X44116321Y11950766D01*
X44008097Y12212042D01*
X43827415Y12482451D01*
X43597451Y12712415D01*
X43327042Y12893097D01*
X43026579Y13017553D01*
X42707609Y13081000D01*
X42382391Y13081000D01*
X42063421Y13017553D01*
X41762958Y12893097D01*
X41492549Y12712415D01*
X41262585Y12482451D01*
X41081903Y12212042D01*
X40957447Y11911579D01*
X40894000Y11592609D01*
X40894000Y11267391D01*
X40957447Y10948421D01*
X41073601Y10668000D01*
X40696138Y10668000D01*
X40639999Y10673529D01*
X40583860Y10668000D01*
X40583854Y10668000D01*
X40451814Y10654995D01*
X40415932Y10651461D01*
X40350574Y10631635D01*
X40200477Y10586103D01*
X40001911Y10479968D01*
X39959387Y10445069D01*
X39877610Y10377956D01*
X39827867Y10337133D01*
X39792077Y10293523D01*
X38601478Y9102923D01*
X38557868Y9067133D01*
X38415033Y8893089D01*
X38318703Y8712867D01*
X38308898Y8694523D01*
X38267824Y8559122D01*
X35029030Y11156365D01*
X35122185Y11232815D01*
X35201537Y11329506D01*
X35260502Y11439820D01*
X35296812Y11559518D01*
X35300071Y11592609D01*
X36449000Y11592609D01*
X36449000Y11267391D01*
X36512447Y10948421D01*
X36636903Y10647958D01*
X36817585Y10377549D01*
X37047549Y10147585D01*
X37317958Y9966903D01*
X37618421Y9842447D01*
X37937391Y9779000D01*
X38262609Y9779000D01*
X38581579Y9842447D01*
X38882042Y9966903D01*
X39152451Y10147585D01*
X39382415Y10377549D01*
X39563097Y10647958D01*
X39687553Y10948421D01*
X39751000Y11267391D01*
X39751000Y11592609D01*
X39687553Y11911579D01*
X39563097Y12212042D01*
X39382415Y12482451D01*
X39152451Y12712415D01*
X38882042Y12893097D01*
X38581579Y13017553D01*
X38262609Y13081000D01*
X37937391Y13081000D01*
X37618421Y13017553D01*
X37317958Y12893097D01*
X37047549Y12712415D01*
X36817585Y12482451D01*
X36636903Y12212042D01*
X36512447Y11911579D01*
X36449000Y11592609D01*
X35300071Y11592609D01*
X35309072Y11684000D01*
X35309072Y13716000D01*
X35296812Y13840482D01*
X35260502Y13960180D01*
X35201537Y14070494D01*
X35122185Y14167185D01*
X35025494Y14246537D01*
X34915180Y14305502D01*
X34795482Y14341812D01*
X34671000Y14354072D01*
X32639000Y14354072D01*
X32514518Y14341812D01*
X32394820Y14305502D01*
X32284506Y14246537D01*
X32187815Y14167185D01*
X32108463Y14070494D01*
X32049498Y13960180D01*
X32013188Y13840482D01*
X32000928Y13716000D01*
X32000928Y13584652D01*
X30798915Y14548566D01*
X30804990Y14600720D01*
X30805411Y14623804D01*
X30808671Y14646665D01*
X30809001Y14655596D01*
X30826437Y15237430D01*
X30825153Y15256347D01*
X30826452Y15275262D01*
X30826129Y15284192D01*
X30800868Y15869596D01*
X30797788Y15891316D01*
X30797485Y15913254D01*
X30796428Y15922128D01*
X30729173Y16455114D01*
X30721318Y16489708D01*
X30716418Y16524841D01*
X30714265Y16533514D01*
X30605718Y16958091D01*
X30594686Y16988499D01*
X30586572Y17019809D01*
X30583438Y17028177D01*
X30513526Y17210989D01*
X30504589Y17228891D01*
X30498106Y17247823D01*
X30494343Y17255928D01*
X30219953Y17836304D01*
X30198568Y17872031D01*
X30179564Y17909072D01*
X30174676Y17916553D01*
X30157391Y17942609D01*
X32004000Y17942609D01*
X32004000Y17617391D01*
X32067447Y17298421D01*
X32191903Y16997958D01*
X32372585Y16727549D01*
X32602549Y16497585D01*
X32872958Y16316903D01*
X33173421Y16192447D01*
X33492391Y16129000D01*
X33817609Y16129000D01*
X34136579Y16192447D01*
X34437042Y16316903D01*
X34707451Y16497585D01*
X34937415Y16727549D01*
X35118097Y16997958D01*
X35242553Y17298421D01*
X35306000Y17617391D01*
X35306000Y17942609D01*
X35242553Y18261579D01*
X35118097Y18562042D01*
X34937415Y18832451D01*
X34707451Y19062415D01*
X34482671Y19212609D01*
X36449000Y19212609D01*
X36449000Y18887391D01*
X36512447Y18568421D01*
X36636903Y18267958D01*
X36817585Y17997549D01*
X37047549Y17767585D01*
X37317958Y17586903D01*
X37618421Y17462447D01*
X37937391Y17399000D01*
X38262609Y17399000D01*
X38581579Y17462447D01*
X38882042Y17586903D01*
X39152451Y17767585D01*
X39382415Y17997549D01*
X39563097Y18267958D01*
X39687553Y18568421D01*
X39751000Y18887391D01*
X39751000Y19212609D01*
X39687553Y19531579D01*
X39563097Y19832042D01*
X39382415Y20102451D01*
X39152451Y20332415D01*
X38882042Y20513097D01*
X38581579Y20637553D01*
X38262609Y20701000D01*
X37937391Y20701000D01*
X37618421Y20637553D01*
X37317958Y20513097D01*
X37047549Y20332415D01*
X36817585Y20102451D01*
X36636903Y19832042D01*
X36512447Y19531579D01*
X36449000Y19212609D01*
X34482671Y19212609D01*
X34437042Y19243097D01*
X34136579Y19367553D01*
X33817609Y19431000D01*
X33492391Y19431000D01*
X33173421Y19367553D01*
X32872958Y19243097D01*
X32602549Y19062415D01*
X32372585Y18832451D01*
X32191903Y18562042D01*
X32067447Y18261579D01*
X32004000Y17942609D01*
X30157391Y17942609D01*
X29828446Y18438466D01*
X29805022Y18467228D01*
X29783961Y18497758D01*
X29778146Y18504543D01*
X29319089Y19032635D01*
X29293555Y19056781D01*
X29270175Y19083032D01*
X29263567Y19089047D01*
X28733861Y19564489D01*
X28695888Y19592393D01*
X28659295Y19622096D01*
X28651806Y19626972D01*
X27903017Y20107068D01*
X27856736Y20130717D01*
X27811269Y20155871D01*
X27803041Y20159356D01*
X26986169Y20498599D01*
X26956175Y20507742D01*
X26927208Y20519766D01*
X26918641Y20522310D01*
X26845170Y20543575D01*
X26819001Y20548445D01*
X26793550Y20556218D01*
X26784777Y20557921D01*
X26310450Y20646543D01*
X26281455Y20649071D01*
X26252884Y20654613D01*
X26243981Y20655388D01*
X25681165Y20700445D01*
X25660552Y20700077D01*
X25640060Y20702409D01*
X25631124Y20702485D01*
X25042702Y20703434D01*
X25021395Y20701380D01*
X24999997Y20702077D01*
X24991084Y20701433D01*
X24439936Y20657733D01*
X24407933Y20652013D01*
X24375536Y20649321D01*
X24366756Y20647654D01*
X23915767Y20558762D01*
X23869257Y20544763D01*
X23822178Y20532804D01*
X23813795Y20529710D01*
X23491740Y20408314D01*
X21829636Y21741184D01*
X28255000Y21741184D01*
X28255000Y21438816D01*
X28313989Y21142257D01*
X28429701Y20862905D01*
X28597688Y20611495D01*
X28811495Y20397688D01*
X29062905Y20229701D01*
X29342257Y20113989D01*
X29638816Y20055000D01*
X29941184Y20055000D01*
X30237743Y20113989D01*
X30517095Y20229701D01*
X30768505Y20397688D01*
X30982312Y20611495D01*
X31150299Y20862905D01*
X31266011Y21142257D01*
X31325000Y21438816D01*
X31325000Y21741184D01*
X32755000Y21741184D01*
X32755000Y21438816D01*
X32813989Y21142257D01*
X32929701Y20862905D01*
X33097688Y20611495D01*
X33311495Y20397688D01*
X33562905Y20229701D01*
X33842257Y20113989D01*
X34138816Y20055000D01*
X34441184Y20055000D01*
X34737743Y20113989D01*
X35017095Y20229701D01*
X35268505Y20397688D01*
X35482312Y20611495D01*
X35650299Y20862905D01*
X35766011Y21142257D01*
X35825000Y21438816D01*
X35825000Y21741184D01*
X35766011Y22037743D01*
X35650299Y22317095D01*
X35482312Y22568505D01*
X35268505Y22782312D01*
X35017095Y22950299D01*
X34737743Y23066011D01*
X34441184Y23125000D01*
X34138816Y23125000D01*
X33842257Y23066011D01*
X33562905Y22950299D01*
X33311495Y22782312D01*
X33097688Y22568505D01*
X32929701Y22317095D01*
X32813989Y22037743D01*
X32755000Y21741184D01*
X31325000Y21741184D01*
X31266011Y22037743D01*
X31150299Y22317095D01*
X30982312Y22568505D01*
X30768505Y22782312D01*
X30517095Y22950299D01*
X30237743Y23066011D01*
X29941184Y23125000D01*
X29638816Y23125000D01*
X29342257Y23066011D01*
X29062905Y22950299D01*
X28811495Y22782312D01*
X28597688Y22568505D01*
X28429701Y22317095D01*
X28313989Y22037743D01*
X28255000Y21741184D01*
X21829636Y21741184D01*
X9989127Y31236288D01*
X10062087Y31345481D01*
X10197431Y31480825D01*
X14643318Y30247832D01*
G37*
%TD.AperFunction*%
D22*
X46770439Y10232438D02*
X47460646Y9666000D01*
X45064446Y9666000D01*
X45678923Y10280477D01*
X45678927Y10280482D01*
X46256779Y10858334D01*
X46770439Y10232438D01*
%TA.AperFunction,NonConductor*%
D23*
G36*
X46770439Y10232438D02*
G01*
X47460646Y9666000D01*
X45064446Y9666000D01*
X45678923Y10280477D01*
X45678927Y10280482D01*
X46256779Y10858334D01*
X46770439Y10232438D01*
G37*
%TD.AperFunction*%
D22*
X46770438Y20529562D02*
X46358650Y20027796D01*
X45290445Y21096000D01*
X47460645Y21096000D01*
X46770438Y20529562D01*
%TA.AperFunction,NonConductor*%
D23*
G36*
X46770438Y20529562D02*
G01*
X46358650Y20027796D01*
X45290445Y21096000D01*
X47460645Y21096000D01*
X46770438Y20529562D01*
G37*
%TD.AperFunction*%
D22*
X28255000Y2458554D02*
X28255000Y2388816D01*
X28313989Y2092257D01*
X28429701Y1812905D01*
X28597688Y1561495D01*
X28811495Y1347688D01*
X29062905Y1179701D01*
X29095982Y1166000D01*
X12615492Y1166000D01*
X12206755Y4177745D01*
X12432644Y4026811D01*
X12779332Y3883209D01*
X13147374Y3810000D01*
X13522626Y3810000D01*
X13890668Y3883209D01*
X14237356Y4026811D01*
X14549366Y4235290D01*
X14814710Y4500634D01*
X14862395Y4572000D01*
X26141555Y4572000D01*
X28255000Y2458554D01*
%TA.AperFunction,NonConductor*%
D23*
G36*
X28255000Y2458554D02*
G01*
X28255000Y2388816D01*
X28313989Y2092257D01*
X28429701Y1812905D01*
X28597688Y1561495D01*
X28811495Y1347688D01*
X29062905Y1179701D01*
X29095982Y1166000D01*
X12615492Y1166000D01*
X12206755Y4177745D01*
X12432644Y4026811D01*
X12779332Y3883209D01*
X13147374Y3810000D01*
X13522626Y3810000D01*
X13890668Y3883209D01*
X14237356Y4026811D01*
X14549366Y4235290D01*
X14814710Y4500634D01*
X14862395Y4572000D01*
X26141555Y4572000D01*
X28255000Y2458554D01*
G37*
%TD.AperFunction*%
D22*
X30795211Y1166000D02*
X30484018Y1166000D01*
X30517095Y1179701D01*
X30696625Y1299660D01*
X30795211Y1166000D01*
%TA.AperFunction,NonConductor*%
D23*
G36*
X30795211Y1166000D02*
G01*
X30484018Y1166000D01*
X30517095Y1179701D01*
X30696625Y1299660D01*
X30795211Y1166000D01*
G37*
%TD.AperFunction*%
D22*
X19881758Y15962125D02*
X19854470Y15603537D01*
X19854469Y15603523D01*
X19852156Y15573126D01*
X19852498Y15557457D01*
X19850546Y15541905D01*
X19850366Y15532971D01*
X19845645Y15173468D01*
X19845645Y15173463D01*
X19842992Y14971333D01*
X19844359Y14955214D01*
X19843382Y14939062D01*
X19843778Y14930134D01*
X19870746Y14404614D01*
X19874581Y14379066D01*
X19875464Y14353241D01*
X19876701Y14344391D01*
X19939142Y13919358D01*
X19951833Y13868298D01*
X19962934Y13816888D01*
X19965723Y13808398D01*
X20175985Y13183106D01*
X20195834Y13138909D01*
X20213730Y13093866D01*
X20217880Y13085952D01*
X20302091Y12928029D01*
X20302094Y12928024D01*
X20568698Y12428053D01*
X20590946Y12394653D01*
X20610800Y12359780D01*
X20616010Y12352519D01*
X21074122Y11723229D01*
X21099535Y11694660D01*
X21122715Y11664232D01*
X21128844Y11657729D01*
X21666057Y11095580D01*
X21698578Y11067608D01*
X21729319Y11037696D01*
X21736340Y11032168D01*
X21759307Y11014342D01*
X22324464Y10575691D01*
X22356881Y10555263D01*
X22387671Y10532433D01*
X22395367Y10527890D01*
X22664755Y10371379D01*
X22686822Y10361296D01*
X22707526Y10348649D01*
X22715598Y10344814D01*
X23211829Y10113219D01*
X23234098Y10105369D01*
X23255247Y10094871D01*
X23263623Y10091757D01*
X23783984Y9902383D01*
X23812206Y9895138D01*
X23839534Y9884983D01*
X23848190Y9882764D01*
X24314001Y9766756D01*
X24347510Y9761817D01*
X24380453Y9753894D01*
X24389313Y9752725D01*
X24469093Y9742756D01*
X26594283Y6861489D01*
X26558861Y6858000D01*
X14862395Y6858000D01*
X14814710Y6929366D01*
X14549366Y7194710D01*
X14478000Y7242395D01*
X14478000Y7451928D01*
X14735000Y7451928D01*
X14859482Y7464188D01*
X14979180Y7500498D01*
X15089494Y7559463D01*
X15186185Y7638815D01*
X15265537Y7735506D01*
X15324502Y7845820D01*
X15360812Y7965518D01*
X15373072Y8090000D01*
X15373072Y9690000D01*
X15360812Y9814482D01*
X15324502Y9934180D01*
X15265537Y10044494D01*
X15186185Y10141185D01*
X15089494Y10220537D01*
X14979180Y10279502D01*
X14859482Y10315812D01*
X14735000Y10328072D01*
X11935000Y10328072D01*
X11810518Y10315812D01*
X11690820Y10279502D01*
X11580506Y10220537D01*
X11483815Y10141185D01*
X11409689Y10050862D01*
X9843664Y21590000D01*
X11293057Y21590000D01*
X11320764Y21308691D01*
X11402818Y21038192D01*
X11536068Y20788899D01*
X11715392Y20570392D01*
X11933899Y20391068D01*
X12183192Y20257818D01*
X12453691Y20175764D01*
X12664508Y20155000D01*
X14005492Y20155000D01*
X14216309Y20175764D01*
X14486808Y20257818D01*
X14736101Y20391068D01*
X14954608Y20570392D01*
X15133932Y20788899D01*
X15267182Y21038192D01*
X15349236Y21308691D01*
X15376943Y21590000D01*
X15349236Y21871309D01*
X15267182Y22141808D01*
X15133932Y22391101D01*
X14954608Y22609608D01*
X14736101Y22788932D01*
X14486808Y22922182D01*
X14216309Y23004236D01*
X14005492Y23025000D01*
X12664508Y23025000D01*
X12453691Y23004236D01*
X12183192Y22922182D01*
X11933899Y22788932D01*
X11715392Y22609608D01*
X11536068Y22391101D01*
X11402818Y22141808D01*
X11320764Y21871309D01*
X11293057Y21590000D01*
X9843664Y21590000D01*
X8656030Y30340981D01*
X8687601Y30347261D01*
X9134813Y30532502D01*
X19881758Y15962125D01*
%TA.AperFunction,NonConductor*%
D23*
G36*
X19881758Y15962125D02*
G01*
X19854470Y15603537D01*
X19854469Y15603523D01*
X19852156Y15573126D01*
X19852498Y15557457D01*
X19850546Y15541905D01*
X19850366Y15532971D01*
X19845645Y15173468D01*
X19845645Y15173463D01*
X19842992Y14971333D01*
X19844359Y14955214D01*
X19843382Y14939062D01*
X19843778Y14930134D01*
X19870746Y14404614D01*
X19874581Y14379066D01*
X19875464Y14353241D01*
X19876701Y14344391D01*
X19939142Y13919358D01*
X19951833Y13868298D01*
X19962934Y13816888D01*
X19965723Y13808398D01*
X20175985Y13183106D01*
X20195834Y13138909D01*
X20213730Y13093866D01*
X20217880Y13085952D01*
X20302091Y12928029D01*
X20302094Y12928024D01*
X20568698Y12428053D01*
X20590946Y12394653D01*
X20610800Y12359780D01*
X20616010Y12352519D01*
X21074122Y11723229D01*
X21099535Y11694660D01*
X21122715Y11664232D01*
X21128844Y11657729D01*
X21666057Y11095580D01*
X21698578Y11067608D01*
X21729319Y11037696D01*
X21736340Y11032168D01*
X21759307Y11014342D01*
X22324464Y10575691D01*
X22356881Y10555263D01*
X22387671Y10532433D01*
X22395367Y10527890D01*
X22664755Y10371379D01*
X22686822Y10361296D01*
X22707526Y10348649D01*
X22715598Y10344814D01*
X23211829Y10113219D01*
X23234098Y10105369D01*
X23255247Y10094871D01*
X23263623Y10091757D01*
X23783984Y9902383D01*
X23812206Y9895138D01*
X23839534Y9884983D01*
X23848190Y9882764D01*
X24314001Y9766756D01*
X24347510Y9761817D01*
X24380453Y9753894D01*
X24389313Y9752725D01*
X24469093Y9742756D01*
X26594283Y6861489D01*
X26558861Y6858000D01*
X14862395Y6858000D01*
X14814710Y6929366D01*
X14549366Y7194710D01*
X14478000Y7242395D01*
X14478000Y7451928D01*
X14735000Y7451928D01*
X14859482Y7464188D01*
X14979180Y7500498D01*
X15089494Y7559463D01*
X15186185Y7638815D01*
X15265537Y7735506D01*
X15324502Y7845820D01*
X15360812Y7965518D01*
X15373072Y8090000D01*
X15373072Y9690000D01*
X15360812Y9814482D01*
X15324502Y9934180D01*
X15265537Y10044494D01*
X15186185Y10141185D01*
X15089494Y10220537D01*
X14979180Y10279502D01*
X14859482Y10315812D01*
X14735000Y10328072D01*
X11935000Y10328072D01*
X11810518Y10315812D01*
X11690820Y10279502D01*
X11580506Y10220537D01*
X11483815Y10141185D01*
X11409689Y10050862D01*
X9843664Y21590000D01*
X11293057Y21590000D01*
X11320764Y21308691D01*
X11402818Y21038192D01*
X11536068Y20788899D01*
X11715392Y20570392D01*
X11933899Y20391068D01*
X12183192Y20257818D01*
X12453691Y20175764D01*
X12664508Y20155000D01*
X14005492Y20155000D01*
X14216309Y20175764D01*
X14486808Y20257818D01*
X14736101Y20391068D01*
X14954608Y20570392D01*
X15133932Y20788899D01*
X15267182Y21038192D01*
X15349236Y21308691D01*
X15376943Y21590000D01*
X15349236Y21871309D01*
X15267182Y22141808D01*
X15133932Y22391101D01*
X14954608Y22609608D01*
X14736101Y22788932D01*
X14486808Y22922182D01*
X14216309Y23004236D01*
X14005492Y23025000D01*
X12664508Y23025000D01*
X12453691Y23004236D01*
X12183192Y22922182D01*
X11933899Y22788932D01*
X11715392Y22609608D01*
X11536068Y22391101D01*
X11402818Y22141808D01*
X11320764Y21871309D01*
X11293057Y21590000D01*
X9843664Y21590000D01*
X8656030Y30340981D01*
X8687601Y30347261D01*
X9134813Y30532502D01*
X19881758Y15962125D01*
G37*
%TD.AperFunction*%
D22*
X11810518Y7464188D02*
X11935000Y7451928D01*
X12192001Y7451928D01*
X12192000Y7242396D01*
X12120634Y7194710D01*
X11855290Y6929366D01*
X11837030Y6902038D01*
X11758601Y7479937D01*
X11810518Y7464188D01*
%TA.AperFunction,NonConductor*%
D23*
G36*
X11810518Y7464188D02*
G01*
X11935000Y7451928D01*
X12192001Y7451928D01*
X12192000Y7242396D01*
X12120634Y7194710D01*
X11855290Y6929366D01*
X11837030Y6902038D01*
X11758601Y7479937D01*
X11810518Y7464188D01*
G37*
%TD.AperFunction*%
D22*
X6449013Y30694126D02*
X6670859Y30545893D01*
X7150399Y30347261D01*
X7360326Y30305504D01*
X6423699Y1166000D01*
X2957389Y1166000D01*
X2586619Y1202355D01*
X2266900Y1298884D01*
X1972017Y1455675D01*
X1713206Y1666756D01*
X1500323Y1924087D01*
X1341476Y2217867D01*
X1242716Y2536909D01*
X1204000Y2905271D01*
X1204000Y8798470D01*
X1425636Y8820299D01*
X2393588Y9113924D01*
X2794001Y9327949D01*
X2794000Y7242396D01*
X2722634Y7194710D01*
X2457290Y6929366D01*
X2248811Y6617356D01*
X2105209Y6270668D01*
X2032000Y5902626D01*
X2032000Y5527374D01*
X2105209Y5159332D01*
X2248811Y4812644D01*
X2457290Y4500634D01*
X2722634Y4235290D01*
X3034644Y4026811D01*
X3381332Y3883209D01*
X3749374Y3810000D01*
X4124626Y3810000D01*
X4492668Y3883209D01*
X4839356Y4026811D01*
X5151366Y4235290D01*
X5416710Y4500634D01*
X5625189Y4812644D01*
X5768791Y5159332D01*
X5842000Y5527374D01*
X5842000Y5902626D01*
X5768791Y6270668D01*
X5625189Y6617356D01*
X5416710Y6929366D01*
X5151366Y7194710D01*
X5080000Y7242395D01*
X5080000Y11707958D01*
X5186076Y11906412D01*
X5479701Y12874365D01*
X5554000Y13628735D01*
X5554000Y17133266D01*
X5479701Y17887636D01*
X5186076Y18855588D01*
X4709255Y19747657D01*
X4067562Y20529562D01*
X3285656Y21171255D01*
X2546702Y21566234D01*
X6421128Y30703421D01*
X6449013Y30694126D01*
%TA.AperFunction,NonConductor*%
D23*
G36*
X6449013Y30694126D02*
G01*
X6670859Y30545893D01*
X7150399Y30347261D01*
X7360326Y30305504D01*
X6423699Y1166000D01*
X2957389Y1166000D01*
X2586619Y1202355D01*
X2266900Y1298884D01*
X1972017Y1455675D01*
X1713206Y1666756D01*
X1500323Y1924087D01*
X1341476Y2217867D01*
X1242716Y2536909D01*
X1204000Y2905271D01*
X1204000Y8798470D01*
X1425636Y8820299D01*
X2393588Y9113924D01*
X2794001Y9327949D01*
X2794000Y7242396D01*
X2722634Y7194710D01*
X2457290Y6929366D01*
X2248811Y6617356D01*
X2105209Y6270668D01*
X2032000Y5902626D01*
X2032000Y5527374D01*
X2105209Y5159332D01*
X2248811Y4812644D01*
X2457290Y4500634D01*
X2722634Y4235290D01*
X3034644Y4026811D01*
X3381332Y3883209D01*
X3749374Y3810000D01*
X4124626Y3810000D01*
X4492668Y3883209D01*
X4839356Y4026811D01*
X5151366Y4235290D01*
X5416710Y4500634D01*
X5625189Y4812644D01*
X5768791Y5159332D01*
X5842000Y5527374D01*
X5842000Y5902626D01*
X5768791Y6270668D01*
X5625189Y6617356D01*
X5416710Y6929366D01*
X5151366Y7194710D01*
X5080000Y7242395D01*
X5080000Y11707958D01*
X5186076Y11906412D01*
X5479701Y12874365D01*
X5554000Y13628735D01*
X5554000Y17133266D01*
X5479701Y17887636D01*
X5186076Y18855588D01*
X4709255Y19747657D01*
X4067562Y20529562D01*
X3285656Y21171255D01*
X2546702Y21566234D01*
X6421128Y30703421D01*
X6449013Y30694126D01*
G37*
%TD.AperFunction*%
D22*
X5687795Y31393430D02*
X1204000Y26841698D01*
X1204000Y30352554D01*
X1276377Y31350059D01*
X1374045Y31792436D01*
X5384571Y31999877D01*
X5687795Y31393430D01*
%TA.AperFunction,NonConductor*%
D23*
G36*
X5687795Y31393430D02*
G01*
X1204000Y26841698D01*
X1204000Y30352554D01*
X1276377Y31350059D01*
X1374045Y31792436D01*
X5384571Y31999877D01*
X5687795Y31393430D01*
G37*
%TD.AperFunction*%
D22*
X5451701Y33863716D02*
X5436721Y33773837D01*
X5385261Y33649601D01*
X5318134Y33312131D01*
X2293745Y34042157D01*
X2301855Y34056758D01*
X2891308Y34829127D01*
X3586083Y35508314D01*
X3671058Y35570166D01*
X5451701Y33863716D01*
%TA.AperFunction,NonConductor*%
D23*
G36*
X5451701Y33863716D02*
G01*
X5436721Y33773837D01*
X5385261Y33649601D01*
X5318134Y33312131D01*
X2293745Y34042157D01*
X2301855Y34056758D01*
X2891308Y34829127D01*
X3586083Y35508314D01*
X3671058Y35570166D01*
X5451701Y33863716D01*
G37*
%TD.AperFunction*%
D22*
X6723221Y35246239D02*
X6677777Y35218972D01*
X6670859Y35216107D01*
X6652009Y35203512D01*
X6258664Y34967505D01*
X5173357Y36501904D01*
X5231478Y36532483D01*
X6147635Y36856012D01*
X6545516Y36934434D01*
X6723221Y35246239D01*
%TA.AperFunction,NonConductor*%
D23*
G36*
X6723221Y35246239D02*
G01*
X6677777Y35218972D01*
X6670859Y35216107D01*
X6652009Y35203512D01*
X6258664Y34967505D01*
X5173357Y36501904D01*
X5231478Y36532483D01*
X6147635Y36856012D01*
X6545516Y36934434D01*
X6723221Y35246239D01*
G37*
%TD.AperFunction*%
D22*
X8888059Y37023623D02*
X9771254Y36828631D01*
X8846449Y35348942D01*
X8687601Y35414739D01*
X8178525Y35516000D01*
X8065633Y35516000D01*
X8006421Y35530803D01*
X8089498Y37081565D01*
X8888059Y37023623D01*
%TA.AperFunction,NonConductor*%
D23*
G36*
X8888059Y37023623D02*
G01*
X9771254Y36828631D01*
X8846449Y35348942D01*
X8687601Y35414739D01*
X8178525Y35516000D01*
X8065633Y35516000D01*
X8006421Y35530803D01*
X8089498Y37081565D01*
X8888059Y37023623D01*
G37*
%TD.AperFunction*%
D22*
X11594758Y35998145D02*
X12367127Y35408692D01*
X12878847Y34885228D01*
X10093253Y34428573D01*
X9939853Y34658672D01*
X11310024Y36156301D01*
X11594758Y35998145D01*
%TA.AperFunction,NonConductor*%
D23*
G36*
X11594758Y35998145D02*
G01*
X12367127Y35408692D01*
X12878847Y34885228D01*
X10093253Y34428573D01*
X9939853Y34658672D01*
X11310024Y36156301D01*
X11594758Y35998145D01*
G37*
%TD.AperFunction*%
M02*
