%TF.GenerationSoftware,KiCad,Pcbnew,8.0.3*%
%TF.CreationDate,2024-06-26T12:27:57+01:00*%
%TF.ProjectId,SolderSolar,536f6c64-6572-4536-9f6c-61722e6b6963,rev?*%
%TF.SameCoordinates,PX6350ce0PY463f660*%
%TF.FileFunction,Soldermask,Top*%
%TF.FilePolarity,Negative*%
%FSLAX46Y46*%
G04 Gerber Fmt 4.6, Leading zero omitted, Abs format (unit mm)*
G04 Created by KiCad (PCBNEW 8.0.3) date 2024-06-26 12:27:57*
%MOMM*%
%LPD*%
G01*
G04 APERTURE LIST*
%ADD10C,0.010000*%
%ADD11C,4.000000*%
%ADD12O,9.000000X10.000000*%
%ADD13C,2.540000*%
%ADD14C,2.032000*%
%ADD15C,1.800000*%
%ADD16R,2.800000X1.600000*%
%ADD17O,2.800000X1.600000*%
%ADD18R,2.032000X2.032000*%
G04 APERTURE END LIST*
D10*
%TO.C,P2*%
X25996312Y19491661D02*
X26297943Y19490627D01*
X26568985Y19488007D01*
X26798622Y19484037D01*
X26976038Y19478951D01*
X27090419Y19472986D01*
X27130949Y19466376D01*
X27128202Y19460735D01*
X27089395Y19400044D01*
X27008249Y19278697D01*
X26889275Y19103287D01*
X26736987Y18880408D01*
X26555896Y18616651D01*
X26350517Y18318609D01*
X26125360Y17992875D01*
X25884940Y17646042D01*
X25799368Y17522725D01*
X25564469Y17183784D01*
X25346760Y16869031D01*
X25150694Y16584941D01*
X24980721Y16337986D01*
X24841292Y16134641D01*
X24736857Y15981379D01*
X24671869Y15884675D01*
X24650778Y15851001D01*
X24673361Y15856654D01*
X24767033Y15882010D01*
X24922920Y15924898D01*
X25129764Y15982207D01*
X25376308Y16050823D01*
X25651294Y16127634D01*
X25845694Y16181508D01*
X26106786Y16252124D01*
X26333912Y16311516D01*
X26515212Y16356670D01*
X26638827Y16384575D01*
X26692896Y16392217D01*
X26690891Y16382014D01*
X26655962Y16311283D01*
X26583808Y16179680D01*
X26478929Y15994761D01*
X26345823Y15764087D01*
X26188991Y15495217D01*
X26012932Y15195709D01*
X25822145Y14873123D01*
X25621130Y14535018D01*
X25414386Y14188953D01*
X25206414Y13842487D01*
X25001712Y13503179D01*
X24804780Y13178589D01*
X24620118Y12876276D01*
X24452225Y12603797D01*
X24305601Y12368714D01*
X24184745Y12178585D01*
X24138528Y12114633D01*
X24104205Y12083335D01*
X24103347Y12083497D01*
X24102032Y12096664D01*
X24111513Y12135149D01*
X24134001Y12204907D01*
X24171705Y12311894D01*
X24226835Y12462062D01*
X24301602Y12661368D01*
X24398216Y12915765D01*
X24518887Y13231207D01*
X24665824Y13613651D01*
X24841239Y14069050D01*
X24931566Y14303990D01*
X25045097Y14601238D01*
X25145202Y14865587D01*
X25228439Y15087830D01*
X25291368Y15258761D01*
X25330545Y15369175D01*
X25342530Y15409866D01*
X25341488Y15410066D01*
X25292010Y15394409D01*
X25178006Y15351370D01*
X25011544Y15285701D01*
X24804693Y15202153D01*
X24569522Y15105480D01*
X24523941Y15086598D01*
X24233911Y14966985D01*
X24012115Y14877246D01*
X23849944Y14814748D01*
X23738786Y14776856D01*
X23670032Y14760935D01*
X23635071Y14764350D01*
X23625294Y14784468D01*
X23632089Y14818654D01*
X23634963Y14829016D01*
X23656248Y14911176D01*
X23695266Y15064711D01*
X23750006Y15281613D01*
X23818455Y15553874D01*
X23898603Y15873485D01*
X23988438Y16232438D01*
X24085948Y16622724D01*
X24189122Y17036335D01*
X24222017Y17168291D01*
X24324579Y17579480D01*
X24421395Y17967288D01*
X24510363Y18323318D01*
X24589382Y18639174D01*
X24656350Y18906458D01*
X24709165Y19116775D01*
X24745726Y19261727D01*
X24763931Y19332918D01*
X24805879Y19491668D01*
X25968414Y19491668D01*
X25996312Y19491661D01*
G36*
X25996312Y19491661D02*
G01*
X26297943Y19490627D01*
X26568985Y19488007D01*
X26798622Y19484037D01*
X26976038Y19478951D01*
X27090419Y19472986D01*
X27130949Y19466376D01*
X27128202Y19460735D01*
X27089395Y19400044D01*
X27008249Y19278697D01*
X26889275Y19103287D01*
X26736987Y18880408D01*
X26555896Y18616651D01*
X26350517Y18318609D01*
X26125360Y17992875D01*
X25884940Y17646042D01*
X25799368Y17522725D01*
X25564469Y17183784D01*
X25346760Y16869031D01*
X25150694Y16584941D01*
X24980721Y16337986D01*
X24841292Y16134641D01*
X24736857Y15981379D01*
X24671869Y15884675D01*
X24650778Y15851001D01*
X24673361Y15856654D01*
X24767033Y15882010D01*
X24922920Y15924898D01*
X25129764Y15982207D01*
X25376308Y16050823D01*
X25651294Y16127634D01*
X25845694Y16181508D01*
X26106786Y16252124D01*
X26333912Y16311516D01*
X26515212Y16356670D01*
X26638827Y16384575D01*
X26692896Y16392217D01*
X26690891Y16382014D01*
X26655962Y16311283D01*
X26583808Y16179680D01*
X26478929Y15994761D01*
X26345823Y15764087D01*
X26188991Y15495217D01*
X26012932Y15195709D01*
X25822145Y14873123D01*
X25621130Y14535018D01*
X25414386Y14188953D01*
X25206414Y13842487D01*
X25001712Y13503179D01*
X24804780Y13178589D01*
X24620118Y12876276D01*
X24452225Y12603797D01*
X24305601Y12368714D01*
X24184745Y12178585D01*
X24138528Y12114633D01*
X24104205Y12083335D01*
X24103347Y12083497D01*
X24102032Y12096664D01*
X24111513Y12135149D01*
X24134001Y12204907D01*
X24171705Y12311894D01*
X24226835Y12462062D01*
X24301602Y12661368D01*
X24398216Y12915765D01*
X24518887Y13231207D01*
X24665824Y13613651D01*
X24841239Y14069050D01*
X24931566Y14303990D01*
X25045097Y14601238D01*
X25145202Y14865587D01*
X25228439Y15087830D01*
X25291368Y15258761D01*
X25330545Y15369175D01*
X25342530Y15409866D01*
X25341488Y15410066D01*
X25292010Y15394409D01*
X25178006Y15351370D01*
X25011544Y15285701D01*
X24804693Y15202153D01*
X24569522Y15105480D01*
X24523941Y15086598D01*
X24233911Y14966985D01*
X24012115Y14877246D01*
X23849944Y14814748D01*
X23738786Y14776856D01*
X23670032Y14760935D01*
X23635071Y14764350D01*
X23625294Y14784468D01*
X23632089Y14818654D01*
X23634963Y14829016D01*
X23656248Y14911176D01*
X23695266Y15064711D01*
X23750006Y15281613D01*
X23818455Y15553874D01*
X23898603Y15873485D01*
X23988438Y16232438D01*
X24085948Y16622724D01*
X24189122Y17036335D01*
X24222017Y17168291D01*
X24324579Y17579480D01*
X24421395Y17967288D01*
X24510363Y18323318D01*
X24589382Y18639174D01*
X24656350Y18906458D01*
X24709165Y19116775D01*
X24745726Y19261727D01*
X24763931Y19332918D01*
X24805879Y19491668D01*
X25968414Y19491668D01*
X25996312Y19491661D01*
G37*
%TD*%
D11*
%TO.C,SC1*%
X7919000Y32881000D03*
D12*
X419000Y15381000D03*
X50419000Y15381000D03*
%TD*%
D13*
%TO.C,D1*%
X13335000Y5715000D03*
X3937000Y5715000D03*
%TD*%
D14*
%TO.C,R1*%
X42545000Y19050000D03*
X42545000Y11430000D03*
%TD*%
%TO.C,R2*%
X38100000Y19050000D03*
X38100000Y11430000D03*
%TD*%
D15*
%TO.C,SW1*%
X29790000Y21590000D03*
X34290000Y21590000D03*
X29790000Y28090000D03*
X34290000Y28090000D03*
%TD*%
%TO.C,SW2*%
X29790000Y2540000D03*
X34290000Y2540000D03*
X29790000Y9040000D03*
X34290000Y9040000D03*
%TD*%
D16*
%TO.C,C1*%
X13335000Y8890000D03*
X13335000Y10668000D03*
X13335000Y12446000D03*
D17*
X13335000Y21590000D03*
%TD*%
D18*
%TO.C,D2*%
X41275000Y23495000D03*
D14*
X41275000Y26035000D03*
%TD*%
D18*
%TO.C,D3*%
X41275000Y4445000D03*
D14*
X41275000Y6985000D03*
%TD*%
M02*
