%TF.GenerationSoftware,KiCad,Pcbnew,8.0.3*%
%TF.CreationDate,2024-06-26T12:27:57+01:00*%
%TF.ProjectId,SolderSolar,536f6c64-6572-4536-9f6c-61722e6b6963,rev?*%
%TF.SameCoordinates,PX6350ce0PY463f660*%
%TF.FileFunction,Copper,L1,Top*%
%TF.FilePolarity,Positive*%
%FSLAX46Y46*%
G04 Gerber Fmt 4.6, Leading zero omitted, Abs format (unit mm)*
G04 Created by KiCad (PCBNEW 8.0.3) date 2024-06-26 12:27:57*
%MOMM*%
%LPD*%
G01*
G04 APERTURE LIST*
%TA.AperFunction,EtchedComponent*%
%ADD10C,0.010000*%
%TD*%
%TA.AperFunction,ComponentPad*%
%ADD11O,9.000000X10.000000*%
%TD*%
%TA.AperFunction,ComponentPad*%
%ADD12C,2.540000*%
%TD*%
%TA.AperFunction,ComponentPad*%
%ADD13C,2.032000*%
%TD*%
%TA.AperFunction,ComponentPad*%
%ADD14C,1.800000*%
%TD*%
%TA.AperFunction,ComponentPad*%
%ADD15R,2.800000X1.600000*%
%TD*%
%TA.AperFunction,ComponentPad*%
%ADD16O,2.800000X1.600000*%
%TD*%
%TA.AperFunction,ComponentPad*%
%ADD17R,2.032000X2.032000*%
%TD*%
%TA.AperFunction,Conductor*%
%ADD18C,1.016000*%
%TD*%
%TA.AperFunction,Conductor*%
%ADD19C,0.300000*%
%TD*%
%TA.AperFunction,Conductor*%
%ADD20C,0.500000*%
%TD*%
G04 APERTURE END LIST*
D10*
%TO.C,P2*%
X25996922Y19491663D02*
X26298296Y19490811D01*
X26569165Y19488630D01*
X26798697Y19485317D01*
X26976060Y19481069D01*
X27090422Y19476084D01*
X27130949Y19470559D01*
X27128385Y19465511D01*
X27090078Y19406397D01*
X27009363Y19286555D01*
X26890763Y19112568D01*
X26738797Y18891016D01*
X26557988Y18628483D01*
X26352858Y18331549D01*
X26127927Y18006797D01*
X25887717Y17660809D01*
X25806430Y17543808D01*
X25571248Y17204670D01*
X25353146Y16889247D01*
X25156602Y16604072D01*
X24986093Y16355679D01*
X24846098Y16150603D01*
X24741095Y15995376D01*
X24675560Y15896532D01*
X24653973Y15860606D01*
X24678618Y15864466D01*
X24774564Y15887549D01*
X24932435Y15928397D01*
X25141094Y15984067D01*
X25389404Y16051615D01*
X25666228Y16128098D01*
X25875091Y16185709D01*
X26134863Y16255819D01*
X26359266Y16314614D01*
X26536780Y16359150D01*
X26655881Y16386481D01*
X26705049Y16393661D01*
X26706477Y16390612D01*
X26695674Y16358784D01*
X26661365Y16290183D01*
X26601637Y16181606D01*
X26514579Y16029850D01*
X26398277Y15831714D01*
X26250819Y15583994D01*
X26070291Y15283488D01*
X25854781Y14926994D01*
X25602376Y14511309D01*
X25311164Y14033231D01*
X24979231Y13489557D01*
X24604665Y12877085D01*
X24540491Y12772463D01*
X24404202Y12551959D01*
X24285656Y12362451D01*
X24191403Y12214282D01*
X24127993Y12117796D01*
X24101978Y12083335D01*
X24099830Y12106292D01*
X24121751Y12178585D01*
X24169803Y12303322D01*
X24368637Y12820455D01*
X24554582Y13305647D01*
X24725666Y13753678D01*
X24879920Y14159326D01*
X25015372Y14517369D01*
X25130052Y14822586D01*
X25221989Y15069754D01*
X25289212Y15253654D01*
X25329751Y15369063D01*
X25341635Y15410760D01*
X25336731Y15410550D01*
X25273790Y15390160D01*
X25147980Y15343099D01*
X24970986Y15273914D01*
X24754495Y15187150D01*
X24510196Y15087353D01*
X24436601Y15057079D01*
X24197244Y14959392D01*
X23987857Y14875096D01*
X23820495Y14808969D01*
X23707207Y14765790D01*
X23660047Y14750335D01*
X23662035Y14777971D01*
X23682053Y14880499D01*
X23719713Y15051872D01*
X23773307Y15284860D01*
X23841124Y15572233D01*
X23921457Y15906764D01*
X24012596Y16281221D01*
X24112833Y16688377D01*
X24220458Y17121001D01*
X24813189Y19491668D01*
X25972069Y19491668D01*
X25996922Y19491663D01*
%TA.AperFunction,EtchedComponent*%
G36*
X25996922Y19491663D02*
G01*
X26298296Y19490811D01*
X26569165Y19488630D01*
X26798697Y19485317D01*
X26976060Y19481069D01*
X27090422Y19476084D01*
X27130949Y19470559D01*
X27128385Y19465511D01*
X27090078Y19406397D01*
X27009363Y19286555D01*
X26890763Y19112568D01*
X26738797Y18891016D01*
X26557988Y18628483D01*
X26352858Y18331549D01*
X26127927Y18006797D01*
X25887717Y17660809D01*
X25806430Y17543808D01*
X25571248Y17204670D01*
X25353146Y16889247D01*
X25156602Y16604072D01*
X24986093Y16355679D01*
X24846098Y16150603D01*
X24741095Y15995376D01*
X24675560Y15896532D01*
X24653973Y15860606D01*
X24678618Y15864466D01*
X24774564Y15887549D01*
X24932435Y15928397D01*
X25141094Y15984067D01*
X25389404Y16051615D01*
X25666228Y16128098D01*
X25875091Y16185709D01*
X26134863Y16255819D01*
X26359266Y16314614D01*
X26536780Y16359150D01*
X26655881Y16386481D01*
X26705049Y16393661D01*
X26706477Y16390612D01*
X26695674Y16358784D01*
X26661365Y16290183D01*
X26601637Y16181606D01*
X26514579Y16029850D01*
X26398277Y15831714D01*
X26250819Y15583994D01*
X26070291Y15283488D01*
X25854781Y14926994D01*
X25602376Y14511309D01*
X25311164Y14033231D01*
X24979231Y13489557D01*
X24604665Y12877085D01*
X24540491Y12772463D01*
X24404202Y12551959D01*
X24285656Y12362451D01*
X24191403Y12214282D01*
X24127993Y12117796D01*
X24101978Y12083335D01*
X24099830Y12106292D01*
X24121751Y12178585D01*
X24169803Y12303322D01*
X24368637Y12820455D01*
X24554582Y13305647D01*
X24725666Y13753678D01*
X24879920Y14159326D01*
X25015372Y14517369D01*
X25130052Y14822586D01*
X25221989Y15069754D01*
X25289212Y15253654D01*
X25329751Y15369063D01*
X25341635Y15410760D01*
X25336731Y15410550D01*
X25273790Y15390160D01*
X25147980Y15343099D01*
X24970986Y15273914D01*
X24754495Y15187150D01*
X24510196Y15087353D01*
X24436601Y15057079D01*
X24197244Y14959392D01*
X23987857Y14875096D01*
X23820495Y14808969D01*
X23707207Y14765790D01*
X23660047Y14750335D01*
X23662035Y14777971D01*
X23682053Y14880499D01*
X23719713Y15051872D01*
X23773307Y15284860D01*
X23841124Y15572233D01*
X23921457Y15906764D01*
X24012596Y16281221D01*
X24112833Y16688377D01*
X24220458Y17121001D01*
X24813189Y19491668D01*
X25972069Y19491668D01*
X25996922Y19491663D01*
G37*
%TD.AperFunction*%
%TD*%
D11*
%TO.P,SC1,1,+*%
%TO.N,Net-(D1-A)*%
X419000Y15381000D03*
%TO.P,SC1,2,-*%
%TO.N,GND*%
X50419000Y15381000D03*
%TD*%
D12*
%TO.P,D1,1,K*%
%TO.N,Net-(D1-K)*%
X13335000Y5715000D03*
%TO.P,D1,2,A*%
%TO.N,Net-(D1-A)*%
X3937000Y5715000D03*
%TD*%
D13*
%TO.P,R1,1*%
%TO.N,Net-(D2-A)*%
X42545000Y19050000D03*
%TO.P,R1,2*%
%TO.N,Net-(R1-Pad2)*%
X42545000Y11430000D03*
%TD*%
%TO.P,R2,1*%
%TO.N,Net-(D3-A)*%
X38100000Y19050000D03*
%TO.P,R2,2*%
%TO.N,Net-(R2-Pad2)*%
X38100000Y11430000D03*
%TD*%
D14*
%TO.P,SW1,1,1*%
%TO.N,Net-(D1-K)*%
X29790000Y21590000D03*
%TO.P,SW1,2,2*%
%TO.N,Net-(R1-Pad2)*%
X34290000Y21590000D03*
%TO.P,SW1,3*%
%TO.N,N/C*%
X29790000Y28090000D03*
%TO.P,SW1,4*%
X34290000Y28090000D03*
%TD*%
%TO.P,SW2,1,1*%
%TO.N,Net-(D1-K)*%
X29790000Y2540000D03*
%TO.P,SW2,2,2*%
%TO.N,Net-(R2-Pad2)*%
X34290000Y2540000D03*
%TO.P,SW2,3*%
%TO.N,N/C*%
X29790000Y9040000D03*
%TO.P,SW2,4*%
X34290000Y9040000D03*
%TD*%
D15*
%TO.P,C1,1*%
%TO.N,Net-(D1-K)*%
X13335000Y8890000D03*
X13335000Y10668000D03*
X13335000Y12446000D03*
D16*
%TO.P,C1,2*%
%TO.N,GND*%
X13335000Y21590000D03*
%TD*%
D17*
%TO.P,D2,1,K*%
%TO.N,GND*%
X41275000Y23495000D03*
D13*
%TO.P,D2,2,A*%
%TO.N,Net-(D2-A)*%
X41275000Y26035000D03*
%TD*%
D17*
%TO.P,D3,1,K*%
%TO.N,GND*%
X41275000Y4445000D03*
D13*
%TO.P,D3,2,A*%
%TO.N,Net-(D3-A)*%
X41275000Y6985000D03*
%TD*%
D18*
%TO.N,GND*%
X43815000Y20955000D02*
X42545000Y20955000D01*
X42545000Y20955000D02*
X41275000Y22225000D01*
X41275000Y22225000D02*
X41275000Y23495000D01*
X40132000Y4445000D02*
X39370000Y5207000D01*
X39370000Y5207000D02*
X39370000Y8255000D01*
X39370000Y8255000D02*
X40640000Y9525000D01*
X40640000Y9525000D02*
X43307000Y9525000D01*
X43307000Y9525000D02*
X44831000Y11049000D01*
D19*
X48046000Y14264000D02*
X48046000Y15381000D01*
D18*
X45910500Y18859500D02*
X45910500Y12128500D01*
X44831000Y11049000D02*
X45910500Y12128500D01*
X45656500Y19113500D02*
X49389000Y15381000D01*
X49163000Y15381000D02*
X49389000Y15381000D01*
X49389000Y15381000D02*
X49911000Y15381000D01*
X41275000Y4445000D02*
X40132000Y4445000D01*
X43815000Y20955000D02*
X45656500Y19113500D01*
X45910500Y12128500D02*
X49163000Y15381000D01*
D19*
X48046000Y15381000D02*
X48046000Y16724000D01*
D18*
X45656500Y19113500D02*
X45910500Y18859500D01*
X50419000Y15381000D02*
X49163000Y15381000D01*
%TO.N,Net-(D1-K)*%
X13335000Y5715000D02*
X13335000Y8890000D01*
X13335000Y8890000D02*
X13335000Y12700000D01*
D19*
%TO.N,Net-(D1-A)*%
X3937000Y14490000D02*
X3046000Y15381000D01*
D20*
X3937000Y14490000D02*
X3046000Y15381000D01*
D18*
X3937000Y11863000D02*
X419000Y15381000D01*
X3937000Y5715000D02*
X3937000Y10795000D01*
X3937000Y10795000D02*
X927000Y13805000D01*
X927000Y13805000D02*
X927000Y15381000D01*
X3937000Y10795000D02*
X3937000Y11863000D01*
%TO.N,Net-(D2-A)*%
X42164000Y19050000D02*
X39243000Y21971000D01*
X39243000Y21971000D02*
X39243000Y25146000D01*
X39243000Y25146000D02*
X40132000Y26035000D01*
X40132000Y26035000D02*
X41275000Y26035000D01*
D19*
X42545000Y19050000D02*
X42164000Y19050000D01*
%TD*%
%TA.AperFunction,NonConductor*%
G36*
X14575586Y33788254D02*
G01*
X14627084Y33739383D01*
X14632729Y33728466D01*
X14848434Y33256138D01*
X14851876Y33247828D01*
X15035893Y32754459D01*
X15038733Y32745925D01*
X15187075Y32240717D01*
X15189299Y32232003D01*
X15205136Y32159204D01*
X15200072Y32088388D01*
X15157526Y32031552D01*
X15091006Y32006741D01*
X15068429Y32007155D01*
X10526413Y32499808D01*
X10460846Y32527039D01*
X10420410Y32585395D01*
X10414000Y32625073D01*
X10414000Y33286731D01*
X10434002Y33354852D01*
X10487658Y33401345D01*
X10527723Y33412132D01*
X14505842Y33801525D01*
X14575586Y33788254D01*
G37*
%TD.AperFunction*%
%TA.AperFunction,NonConductor*%
G36*
X47920039Y30380983D02*
G01*
X47922424Y30380945D01*
X48075473Y30378442D01*
X48089829Y30377384D01*
X48399064Y30336672D01*
X48415216Y30333460D01*
X48715491Y30253001D01*
X48731084Y30247708D01*
X49018284Y30128745D01*
X49033057Y30121460D01*
X49302269Y29966031D01*
X49315969Y29956876D01*
X49562583Y29767642D01*
X49574974Y29756775D01*
X49794774Y29536975D01*
X49805641Y29524584D01*
X49994875Y29277970D01*
X50004032Y29264266D01*
X50159456Y28995063D01*
X50166746Y28980281D01*
X50285704Y28693092D01*
X50291002Y28677485D01*
X50371457Y28377224D01*
X50374672Y28361056D01*
X50378235Y28333987D01*
X50367294Y28263839D01*
X50320165Y28210741D01*
X50251810Y28191553D01*
X50239727Y28192279D01*
X45622474Y28693092D01*
X32377325Y30129735D01*
X32311758Y30156966D01*
X32271322Y30215322D01*
X32268855Y30286276D01*
X32305140Y30347300D01*
X32368657Y30379019D01*
X32390912Y30381000D01*
X47917980Y30381000D01*
X47920039Y30380983D01*
G37*
%TD.AperFunction*%
%TA.AperFunction,NonConductor*%
G36*
X45303929Y21876417D02*
G01*
X48865379Y20888709D01*
X48925675Y20851231D01*
X48956137Y20787101D01*
X48947093Y20716683D01*
X48901414Y20662333D01*
X48874799Y20648892D01*
X48500505Y20512660D01*
X48104135Y20327831D01*
X48104117Y20327821D01*
X47725382Y20109159D01*
X47725368Y20109150D01*
X47367107Y19858292D01*
X47367104Y19858291D01*
X47032083Y19577173D01*
X46920323Y19465414D01*
X46858010Y19431389D01*
X46787194Y19436455D01*
X46742133Y19465415D01*
X46704477Y19503071D01*
X46704468Y19503081D01*
X46590113Y19617436D01*
X46446068Y19761481D01*
X46446067Y19761482D01*
X45469979Y20737570D01*
X44541644Y21665905D01*
X44507618Y21728217D01*
X44512683Y21799032D01*
X44555230Y21855868D01*
X44621750Y21880679D01*
X44630739Y21881000D01*
X45270256Y21881000D01*
X45303929Y21876417D01*
G37*
%TD.AperFunction*%
%TA.AperFunction,NonConductor*%
G36*
X46762261Y11438547D02*
G01*
X46807324Y11409586D01*
X47032082Y11184828D01*
X47367104Y10903710D01*
X47367107Y10903709D01*
X47367113Y10903704D01*
X47613276Y10731339D01*
X47725368Y10652851D01*
X47725382Y10652842D01*
X48066399Y10455957D01*
X48104129Y10434173D01*
X48104132Y10434172D01*
X48104135Y10434170D01*
X48155797Y10410080D01*
X48500504Y10249341D01*
X48734331Y10164235D01*
X48911471Y10099761D01*
X48911473Y10099761D01*
X48911480Y10099758D01*
X49333929Y9986563D01*
X49764637Y9910617D01*
X50200324Y9872500D01*
X50200330Y9872500D01*
X50293000Y9872500D01*
X50361121Y9852498D01*
X50407614Y9798842D01*
X50419000Y9746500D01*
X50419000Y9007000D01*
X50398998Y8938879D01*
X50345342Y8892386D01*
X50293000Y8881000D01*
X44404738Y8881000D01*
X44336617Y8901002D01*
X44290124Y8954658D01*
X44280020Y9024932D01*
X44309514Y9089512D01*
X44315643Y9096095D01*
X46629134Y11409586D01*
X46691446Y11443612D01*
X46762261Y11438547D01*
G37*
%TD.AperFunction*%
%TA.AperFunction,NonConductor*%
G36*
X10230806Y31603364D02*
G01*
X38134176Y23864830D01*
X38194471Y23827352D01*
X38224933Y23763222D01*
X38226500Y23743414D01*
X38226500Y21870881D01*
X38261887Y21692981D01*
X38265564Y21674498D01*
X38342190Y21489507D01*
X38430478Y21357374D01*
X38453434Y21323018D01*
X38453439Y21323012D01*
X41031264Y18745188D01*
X41064688Y18685507D01*
X41090630Y18577450D01*
X41090630Y18577449D01*
X41090631Y18577447D01*
X41182460Y18355751D01*
X41307840Y18151151D01*
X41463682Y17968682D01*
X41646151Y17812840D01*
X41850751Y17687460D01*
X42072447Y17595631D01*
X42305778Y17539613D01*
X42545000Y17520786D01*
X42784222Y17539613D01*
X43017553Y17595631D01*
X43239249Y17687460D01*
X43443849Y17812840D01*
X43626318Y17968682D01*
X43782160Y18151151D01*
X43907540Y18355751D01*
X43999369Y18577447D01*
X44055387Y18810778D01*
X44067963Y18970576D01*
X44093247Y19036913D01*
X44150385Y19079053D01*
X44221235Y19083612D01*
X44282669Y19049782D01*
X44857095Y18475357D01*
X44891120Y18413044D01*
X44894000Y18386261D01*
X44894000Y12601738D01*
X44873998Y12533617D01*
X44857099Y12512648D01*
X44468701Y12124249D01*
X44205240Y11860788D01*
X44142928Y11826763D01*
X44072112Y11831828D01*
X44015277Y11874375D01*
X43999736Y11901666D01*
X43999369Y11902553D01*
X43907540Y12124249D01*
X43782160Y12328849D01*
X43626318Y12511318D01*
X43443849Y12667160D01*
X43239249Y12792540D01*
X43017553Y12884369D01*
X43017551Y12884370D01*
X42857936Y12922690D01*
X42784222Y12940387D01*
X42545000Y12959214D01*
X42305778Y12940387D01*
X42072448Y12884370D01*
X41850752Y12792541D01*
X41646152Y12667161D01*
X41463682Y12511318D01*
X41307839Y12328848D01*
X41182459Y12124248D01*
X41090630Y11902552D01*
X41035009Y11670872D01*
X41034613Y11669222D01*
X41015786Y11430000D01*
X41034613Y11190778D01*
X41052310Y11117064D01*
X41090630Y10957449D01*
X41182460Y10735751D01*
X41183942Y10733333D01*
X41184224Y10732288D01*
X41184708Y10731339D01*
X41184508Y10731238D01*
X41202479Y10664799D01*
X41181021Y10597123D01*
X41126381Y10551791D01*
X41076508Y10541500D01*
X40539879Y10541500D01*
X40343497Y10502436D01*
X40343494Y10502435D01*
X40158507Y10425810D01*
X39992017Y10314566D01*
X39992011Y10314561D01*
X38950078Y9272626D01*
X38722019Y9044567D01*
X38684452Y9007000D01*
X38580435Y8902984D01*
X38580434Y8902983D01*
X38469190Y8736493D01*
X38392565Y8551506D01*
X38392563Y8551500D01*
X38389273Y8534960D01*
X38356364Y8472052D01*
X38294667Y8436922D01*
X38223773Y8440725D01*
X38186869Y8461249D01*
X34484801Y11430000D01*
X36570786Y11430000D01*
X36589613Y11190778D01*
X36607310Y11117064D01*
X36645630Y10957449D01*
X36645631Y10957447D01*
X36737460Y10735751D01*
X36862840Y10531151D01*
X37018682Y10348682D01*
X37201151Y10192840D01*
X37405751Y10067460D01*
X37627447Y9975631D01*
X37860778Y9919613D01*
X38100000Y9900786D01*
X38339222Y9919613D01*
X38572553Y9975631D01*
X38794249Y10067460D01*
X38998849Y10192840D01*
X39181318Y10348682D01*
X39337160Y10531151D01*
X39462540Y10735751D01*
X39554369Y10957447D01*
X39610387Y11190778D01*
X39629214Y11430000D01*
X39610387Y11669222D01*
X39554369Y11902553D01*
X39462540Y12124249D01*
X39337160Y12328849D01*
X39181318Y12511318D01*
X38998849Y12667160D01*
X38794249Y12792540D01*
X38572553Y12884369D01*
X38572551Y12884370D01*
X38412936Y12922690D01*
X38339222Y12940387D01*
X38100000Y12959214D01*
X37860778Y12940387D01*
X37627448Y12884370D01*
X37405752Y12792541D01*
X37201152Y12667161D01*
X37018682Y12511318D01*
X36862839Y12328848D01*
X36737459Y12124248D01*
X36645630Y11902552D01*
X36590009Y11670872D01*
X36589613Y11669222D01*
X36570786Y11430000D01*
X34484801Y11430000D01*
X26680597Y17688324D01*
X26639966Y17746545D01*
X26637263Y17817490D01*
X26655839Y17858359D01*
X26779102Y18036323D01*
X26779460Y18036841D01*
X26858429Y18151151D01*
X26984621Y18333820D01*
X26985012Y18334387D01*
X27165821Y18596920D01*
X27166379Y18597731D01*
X27318345Y18819283D01*
X27319193Y18820524D01*
X27437793Y18994511D01*
X27439418Y18996908D01*
X27475176Y19050000D01*
X36570786Y19050000D01*
X36589613Y18810779D01*
X36645630Y18577449D01*
X36713729Y18413044D01*
X36737460Y18355751D01*
X36862840Y18151151D01*
X37018682Y17968682D01*
X37201151Y17812840D01*
X37405751Y17687460D01*
X37627447Y17595631D01*
X37860778Y17539613D01*
X38100000Y17520786D01*
X38339222Y17539613D01*
X38572553Y17595631D01*
X38794249Y17687460D01*
X38998849Y17812840D01*
X39181318Y17968682D01*
X39337160Y18151151D01*
X39462540Y18355751D01*
X39554369Y18577447D01*
X39610387Y18810778D01*
X39629214Y19050000D01*
X39610387Y19289222D01*
X39554369Y19522553D01*
X39462540Y19744249D01*
X39337160Y19948849D01*
X39181318Y20131318D01*
X38998849Y20287160D01*
X38794249Y20412540D01*
X38572553Y20504369D01*
X38572551Y20504370D01*
X38412936Y20542690D01*
X38339222Y20560387D01*
X38100000Y20579214D01*
X37860778Y20560387D01*
X37627448Y20504370D01*
X37405752Y20412541D01*
X37201152Y20287161D01*
X37018682Y20131318D01*
X36862839Y19948848D01*
X36737459Y19744248D01*
X36645630Y19522552D01*
X36589613Y19289222D01*
X36570786Y19050000D01*
X27475176Y19050000D01*
X27520133Y19116750D01*
X27525204Y19124427D01*
X27563511Y19183541D01*
X27590671Y19230705D01*
X27593235Y19235753D01*
X27638720Y19365624D01*
X27648201Y19506510D01*
X27619320Y19644730D01*
X27619320Y19644731D01*
X27619320Y19644732D01*
X27554223Y19770028D01*
X27554221Y19770031D01*
X27522055Y19804396D01*
X27457727Y19873124D01*
X27457726Y19873125D01*
X27457725Y19873126D01*
X27336998Y19946359D01*
X27336995Y19946360D01*
X27200985Y19984308D01*
X27200978Y19984309D01*
X27160464Y19989832D01*
X27160454Y19989834D01*
X27113044Y19994089D01*
X27112979Y19994094D01*
X26998665Y19999076D01*
X26998655Y19999077D01*
X26998640Y19999077D01*
X26997343Y19999121D01*
X26988506Y19999420D01*
X26811118Y20003668D01*
X26806187Y20003763D01*
X26576526Y20007078D01*
X26573481Y20007112D01*
X26302419Y20009295D01*
X26299588Y20009310D01*
X25998494Y20010162D01*
X25998494Y20010161D01*
X25997518Y20010163D01*
X25997026Y20010163D01*
X25996966Y20010164D01*
X25972221Y20010168D01*
X25972173Y20010168D01*
X24813189Y20010168D01*
X24813181Y20010168D01*
X24693436Y19996150D01*
X24561772Y19945134D01*
X24561771Y19945134D01*
X24448748Y19860485D01*
X24362758Y19748486D01*
X24358493Y19741003D01*
X24355978Y19742437D01*
X24320903Y19697927D01*
X24253788Y19674775D01*
X24184809Y19691583D01*
X24169094Y19702341D01*
X21815161Y21590000D01*
X28376673Y21590000D01*
X28395950Y21357367D01*
X28453249Y21131097D01*
X28453252Y21131090D01*
X28547015Y20917332D01*
X28674685Y20721917D01*
X28832774Y20550187D01*
X28832778Y20550183D01*
X28880988Y20512660D01*
X29016983Y20406810D01*
X29222273Y20295713D01*
X29443049Y20219920D01*
X29673288Y20181500D01*
X29673292Y20181500D01*
X29906708Y20181500D01*
X29906712Y20181500D01*
X30136951Y20219920D01*
X30357727Y20295713D01*
X30563017Y20406810D01*
X30747220Y20550182D01*
X30756615Y20560387D01*
X30905314Y20721917D01*
X30947901Y20787101D01*
X31032984Y20917331D01*
X31126749Y21131093D01*
X31184051Y21357374D01*
X31203327Y21590000D01*
X32876673Y21590000D01*
X32895950Y21357367D01*
X32953249Y21131097D01*
X32953252Y21131090D01*
X33047015Y20917332D01*
X33174685Y20721917D01*
X33332774Y20550187D01*
X33332778Y20550183D01*
X33380988Y20512660D01*
X33516983Y20406810D01*
X33722273Y20295713D01*
X33943049Y20219920D01*
X34173288Y20181500D01*
X34173292Y20181500D01*
X34406708Y20181500D01*
X34406712Y20181500D01*
X34636951Y20219920D01*
X34857727Y20295713D01*
X35063017Y20406810D01*
X35247220Y20550182D01*
X35256615Y20560387D01*
X35405314Y20721917D01*
X35447901Y20787101D01*
X35532984Y20917331D01*
X35626749Y21131093D01*
X35684051Y21357374D01*
X35703327Y21590000D01*
X35684051Y21822626D01*
X35671831Y21870881D01*
X35626750Y22048904D01*
X35626747Y22048911D01*
X35532984Y22262669D01*
X35405314Y22458084D01*
X35247225Y22629814D01*
X35247221Y22629818D01*
X35145322Y22709129D01*
X35063017Y22773190D01*
X34857727Y22884287D01*
X34857724Y22884288D01*
X34857723Y22884289D01*
X34636955Y22960079D01*
X34636948Y22960081D01*
X34538411Y22976524D01*
X34406712Y22998500D01*
X34173288Y22998500D01*
X34058066Y22979273D01*
X33943051Y22960081D01*
X33943044Y22960079D01*
X33722276Y22884289D01*
X33722273Y22884287D01*
X33516985Y22773191D01*
X33516983Y22773190D01*
X33332778Y22629818D01*
X33332774Y22629814D01*
X33174685Y22458084D01*
X33047015Y22262669D01*
X32953252Y22048911D01*
X32953249Y22048904D01*
X32895950Y21822634D01*
X32895949Y21822628D01*
X32895949Y21822626D01*
X32882963Y21665905D01*
X32876673Y21590000D01*
X31203327Y21590000D01*
X31184051Y21822626D01*
X31171831Y21870881D01*
X31126750Y22048904D01*
X31126747Y22048911D01*
X31032984Y22262669D01*
X30905314Y22458084D01*
X30747225Y22629814D01*
X30747221Y22629818D01*
X30645322Y22709129D01*
X30563017Y22773190D01*
X30357727Y22884287D01*
X30357724Y22884288D01*
X30357723Y22884289D01*
X30136955Y22960079D01*
X30136948Y22960081D01*
X30038411Y22976524D01*
X29906712Y22998500D01*
X29673288Y22998500D01*
X29558066Y22979273D01*
X29443051Y22960081D01*
X29443044Y22960079D01*
X29222276Y22884289D01*
X29222273Y22884287D01*
X29016985Y22773191D01*
X29016983Y22773190D01*
X28832778Y22629818D01*
X28832774Y22629814D01*
X28674685Y22458084D01*
X28547015Y22262669D01*
X28453252Y22048911D01*
X28453249Y22048904D01*
X28395950Y21822634D01*
X28395949Y21822628D01*
X28395949Y21822626D01*
X28382963Y21665905D01*
X28376673Y21590000D01*
X21815161Y21590000D01*
X14877787Y27153197D01*
X9888693Y31154036D01*
X9848063Y31212255D01*
X9845360Y31283200D01*
X9878423Y31341424D01*
X10108042Y31571043D01*
X10170352Y31605067D01*
X10230806Y31603364D01*
G37*
%TD.AperFunction*%
%TA.AperFunction,NonConductor*%
G36*
X42861121Y8488498D02*
G01*
X42907614Y8434842D01*
X42919000Y8382500D01*
X42919000Y7633188D01*
X42898998Y7565067D01*
X42845342Y7518574D01*
X42775068Y7508470D01*
X42710488Y7537964D01*
X42676591Y7584970D01*
X42675331Y7588011D01*
X42637540Y7679249D01*
X42512160Y7883849D01*
X42356318Y8066318D01*
X42173849Y8222160D01*
X42173843Y8222164D01*
X42173841Y8222166D01*
X42087513Y8275068D01*
X42039881Y8327715D01*
X42028275Y8397757D01*
X42056379Y8462954D01*
X42115269Y8502608D01*
X42153348Y8508500D01*
X42793000Y8508500D01*
X42861121Y8488498D01*
G37*
%TD.AperFunction*%
%TA.AperFunction,NonConductor*%
G36*
X42857293Y6445175D02*
G01*
X42905672Y6393213D01*
X42919000Y6336813D01*
X42919000Y5849182D01*
X42898998Y5781061D01*
X42845342Y5734568D01*
X42775068Y5724464D01*
X42710488Y5753958D01*
X42692133Y5773672D01*
X42654262Y5824261D01*
X42538413Y5910984D01*
X42495866Y5967819D01*
X42490801Y6038635D01*
X42510069Y6081626D01*
X42509573Y6081930D01*
X42511929Y6085775D01*
X42512000Y6085933D01*
X42512146Y6086136D01*
X42512160Y6086151D01*
X42637540Y6290751D01*
X42676591Y6385032D01*
X42721139Y6440312D01*
X42788502Y6462733D01*
X42857293Y6445175D01*
G37*
%TD.AperFunction*%
%TA.AperFunction,NonConductor*%
G36*
X50359044Y2860998D02*
G01*
X50405537Y2807342D01*
X50416906Y2752942D01*
X50416442Y2724543D01*
X50415381Y2710155D01*
X50374672Y2400943D01*
X50371457Y2384778D01*
X50291002Y2084516D01*
X50285704Y2068909D01*
X50166746Y1781720D01*
X50159456Y1766938D01*
X50004032Y1497735D01*
X49994875Y1484031D01*
X49805641Y1237417D01*
X49794774Y1225026D01*
X49574974Y1005226D01*
X49562583Y994359D01*
X49315969Y805125D01*
X49302265Y795968D01*
X49033062Y640544D01*
X49018280Y633254D01*
X48731091Y514296D01*
X48715484Y508998D01*
X48415223Y428543D01*
X48399057Y425328D01*
X48288051Y410715D01*
X48217902Y421655D01*
X48192780Y437340D01*
X45425207Y2656703D01*
X45384576Y2714924D01*
X45381873Y2785869D01*
X45417954Y2847013D01*
X45481365Y2878944D01*
X45504033Y2881000D01*
X50290923Y2881000D01*
X50359044Y2860998D01*
G37*
%TD.AperFunction*%
%TA.AperFunction,NonConductor*%
G36*
X11801762Y7596976D02*
G01*
X11825795Y7588012D01*
X11825803Y7588010D01*
X11886350Y7581501D01*
X11886355Y7581501D01*
X11886362Y7581500D01*
X12192500Y7581500D01*
X12260621Y7561498D01*
X12307114Y7507842D01*
X12318500Y7455500D01*
X12318500Y7241081D01*
X12298498Y7172960D01*
X12263480Y7136976D01*
X12223017Y7109389D01*
X12223015Y7109387D01*
X12027609Y6928076D01*
X11935935Y6813122D01*
X11877824Y6772334D01*
X11806887Y6769439D01*
X11745645Y6805355D01*
X11713543Y6868679D01*
X11712577Y6874690D01*
X11632874Y7461978D01*
X11643533Y7532168D01*
X11690449Y7585455D01*
X11758726Y7604917D01*
X11801762Y7596976D01*
G37*
%TD.AperFunction*%
%TA.AperFunction,NonConductor*%
G36*
X9187370Y30672017D02*
G01*
X9201794Y30655644D01*
X28975792Y3846666D01*
X29000131Y3779972D01*
X28984548Y3710706D01*
X28951782Y3672443D01*
X28832785Y3579824D01*
X28832774Y3579814D01*
X28674685Y3408084D01*
X28547015Y3212669D01*
X28453252Y2998911D01*
X28453249Y2998904D01*
X28395950Y2772634D01*
X28376673Y2540000D01*
X28395950Y2307367D01*
X28453249Y2081097D01*
X28453252Y2081090D01*
X28547015Y1867332D01*
X28674685Y1671917D01*
X28832774Y1500187D01*
X28832778Y1500183D01*
X28898650Y1448913D01*
X29016983Y1356810D01*
X29222273Y1245713D01*
X29443049Y1169920D01*
X29673288Y1131500D01*
X29673292Y1131500D01*
X29906708Y1131500D01*
X29906712Y1131500D01*
X30136951Y1169920D01*
X30357727Y1245713D01*
X30563017Y1356810D01*
X30619333Y1400644D01*
X30685372Y1426700D01*
X30755018Y1412916D01*
X30798124Y1376004D01*
X31383926Y581792D01*
X31408265Y515098D01*
X31392682Y445832D01*
X31342125Y395987D01*
X31282525Y381000D01*
X12703919Y381000D01*
X12635798Y401002D01*
X12589305Y454658D01*
X12579064Y490055D01*
X12380980Y1949619D01*
X12080570Y4163165D01*
X12091229Y4233355D01*
X12138145Y4286641D01*
X12206422Y4306104D01*
X12274382Y4285564D01*
X12276403Y4284214D01*
X12443247Y4170461D01*
X12443254Y4170457D01*
X12443257Y4170455D01*
X12581711Y4103779D01*
X12683414Y4054801D01*
X12683427Y4054796D01*
X12938126Y3976232D01*
X12938128Y3976232D01*
X12938137Y3976229D01*
X13201720Y3936500D01*
X13201725Y3936500D01*
X13468275Y3936500D01*
X13468280Y3936500D01*
X13731863Y3976229D01*
X13731873Y3976232D01*
X13986572Y4054796D01*
X13986574Y4054798D01*
X13986581Y4054799D01*
X13986586Y4054802D01*
X13986590Y4054803D01*
X14226738Y4170452D01*
X14226738Y4170453D01*
X14226744Y4170455D01*
X14446986Y4320614D01*
X14642388Y4501921D01*
X14808586Y4710326D01*
X14941866Y4941174D01*
X15039252Y5189308D01*
X15098567Y5449185D01*
X15118487Y5715000D01*
X15098567Y5980815D01*
X15039252Y6240692D01*
X14993577Y6357069D01*
X14941869Y6488820D01*
X14941867Y6488824D01*
X14808588Y6719671D01*
X14808586Y6719674D01*
X14642388Y6928079D01*
X14446986Y7109386D01*
X14446982Y7109389D01*
X14406520Y7136976D01*
X14361505Y7191877D01*
X14351500Y7241081D01*
X14351500Y7455500D01*
X14371502Y7523621D01*
X14425158Y7570114D01*
X14477500Y7581500D01*
X14783632Y7581500D01*
X14783638Y7581500D01*
X14783645Y7581501D01*
X14783649Y7581501D01*
X14844196Y7588010D01*
X14844199Y7588011D01*
X14844201Y7588011D01*
X14981204Y7639111D01*
X15098261Y7726739D01*
X15185889Y7843796D01*
X15236989Y7980799D01*
X15243500Y8041362D01*
X15243500Y9738638D01*
X15240608Y9765534D01*
X15240608Y9792467D01*
X15243500Y9819362D01*
X15243500Y11516638D01*
X15240608Y11543534D01*
X15240608Y11570468D01*
X15243500Y11597362D01*
X15243500Y13294638D01*
X15243499Y13294650D01*
X15236990Y13355197D01*
X15236988Y13355205D01*
X15185889Y13492203D01*
X15185887Y13492208D01*
X15098261Y13609262D01*
X14981207Y13696888D01*
X14981202Y13696890D01*
X14844204Y13747989D01*
X14844196Y13747991D01*
X14783649Y13754500D01*
X14783638Y13754500D01*
X11886362Y13754500D01*
X11886350Y13754500D01*
X11825803Y13747991D01*
X11825795Y13747989D01*
X11688797Y13696890D01*
X11688792Y13696888D01*
X11571738Y13609262D01*
X11484112Y13492208D01*
X11484110Y13492203D01*
X11433011Y13355205D01*
X11433009Y13355197D01*
X11426500Y13294650D01*
X11426500Y11597351D01*
X11429391Y11570468D01*
X11429391Y11543532D01*
X11426500Y11516650D01*
X11426500Y10847982D01*
X11406498Y10779861D01*
X11352842Y10733368D01*
X11282568Y10723264D01*
X11217988Y10752758D01*
X11179604Y10812484D01*
X11175645Y10831037D01*
X9850951Y20591937D01*
X9701524Y21692981D01*
X11426500Y21692981D01*
X11426500Y21487019D01*
X11458720Y21283592D01*
X11522366Y21087710D01*
X11615871Y20904197D01*
X11736932Y20737570D01*
X11736934Y20737568D01*
X11736936Y20737565D01*
X11882564Y20591937D01*
X11882567Y20591935D01*
X11882570Y20591932D01*
X12049197Y20470871D01*
X12232710Y20377366D01*
X12428592Y20313720D01*
X12632019Y20281500D01*
X12632022Y20281500D01*
X14037978Y20281500D01*
X14037981Y20281500D01*
X14241408Y20313720D01*
X14437290Y20377366D01*
X14620803Y20470871D01*
X14787430Y20591932D01*
X14933068Y20737570D01*
X15054129Y20904197D01*
X15147634Y21087710D01*
X15211280Y21283592D01*
X15243500Y21487019D01*
X15243500Y21692981D01*
X15211280Y21896408D01*
X15147634Y22092290D01*
X15054129Y22275803D01*
X14933068Y22442430D01*
X14933065Y22442433D01*
X14933063Y22442436D01*
X14787435Y22588064D01*
X14787432Y22588066D01*
X14787430Y22588068D01*
X14620803Y22709129D01*
X14437290Y22802634D01*
X14437287Y22802635D01*
X14437285Y22802636D01*
X14241412Y22866279D01*
X14241410Y22866280D01*
X14241408Y22866280D01*
X14037981Y22898500D01*
X12632019Y22898500D01*
X12428592Y22866280D01*
X12428590Y22866280D01*
X12428587Y22866279D01*
X12232714Y22802636D01*
X12232708Y22802633D01*
X12049193Y22709127D01*
X11882567Y22588066D01*
X11882564Y22588064D01*
X11736936Y22442436D01*
X11736934Y22442433D01*
X11615873Y22275807D01*
X11522367Y22092292D01*
X11522364Y22092286D01*
X11458721Y21896413D01*
X11458720Y21896410D01*
X11458720Y21896408D01*
X11426500Y21692981D01*
X9701524Y21692981D01*
X8522221Y30382581D01*
X8532880Y30452772D01*
X8579796Y30506058D01*
X8600275Y30516511D01*
X9053600Y30697841D01*
X9124275Y30704568D01*
X9187370Y30672017D01*
G37*
%TD.AperFunction*%
%TA.AperFunction,NonConductor*%
G36*
X6460412Y30824196D02*
G01*
X7403892Y30509703D01*
X7462191Y30469186D01*
X7489331Y30403581D01*
X7489982Y30386121D01*
X6842729Y10249341D01*
X6533875Y640544D01*
X6529452Y502952D01*
X6507272Y435509D01*
X6452150Y390764D01*
X6403517Y381000D01*
X2920020Y381000D01*
X2917960Y381017D01*
X2762540Y383558D01*
X2748154Y384619D01*
X2438942Y425328D01*
X2422777Y428543D01*
X2122515Y508998D01*
X2106908Y514296D01*
X1819719Y633254D01*
X1804937Y640544D01*
X1535734Y795968D01*
X1522030Y805125D01*
X1275416Y994359D01*
X1263025Y1005226D01*
X1043225Y1225026D01*
X1032358Y1237417D01*
X843124Y1484031D01*
X833967Y1497735D01*
X678543Y1766938D01*
X671253Y1781720D01*
X552295Y2068909D01*
X546999Y2084509D01*
X466540Y2384784D01*
X463328Y2400936D01*
X422616Y2710171D01*
X421558Y2724527D01*
X419017Y2879962D01*
X419000Y2882021D01*
X419000Y9746500D01*
X439002Y9814621D01*
X492658Y9861114D01*
X545000Y9872500D01*
X637670Y9872500D01*
X637676Y9872500D01*
X1073363Y9910617D01*
X1504071Y9986563D01*
X1926520Y10099758D01*
X2337496Y10249341D01*
X2733871Y10434173D01*
X2733889Y10434184D01*
X2735056Y10434790D01*
X2735295Y10434838D01*
X2736363Y10435335D01*
X2736485Y10435072D01*
X2804716Y10448502D01*
X2870731Y10422377D01*
X2882331Y10412121D01*
X2883595Y10410857D01*
X2917621Y10348545D01*
X2920500Y10321762D01*
X2920500Y7241081D01*
X2900498Y7172960D01*
X2865480Y7136976D01*
X2825017Y7109389D01*
X2825015Y7109387D01*
X2629613Y6928080D01*
X2463411Y6719671D01*
X2330132Y6488824D01*
X2330130Y6488820D01*
X2232746Y6240688D01*
X2173434Y5980820D01*
X2173433Y5980815D01*
X2153513Y5715000D01*
X2173433Y5449185D01*
X2173434Y5449181D01*
X2232746Y5189313D01*
X2330130Y4941181D01*
X2330132Y4941177D01*
X2463411Y4710330D01*
X2463413Y4710327D01*
X2463414Y4710326D01*
X2629612Y4501921D01*
X2825014Y4320614D01*
X2825020Y4320610D01*
X3045247Y4170461D01*
X3045254Y4170457D01*
X3045257Y4170455D01*
X3183711Y4103779D01*
X3285414Y4054801D01*
X3285427Y4054796D01*
X3540126Y3976232D01*
X3540128Y3976232D01*
X3540137Y3976229D01*
X3803720Y3936500D01*
X3803725Y3936500D01*
X4070275Y3936500D01*
X4070280Y3936500D01*
X4333863Y3976229D01*
X4333873Y3976232D01*
X4588572Y4054796D01*
X4588574Y4054798D01*
X4588581Y4054799D01*
X4588586Y4054802D01*
X4588590Y4054803D01*
X4828738Y4170452D01*
X4828738Y4170453D01*
X4828744Y4170455D01*
X5048986Y4320614D01*
X5244388Y4501921D01*
X5410586Y4710326D01*
X5543866Y4941174D01*
X5641252Y5189308D01*
X5700567Y5449185D01*
X5720487Y5715000D01*
X5700567Y5980815D01*
X5641252Y6240692D01*
X5595577Y6357069D01*
X5543869Y6488820D01*
X5543867Y6488824D01*
X5410588Y6719671D01*
X5410586Y6719674D01*
X5244388Y6928079D01*
X5048986Y7109386D01*
X5048982Y7109389D01*
X5008520Y7136976D01*
X4963505Y7191877D01*
X4953500Y7241081D01*
X4953500Y11963117D01*
X4953499Y11963120D01*
X4914436Y12159502D01*
X4837810Y12344493D01*
X4827722Y12359590D01*
X4806508Y12427342D01*
X4823370Y12492593D01*
X4865824Y12566124D01*
X4865827Y12566129D01*
X5050659Y12962504D01*
X5200242Y13373480D01*
X5313437Y13795929D01*
X5389383Y14226637D01*
X5427500Y14662324D01*
X5427500Y16099676D01*
X5389383Y16535363D01*
X5313437Y16966071D01*
X5200242Y17388520D01*
X5050659Y17799496D01*
X4865827Y18195871D01*
X4844043Y18233601D01*
X4647158Y18574618D01*
X4647149Y18574632D01*
X4619082Y18614715D01*
X4396296Y18932887D01*
X4396291Y18932893D01*
X4396290Y18932896D01*
X4115172Y19267918D01*
X3805917Y19577173D01*
X3470895Y19858291D01*
X3470892Y19858292D01*
X3470890Y19858293D01*
X3470887Y19858296D01*
X3272133Y19997465D01*
X3112631Y20109150D01*
X3112617Y20109159D01*
X2733882Y20327821D01*
X2733864Y20327831D01*
X2337494Y20512660D01*
X2136932Y20585659D01*
X2079761Y20627753D01*
X2054423Y20694075D01*
X2064023Y20753239D01*
X6304565Y30753851D01*
X6349573Y30808757D01*
X6417121Y30830615D01*
X6460412Y30824196D01*
G37*
%TD.AperFunction*%
%TA.AperFunction,NonConductor*%
G36*
X5447726Y32110285D02*
G01*
X5496929Y32059103D01*
X5497870Y32057259D01*
X5801706Y31449587D01*
X5814280Y31379713D01*
X5787081Y31314133D01*
X5778771Y31304815D01*
X634763Y26082867D01*
X572708Y26048374D01*
X501856Y26052907D01*
X444702Y26095025D01*
X419392Y26161357D01*
X419000Y26171290D01*
X419000Y30380437D01*
X419005Y30381561D01*
X421354Y30644870D01*
X421667Y30652677D01*
X459275Y31178503D01*
X460234Y31187417D01*
X535174Y31708633D01*
X536767Y31717459D01*
X551249Y31784031D01*
X585274Y31846344D01*
X647586Y31880369D01*
X667849Y31883079D01*
X5378665Y32126742D01*
X5447726Y32110285D01*
G37*
%TD.AperFunction*%
%TA.AperFunction,NonConductor*%
G36*
X3239726Y36149686D02*
G01*
X3274562Y36126045D01*
X4360951Y35084922D01*
X5539953Y33955045D01*
X5575296Y33893470D01*
X5577059Y33843360D01*
X5483255Y33280533D01*
X5452326Y33216627D01*
X5391757Y33179588D01*
X5329404Y33178765D01*
X1584449Y34082720D01*
X1522924Y34118147D01*
X1490319Y34181214D01*
X1496986Y34251897D01*
X1508010Y34273313D01*
X1753963Y34656024D01*
X1759064Y34663369D01*
X2074649Y35084941D01*
X2080262Y35091906D01*
X2425106Y35489878D01*
X2431209Y35496433D01*
X2803567Y35868791D01*
X2810122Y35874894D01*
X3104873Y36130297D01*
X3169452Y36159790D01*
X3239726Y36149686D01*
G37*
%TD.AperFunction*%
%TA.AperFunction,NonConductor*%
G36*
X6519339Y37729016D02*
G01*
X6576175Y37686469D01*
X6600615Y37624150D01*
X6849589Y35258899D01*
X6836828Y35189059D01*
X6789107Y35137665D01*
X6323209Y34858126D01*
X6254505Y34840230D01*
X6187033Y34862319D01*
X6155517Y34893408D01*
X4679743Y36979847D01*
X4656735Y37047013D01*
X4673693Y37115955D01*
X4725231Y37164784D01*
X4730269Y37167222D01*
X5043886Y37310445D01*
X5052156Y37313871D01*
X5545544Y37497896D01*
X5554062Y37500730D01*
X6059307Y37649083D01*
X6068001Y37651302D01*
X6448524Y37734080D01*
X6519339Y37729016D01*
G37*
%TD.AperFunction*%
%TA.AperFunction,NonConductor*%
G36*
X8182865Y37878646D02*
G01*
X8190678Y37878333D01*
X8716499Y37840725D01*
X8725391Y37839770D01*
X9246668Y37764821D01*
X9255452Y37763235D01*
X9769991Y37651303D01*
X9778702Y37649080D01*
X10172823Y37533356D01*
X10232549Y37494973D01*
X10262042Y37430392D01*
X10251939Y37360118D01*
X10244173Y37345680D01*
X8938545Y35256674D01*
X8885479Y35209509D01*
X8815338Y35198520D01*
X8801138Y35201216D01*
X7974820Y35407795D01*
X7913584Y35443722D01*
X7881493Y35507051D01*
X7879559Y35536773D01*
X7992786Y37650346D01*
X7998655Y37759906D01*
X8022272Y37826855D01*
X8078338Y37870412D01*
X8125596Y37879157D01*
X8182865Y37878646D01*
G37*
%TD.AperFunction*%
%TA.AperFunction,NonConductor*%
G36*
X11813480Y36785615D02*
G01*
X11842851Y36771721D01*
X12194009Y36546045D01*
X12201381Y36540927D01*
X12622921Y36225366D01*
X12629924Y36219722D01*
X13027863Y35874906D01*
X13034446Y35868777D01*
X13406776Y35496447D01*
X13412905Y35489864D01*
X13755240Y35094788D01*
X13784734Y35030208D01*
X13774630Y34959934D01*
X13728137Y34906278D01*
X13680400Y34887936D01*
X10113162Y34303142D01*
X10042702Y34311860D01*
X9988142Y34357288D01*
X9987940Y34357590D01*
X9833747Y34588879D01*
X9812604Y34656652D01*
X9831458Y34725099D01*
X9845623Y34743821D01*
X9994254Y34906278D01*
X10008255Y34921581D01*
X11681770Y36750773D01*
X11742510Y36787531D01*
X11813480Y36785615D01*
G37*
%TD.AperFunction*%
M02*
