%TF.GenerationSoftware,KiCad,Pcbnew,(5.1.10)-1*%
%TF.CreationDate,2021-07-04T12:46:57+01:00*%
%TF.ProjectId,SolderSolar,536f6c64-6572-4536-9f6c-61722e6b6963,rev?*%
%TF.SameCoordinates,PX6350ce0PY463f660*%
%TF.FileFunction,Profile,NP*%
%FSLAX46Y46*%
G04 Gerber Fmt 4.6, Leading zero omitted, Abs format (unit mm)*
G04 Created by KiCad (PCBNEW (5.1.10)-1) date 2021-07-04 12:46:57*
%MOMM*%
%LPD*%
G01*
G04 APERTURE LIST*
%TA.AperFunction,Profile*%
%ADD10C,0.300000*%
%TD*%
G04 APERTURE END LIST*
D10*
%TO.C,P1*%
X47919000Y381000D02*
X2919000Y381000D01*
X419000Y20381000D02*
X419000Y27881000D01*
X419000Y2881000D02*
X419000Y10381000D01*
X419000Y27881000D02*
X419000Y30381000D01*
X47919000Y30381000D02*
X15419000Y30381000D01*
X42919000Y8881000D02*
X50419000Y8881000D01*
X50419000Y2881000D02*
X42919000Y2881000D01*
X42919000Y27881000D02*
X50419000Y27881000D01*
X50419000Y21881000D02*
X42919000Y21881000D01*
X42919000Y2881000D02*
X42919000Y8881000D01*
X50419000Y8881000D02*
X50419000Y10381000D01*
X50419000Y20381000D02*
X50419000Y21881000D01*
X42919000Y21881000D02*
X42919000Y27881000D01*
X419000Y10381000D02*
X419000Y20381000D01*
X50419000Y10381000D02*
X50419000Y20381000D01*
X15419000Y30381000D02*
G75*
G03*
X7919000Y37881000I-7500000J0D01*
G01*
X7919000Y37881000D02*
G75*
G03*
X419000Y30381000I0J-7500000D01*
G01*
X419000Y2881000D02*
G75*
G03*
X2919000Y381000I2500000J0D01*
G01*
X50419000Y27881000D02*
G75*
G03*
X47919000Y30381000I-2500000J0D01*
G01*
X47919000Y381000D02*
G75*
G03*
X50419000Y2881000I0J2500000D01*
G01*
%TD*%
M02*
